<svg xmlns="http://www.w3.org/2000/svg" width="760" height="622" viewBox="0 0 760 622" font-family="ui-sans-serif,system-ui,Segoe UI,Helvetica,Arial">
<rect width="760" height="622" rx="10" fill="#0d1117"/>
<text x="22" y="34" font-size="19" font-weight="700" fill="#e6edf3">bigint:instructions at n=6000</text>
<text x="22" y="56" font-size="13" fill="#9aa7b4">absolute count · qemu+insn · x86_64 · log scale · less = more efficient</text>
<text x="120" y="97" text-anchor="end" font-size="14" fill="#9aa7b4">C</text>
<rect x="132" y="81" width="18.2" height="24" rx="5" fill="#3fb950"/>
<text x="159.2" y="98" font-size="13" fill="#e6edf3">46.98M</text>
<text x="120" y="137" text-anchor="end" font-size="14" fill="#9aa7b4">Go</text>
<rect x="132" y="121" width="18.5" height="24" rx="5" fill="#3fb950"/>
<text x="159.5" y="138" font-size="13" fill="#e6edf3">47.19M</text>
<text x="120" y="177" text-anchor="end" font-size="14" fill="#9aa7b4">Rust</text>
<rect x="132" y="161" width="27.9" height="24" rx="5" fill="#3fb950"/>
<text x="168.9" y="178" font-size="13" fill="#e6edf3">52.96M</text>
<text x="120" y="217" text-anchor="end" font-size="14" fill="#9aa7b4">Swift</text>
<rect x="132" y="201" width="59.9" height="24" rx="5" fill="#3fb950"/>
<text x="200.9" y="218" font-size="13" fill="#e6edf3">78.35M</text>
<text x="120" y="257" text-anchor="end" font-size="14" fill="#9aa7b4">C#</text>
<rect x="132" y="241" width="160.2" height="24" rx="5" fill="#a371f7"/>
<text x="301.2" y="258" font-size="13" fill="#e6edf3">268.66M</text>
<text x="120" y="297" text-anchor="end" font-size="14" fill="#9aa7b4">Kotlin</text>
<rect x="132" y="281" width="193.1" height="24" rx="5" fill="#a371f7"/>
<text x="334.1" y="298" font-size="13" fill="#e6edf3">402.24M</text>
<text x="120" y="337" text-anchor="end" font-size="14" fill="#9aa7b4">Scala</text>
<rect x="132" y="321" width="262.6" height="24" rx="5" fill="#a371f7"/>
<text x="403.6" y="338" font-size="13" fill="#e6edf3">944.14M</text>
<text x="120" y="377" text-anchor="end" font-size="14" fill="#9aa7b4">PHP</text>
<rect x="132" y="361" width="305.9" height="24" rx="5" fill="#f0883e"/>
<text x="446.9" y="378" font-size="13" fill="#e6edf3">1.60B</text>
<text x="120" y="417" text-anchor="end" font-size="14" fill="#9aa7b4">Elixir</text>
<rect x="132" y="401" width="381.8" height="24" rx="5" fill="#a371f7"/>
<text x="522.8" y="418" font-size="13" fill="#e6edf3">4.08B</text>
<text x="120" y="457" text-anchor="end" font-size="14" fill="#9aa7b4">Ruby</text>
<rect x="132" y="441" width="392.3" height="24" rx="5" fill="#f0883e"/>
<text x="533.3" y="458" font-size="13" fill="#e6edf3">4.64B</text>
<text x="120" y="497" text-anchor="end" font-size="14" fill="#9aa7b4">Perl</text>
<rect x="132" y="481" width="446.0" height="24" rx="5" fill="#f0883e"/>
<text x="587.0" y="498" font-size="13" fill="#e6edf3">8.97B</text>
<text x="120" y="537" text-anchor="end" font-size="14" fill="#9aa7b4">Python</text>
<rect x="132" y="521" width="471.8" height="24" rx="5" fill="#f0883e"/>
<text x="612.8" y="538" font-size="13" fill="#e6edf3">12.29B</text>
<text x="120" y="577" text-anchor="end" font-size="14" fill="#9aa7b4">COBOL</text>
<rect x="132" y="561" width="532.0" height="24" rx="5" fill="#3fb950"/>
<text x="673.0" y="578" font-size="13" fill="#e6edf3">25.76B</text>
</svg>