<svg xmlns="http://www.w3.org/2000/svg" width="760" height="542" viewBox="0 0 760 542" font-family="ui-sans-serif,system-ui,Segoe UI,Helvetica,Arial">
<rect width="760" height="542" rx="10" fill="#0d1117"/>
<text x="22" y="34" font-size="19" font-weight="700" fill="#e6edf3">binary-trees:instructions at n=14</text>
<text x="22" y="56" font-size="13" fill="#9aa7b4">absolute count · qemu+insn · arm64 · log scale · less = more efficient</text>
<text x="120" y="97" text-anchor="end" font-size="14" fill="#9aa7b4">Kotlin</text>
<rect x="132" y="81" width="30.7" height="24" rx="5" fill="#a371f7"/>
<text x="171.7" y="98" font-size="13" fill="#e6edf3">399.37M</text>
<text x="120" y="137" text-anchor="end" font-size="14" fill="#9aa7b4">C#</text>
<rect x="132" y="121" width="78.6" height="24" rx="5" fill="#a371f7"/>
<text x="219.6" y="138" font-size="13" fill="#e6edf3">565.35M</text>
<text x="120" y="177" text-anchor="end" font-size="14" fill="#9aa7b4">C</text>
<rect x="132" y="161" width="126.5" height="24" rx="5" fill="#3fb950"/>
<text x="267.5" y="178" font-size="13" fill="#e6edf3">800.42M</text>
<text x="120" y="217" text-anchor="end" font-size="14" fill="#9aa7b4">Scala</text>
<rect x="132" y="201" width="136.5" height="24" rx="5" fill="#a371f7"/>
<text x="277.5" y="218" font-size="13" fill="#e6edf3">860.57M</text>
<text x="120" y="257" text-anchor="end" font-size="14" fill="#9aa7b4">Go</text>
<rect x="132" y="241" width="138.2" height="24" rx="5" fill="#3fb950"/>
<text x="279.2" y="258" font-size="13" fill="#e6edf3">871.32M</text>
<text x="120" y="297" text-anchor="end" font-size="14" fill="#9aa7b4">Rust</text>
<rect x="132" y="281" width="150.0" height="24" rx="5" fill="#3fb950"/>
<text x="291.0" y="298" font-size="13" fill="#e6edf3">949.26M</text>
<text x="120" y="337" text-anchor="end" font-size="14" fill="#9aa7b4">Swift</text>
<rect x="132" y="321" width="202.5" height="24" rx="5" fill="#3fb950"/>
<text x="343.5" y="338" font-size="13" fill="#e6edf3">1.39B</text>
<text x="120" y="377" text-anchor="end" font-size="14" fill="#9aa7b4">Elixir</text>
<rect x="132" y="361" width="266.2" height="24" rx="5" fill="#a371f7"/>
<text x="407.2" y="378" font-size="13" fill="#e6edf3">2.21B</text>
<text x="120" y="417" text-anchor="end" font-size="14" fill="#9aa7b4">PHP</text>
<rect x="132" y="401" width="368.4" height="24" rx="5" fill="#f0883e"/>
<text x="509.4" y="418" font-size="13" fill="#e6edf3">4.64B</text>
<text x="120" y="457" text-anchor="end" font-size="14" fill="#9aa7b4">Python</text>
<rect x="132" y="441" width="459.1" height="24" rx="5" fill="#f0883e"/>
<text x="600.1" y="458" font-size="13" fill="#e6edf3">8.95B</text>
<text x="120" y="497" text-anchor="end" font-size="14" fill="#9aa7b4">Perl</text>
<rect x="132" y="481" width="532.0" height="24" rx="5" fill="#f0883e"/>
<text x="673.0" y="498" font-size="13" fill="#e6edf3">15.20B</text>
</svg>