<svg xmlns="http://www.w3.org/2000/svg" width="760" height="662" viewBox="0 0 760 662" font-family="ui-sans-serif,system-ui,Segoe UI,Helvetica,Arial">
<rect width="760" height="662" rx="10" fill="#0d1117"/>
<text x="22" y="34" font-size="19" font-weight="700" fill="#e6edf3">binary-trees:instructions at n=14</text>
<text x="22" y="56" font-size="13" fill="#9aa7b4">absolute count · qemu+insn · arm64 · log scale · less = more efficient</text>
<text x="120" y="97" text-anchor="end" font-size="14" fill="#9aa7b4">Java</text>
<rect x="132" y="81" width="30.4" height="24" rx="5" fill="#a371f7"/>
<text x="171.4" y="98" font-size="13" fill="#e6edf3">381.14M</text>
<text x="120" y="137" text-anchor="end" font-size="14" fill="#9aa7b4">Kotlin</text>
<rect x="132" y="121" width="36.7" height="24" rx="5" fill="#a371f7"/>
<text x="177.7" y="138" font-size="13" fill="#e6edf3">399.37M</text>
<text x="120" y="177" text-anchor="end" font-size="14" fill="#9aa7b4">C#</text>
<rect x="132" y="161" width="84.0" height="24" rx="5" fill="#a371f7"/>
<text x="225.0" y="178" font-size="13" fill="#e6edf3">565.35M</text>
<text x="120" y="217" text-anchor="end" font-size="14" fill="#9aa7b4">JavaScript</text>
<rect x="132" y="201" width="87.4" height="24" rx="5" fill="#a371f7"/>
<text x="228.4" y="218" font-size="13" fill="#e6edf3">579.39M</text>
<text x="120" y="257" text-anchor="end" font-size="14" fill="#9aa7b4">C</text>
<rect x="132" y="241" width="131.3" height="24" rx="5" fill="#3fb950"/>
<text x="272.3" y="258" font-size="13" fill="#e6edf3">800.42M</text>
<text x="120" y="297" text-anchor="end" font-size="14" fill="#9aa7b4">Scala</text>
<rect x="132" y="281" width="141.2" height="24" rx="5" fill="#a371f7"/>
<text x="282.2" y="298" font-size="13" fill="#e6edf3">860.57M</text>
<text x="120" y="337" text-anchor="end" font-size="14" fill="#9aa7b4">Rust</text>
<rect x="132" y="321" width="154.6" height="24" rx="5" fill="#3fb950"/>
<text x="295.6" y="338" font-size="13" fill="#e6edf3">949.26M</text>
<text x="120" y="377" text-anchor="end" font-size="14" fill="#9aa7b4">Go</text>
<rect x="132" y="361" width="199.0" height="24" rx="5" fill="#3fb950"/>
<text x="340.0" y="378" font-size="13" fill="#e6edf3">1.32B</text>
<text x="120" y="417" text-anchor="end" font-size="14" fill="#9aa7b4">Swift</text>
<rect x="132" y="401" width="206.4" height="24" rx="5" fill="#3fb950"/>
<text x="347.4" y="418" font-size="13" fill="#e6edf3">1.39B</text>
<text x="120" y="457" text-anchor="end" font-size="14" fill="#9aa7b4">Elixir</text>
<rect x="132" y="441" width="269.4" height="24" rx="5" fill="#a371f7"/>
<text x="410.4" y="458" font-size="13" fill="#e6edf3">2.21B</text>
<text x="120" y="497" text-anchor="end" font-size="14" fill="#9aa7b4">PHP</text>
<rect x="132" y="481" width="370.4" height="24" rx="5" fill="#f0883e"/>
<text x="511.4" y="498" font-size="13" fill="#e6edf3">4.64B</text>
<text x="120" y="537" text-anchor="end" font-size="14" fill="#9aa7b4">Ruby</text>
<rect x="132" y="521" width="453.7" height="24" rx="5" fill="#f0883e"/>
<text x="594.7" y="538" font-size="13" fill="#e6edf3">8.55B</text>
<text x="120" y="577" text-anchor="end" font-size="14" fill="#9aa7b4">Python</text>
<rect x="132" y="561" width="459.9" height="24" rx="5" fill="#f0883e"/>
<text x="600.9" y="578" font-size="13" fill="#e6edf3">8.95B</text>
<text x="120" y="617" text-anchor="end" font-size="14" fill="#9aa7b4">Perl</text>
<rect x="132" y="601" width="532.0" height="24" rx="5" fill="#f0883e"/>
<text x="673.0" y="618" font-size="13" fill="#e6edf3">15.20B</text>
</svg>