<svg xmlns="http://www.w3.org/2000/svg" width="760" height="556" viewBox="0 0 760 556" font-family="ui-sans-serif,system-ui,Segoe UI,Helvetica,Arial">
<rect width="760" height="556" rx="10" fill="#0d1117"/>
<text x="22" y="34" font-size="19" font-weight="700" fill="#e6edf3">blur: speedup at 4 cores</text>
<text x="22" y="56" font-size="13" fill="#9aa7b4">wall-clock, compute region · x86_64 · higher is better, dashed = ideal 4×</text>
<line x1="664.0" y1="70" x2="664.0" y2="540" stroke="#9aa7b4" stroke-width="1.5" stroke-dasharray="5 4"/>
<text x="138" y="98" text-anchor="end" font-size="13.5" fill="#9aa7b4">PHP</text>
<rect x="150" y="82" width="229.0" height="23" rx="5" fill="#f0883e"/>
<text x="388.0" y="99" font-size="13" fill="#e6edf3">1.78×</text>
<text x="138" y="136" text-anchor="end" font-size="13.5" fill="#9aa7b4">Go</text>
<rect x="150" y="120" width="230.8" height="23" rx="5" fill="#3fb950"/>
<text x="389.8" y="137" font-size="13" fill="#e6edf3">1.80×</text>
<text x="138" y="174" text-anchor="end" font-size="13.5" fill="#9aa7b4">Perl</text>
<rect x="150" y="158" width="234.3" height="23" rx="5" fill="#f0883e"/>
<text x="393.3" y="175" font-size="13" fill="#e6edf3">1.82×</text>
<text x="138" y="212" text-anchor="end" font-size="13.5" fill="#9aa7b4">Scala</text>
<rect x="150" y="196" width="253.8" height="23" rx="5" fill="#a371f7"/>
<text x="412.8" y="213" font-size="13" fill="#e6edf3">1.98×</text>
<text x="138" y="250" text-anchor="end" font-size="13.5" fill="#9aa7b4">Kotlin</text>
<rect x="150" y="234" width="256.0" height="23" rx="5" fill="#a371f7"/>
<text x="415.0" y="251" font-size="13" fill="#e6edf3">1.99×</text>
<text x="138" y="288" text-anchor="end" font-size="13.5" fill="#9aa7b4">Ruby</text>
<rect x="150" y="272" width="262.5" height="23" rx="5" fill="#f0883e"/>
<text x="421.5" y="289" font-size="13" fill="#e6edf3">2.04×</text>
<text x="138" y="326" text-anchor="end" font-size="13.5" fill="#9aa7b4">C#</text>
<rect x="150" y="310" width="265.6" height="23" rx="5" fill="#a371f7"/>
<text x="424.6" y="327" font-size="13" fill="#e6edf3">2.07×</text>
<text x="138" y="364" text-anchor="end" font-size="13.5" fill="#9aa7b4">C</text>
<rect x="150" y="348" width="270.4" height="23" rx="5" fill="#3fb950"/>
<text x="429.4" y="365" font-size="13" fill="#e6edf3">2.10×</text>
<text x="138" y="402" text-anchor="end" font-size="13.5" fill="#9aa7b4">Swift</text>
<rect x="150" y="386" width="274.5" height="23" rx="5" fill="#3fb950"/>
<text x="433.5" y="403" font-size="13" fill="#e6edf3">2.14×</text>
<text x="138" y="440" text-anchor="end" font-size="13.5" fill="#9aa7b4">Python</text>
<rect x="150" y="424" width="287.1" height="23" rx="5" fill="#f0883e"/>
<text x="446.1" y="441" font-size="13" fill="#e6edf3">2.23×</text>
<text x="138" y="478" text-anchor="end" font-size="13.5" fill="#9aa7b4">Rust</text>
<rect x="150" y="462" width="293.2" height="23" rx="5" fill="#3fb950"/>
<text x="452.2" y="479" font-size="13" fill="#e6edf3">2.28×</text>
<text x="138" y="516" text-anchor="end" font-size="13.5" fill="#9aa7b4">Elixir</text>
<rect x="150" y="500" width="421.9" height="23" rx="5" fill="#a371f7"/>
<text x="580.9" y="517" font-size="13" fill="#e6edf3">3.28×</text>
</svg>