<svg xmlns="http://www.w3.org/2000/svg" width="820" height="470" viewBox="0 0 820 470" font-family="ui-sans-serif,system-ui,Segoe UI,Helvetica,Arial">
<rect width="820" height="470" rx="10" fill="#0d1117"/>
<text x="22" y="34" font-size="19" font-weight="700" fill="#e6edf3">blur: parallel speedup vs cores</text>
<text x="22" y="56" font-size="13" fill="#9aa7b4">wall-clock T1/TP of the compute region (startup excluded) · x86_64 · higher is better, ideal = linear</text>
<line x1="64" y1="424.0" x2="670" y2="424.0" stroke="#21262d" stroke-width="1"/>
<text x="54" y="428.0" text-anchor="end" font-size="12" fill="#9aa7b4">0×</text>
<line x1="64" y1="355.2" x2="670" y2="355.2" stroke="#21262d" stroke-width="1"/>
<text x="54" y="359.2" text-anchor="end" font-size="12" fill="#9aa7b4">1×</text>
<line x1="64" y1="286.4" x2="670" y2="286.4" stroke="#21262d" stroke-width="1"/>
<text x="54" y="290.4" text-anchor="end" font-size="12" fill="#9aa7b4">2×</text>
<line x1="64" y1="217.6" x2="670" y2="217.6" stroke="#21262d" stroke-width="1"/>
<text x="54" y="221.6" text-anchor="end" font-size="12" fill="#9aa7b4">3×</text>
<line x1="64" y1="148.8" x2="670" y2="148.8" stroke="#21262d" stroke-width="1"/>
<text x="54" y="152.8" text-anchor="end" font-size="12" fill="#9aa7b4">4×</text>
<line x1="64" y1="80.0" x2="670" y2="80.0" stroke="#21262d" stroke-width="1"/>
<text x="54" y="84.0" text-anchor="end" font-size="12" fill="#9aa7b4">5×</text>
<text x="64.0" y="448.0" text-anchor="middle" font-size="13" fill="#9aa7b4">1 core</text>
<text x="367.0" y="448.0" text-anchor="middle" font-size="13" fill="#9aa7b4">2 cores</text>
<text x="670.0" y="448.0" text-anchor="middle" font-size="13" fill="#9aa7b4">4 cores</text>
<polyline points="64.0,355.2 367.0,286.4 670.0,148.8" fill="none" stroke="#9aa7b4" stroke-width="1.5" stroke-dasharray="5 4"/>
<text x="678.0" y="152.8" font-size="12" fill="#9aa7b4">ideal</text>
<polyline points="64.0,355.2 367.0,287.4 670.0,202.7" fill="none" stroke="#a371f7" stroke-width="2.5" opacity="0.92"/>
<circle cx="64.0" cy="355.2" r="3" fill="#a371f7"/>
<circle cx="367.0" cy="287.4" r="3" fill="#a371f7"/>
<circle cx="670.0" cy="202.7" r="3" fill="#a371f7"/>
<text x="678" y="206.7" font-size="12.5" fill="#a371f7">Elixir 3.22×</text>
<polyline points="64.0,355.2 367.0,290.3 670.0,268.5" fill="none" stroke="#3fb950" stroke-width="2.5" opacity="0.92"/>
<circle cx="64.0" cy="355.2" r="3" fill="#3fb950"/>
<circle cx="367.0" cy="290.3" r="3" fill="#3fb950"/>
<circle cx="670.0" cy="268.5" r="3" fill="#3fb950"/>
<text x="678" y="272.5" font-size="12.5" fill="#3fb950">Rust 2.26×</text>
<polyline points="64.0,355.2 367.0,303.5 670.0,278.4" fill="none" stroke="#f0883e" stroke-width="2.5" opacity="0.92"/>
<circle cx="64.0" cy="355.2" r="3" fill="#f0883e"/>
<circle cx="367.0" cy="303.5" r="3" fill="#f0883e"/>
<circle cx="670.0" cy="278.4" r="3" fill="#f0883e"/>
<text x="678" y="288.5" font-size="12.5" fill="#f0883e">Python 2.12×</text>
<polyline points="64.0,355.2 367.0,305.1 670.0,279.9" fill="none" stroke="#f0883e" stroke-width="2.5" opacity="0.92"/>
<circle cx="64.0" cy="355.2" r="3" fill="#f0883e"/>
<circle cx="367.0" cy="305.1" r="3" fill="#f0883e"/>
<circle cx="670.0" cy="279.9" r="3" fill="#f0883e"/>
<text x="678" y="304.5" font-size="12.5" fill="#f0883e">Ruby 2.09×</text>
<polyline points="64.0,355.2 367.0,296.2 670.0,280.8" fill="none" stroke="#3fb950" stroke-width="2.5" opacity="0.92"/>
<circle cx="64.0" cy="355.2" r="3" fill="#3fb950"/>
<circle cx="367.0" cy="296.2" r="3" fill="#3fb950"/>
<circle cx="670.0" cy="280.8" r="3" fill="#3fb950"/>
<text x="678" y="320.5" font-size="12.5" fill="#3fb950">C 2.08×</text>
<polyline points="64.0,355.2 367.0,291.6 670.0,282.2" fill="none" stroke="#a371f7" stroke-width="2.5" opacity="0.92"/>
<circle cx="64.0" cy="355.2" r="3" fill="#a371f7"/>
<circle cx="367.0" cy="291.6" r="3" fill="#a371f7"/>
<circle cx="670.0" cy="282.2" r="3" fill="#a371f7"/>
<text x="678" y="336.5" font-size="12.5" fill="#a371f7">C# 2.06×</text>
<polyline points="64.0,355.2 367.0,291.0 670.0,285.0" fill="none" stroke="#a371f7" stroke-width="2.5" opacity="0.92"/>
<circle cx="64.0" cy="355.2" r="3" fill="#a371f7"/>
<circle cx="367.0" cy="291.0" r="3" fill="#a371f7"/>
<circle cx="670.0" cy="285.0" r="3" fill="#a371f7"/>
<text x="678" y="352.5" font-size="12.5" fill="#a371f7">Kotlin 2.02×</text>
<polyline points="64.0,355.2 367.0,289.0 670.0,288.7" fill="none" stroke="#3fb950" stroke-width="2.5" opacity="0.92"/>
<circle cx="64.0" cy="355.2" r="3" fill="#3fb950"/>
<circle cx="367.0" cy="289.0" r="3" fill="#3fb950"/>
<circle cx="670.0" cy="288.7" r="3" fill="#3fb950"/>
<text x="678" y="368.5" font-size="12.5" fill="#3fb950">Swift 1.97×</text>
<polyline points="64.0,355.2 367.0,310.2 670.0,297.8" fill="none" stroke="#f0883e" stroke-width="2.5" opacity="0.92"/>
<circle cx="64.0" cy="355.2" r="3" fill="#f0883e"/>
<circle cx="367.0" cy="310.2" r="3" fill="#f0883e"/>
<circle cx="670.0" cy="297.8" r="3" fill="#f0883e"/>
<text x="678" y="384.5" font-size="12.5" fill="#f0883e">Perl 1.83×</text>
<polyline points="64.0,355.2 367.0,288.7 670.0,299.2" fill="none" stroke="#3fb950" stroke-width="2.5" opacity="0.92"/>
<circle cx="64.0" cy="355.2" r="3" fill="#3fb950"/>
<circle cx="367.0" cy="288.7" r="3" fill="#3fb950"/>
<circle cx="670.0" cy="299.2" r="3" fill="#3fb950"/>
<text x="678" y="400.5" font-size="12.5" fill="#3fb950">Go 1.81×</text>
<polyline points="64.0,355.2 367.0,270.6 670.0,299.2" fill="none" stroke="#a371f7" stroke-width="2.5" opacity="0.92"/>
<circle cx="64.0" cy="355.2" r="3" fill="#a371f7"/>
<circle cx="367.0" cy="270.6" r="3" fill="#a371f7"/>
<circle cx="670.0" cy="299.2" r="3" fill="#a371f7"/>
<text x="678" y="416.5" font-size="12.5" fill="#a371f7">Scala 1.81×</text>
<polyline points="64.0,355.2 367.0,317.2 670.0,299.4" fill="none" stroke="#f0883e" stroke-width="2.5" opacity="0.92"/>
<circle cx="64.0" cy="355.2" r="3" fill="#f0883e"/>
<circle cx="367.0" cy="317.2" r="3" fill="#f0883e"/>
<circle cx="670.0" cy="299.4" r="3" fill="#f0883e"/>
<text x="678" y="432.5" font-size="12.5" fill="#f0883e">PHP 1.81×</text>
</svg>