<svg xmlns="http://www.w3.org/2000/svg" width="760" height="582" viewBox="0 0 760 582" font-family="ui-sans-serif,system-ui,Segoe UI,Helvetica,Arial">
<rect width="760" height="582" rx="10" fill="#0d1117"/>
<text x="22" y="34" font-size="19" font-weight="700" fill="#e6edf3">blur:instructions at n=256</text>
<text x="22" y="56" font-size="13" fill="#9aa7b4">absolute count · qemu+insn · arm64 · log scale · less = more efficient</text>
<text x="120" y="97" text-anchor="end" font-size="14" fill="#9aa7b4">Rust</text>
<rect x="132" y="81" width="18.2" height="24" rx="5" fill="#3fb950"/>
<text x="159.2" y="98" font-size="13" fill="#e6edf3">23.44M</text>
<text x="120" y="137" text-anchor="end" font-size="14" fill="#9aa7b4">Swift</text>
<rect x="132" y="121" width="58.5" height="24" rx="5" fill="#3fb950"/>
<text x="199.5" y="138" font-size="13" fill="#e6edf3">38.43M</text>
<text x="120" y="177" text-anchor="end" font-size="14" fill="#9aa7b4">C</text>
<rect x="132" y="161" width="77.7" height="24" rx="5" fill="#3fb950"/>
<text x="218.7" y="178" font-size="13" fill="#e6edf3">48.66M</text>
<text x="120" y="217" text-anchor="end" font-size="14" fill="#9aa7b4">Go</text>
<rect x="132" y="201" width="94.9" height="24" rx="5" fill="#3fb950"/>
<text x="235.9" y="218" font-size="13" fill="#e6edf3">60.14M</text>
<text x="120" y="257" text-anchor="end" font-size="14" fill="#9aa7b4">C#</text>
<rect x="132" y="241" width="214.1" height="24" rx="5" fill="#a371f7"/>
<text x="355.1" y="258" font-size="13" fill="#e6edf3">259.49M</text>
<text x="120" y="297" text-anchor="end" font-size="14" fill="#9aa7b4">Kotlin</text>
<rect x="132" y="281" width="239.6" height="24" rx="5" fill="#a371f7"/>
<text x="380.6" y="298" font-size="13" fill="#e6edf3">355.17M</text>
<text x="120" y="337" text-anchor="end" font-size="14" fill="#9aa7b4">Scala</text>
<rect x="132" y="321" width="308.6" height="24" rx="5" fill="#a371f7"/>
<text x="449.6" y="338" font-size="13" fill="#e6edf3">828.62M</text>
<text x="120" y="377" text-anchor="end" font-size="14" fill="#9aa7b4">PHP</text>
<rect x="132" y="361" width="385.3" height="24" rx="5" fill="#f0883e"/>
<text x="526.3" y="378" font-size="13" fill="#e6edf3">2.12B</text>
<text x="120" y="417" text-anchor="end" font-size="14" fill="#9aa7b4">Elixir</text>
<rect x="132" y="401" width="407.4" height="24" rx="5" fill="#a371f7"/>
<text x="548.4" y="418" font-size="13" fill="#e6edf3">2.79B</text>
<text x="120" y="457" text-anchor="end" font-size="14" fill="#9aa7b4">Ruby</text>
<rect x="132" y="441" width="468.2" height="24" rx="5" fill="#f0883e"/>
<text x="609.2" y="458" font-size="13" fill="#e6edf3">5.88B</text>
<text x="120" y="497" text-anchor="end" font-size="14" fill="#9aa7b4">Python</text>
<rect x="132" y="481" width="468.7" height="24" rx="5" fill="#f0883e"/>
<text x="609.7" y="498" font-size="13" fill="#e6edf3">5.91B</text>
<text x="120" y="537" text-anchor="end" font-size="14" fill="#9aa7b4">Perl</text>
<rect x="132" y="521" width="532.0" height="24" rx="5" fill="#f0883e"/>
<text x="673.0" y="538" font-size="13" fill="#e6edf3">12.86B</text>
</svg>