<svg xmlns="http://www.w3.org/2000/svg" width="760" height="542" viewBox="0 0 760 542" font-family="ui-sans-serif,system-ui,Segoe UI,Helvetica,Arial">
<rect width="760" height="542" rx="10" fill="#0d1117"/>
<text x="22" y="34" font-size="19" font-weight="700" fill="#e6edf3">dijkstra:instructions at n=20000</text>
<text x="22" y="56" font-size="13" fill="#9aa7b4">absolute count · qemu+insn · arm64 · log scale · less = more efficient</text>
<text x="120" y="97" text-anchor="end" font-size="14" fill="#9aa7b4">C</text>
<rect x="132" y="81" width="22.5" height="24" rx="5" fill="#3fb950"/>
<text x="163.5" y="98" font-size="13" fill="#e6edf3">21.74M</text>
<text x="120" y="137" text-anchor="end" font-size="14" fill="#9aa7b4">Rust</text>
<rect x="132" y="121" width="103.7" height="24" rx="5" fill="#3fb950"/>
<text x="244.7" y="138" font-size="13" fill="#e6edf3">48.52M</text>
<text x="120" y="177" text-anchor="end" font-size="14" fill="#9aa7b4">Go</text>
<rect x="132" y="161" width="124.1" height="24" rx="5" fill="#3fb950"/>
<text x="265.1" y="178" font-size="13" fill="#e6edf3">59.40M</text>
<text x="120" y="217" text-anchor="end" font-size="14" fill="#9aa7b4">Swift</text>
<rect x="132" y="201" width="126.2" height="24" rx="5" fill="#3fb950"/>
<text x="267.2" y="218" font-size="13" fill="#e6edf3">60.65M</text>
<text x="120" y="257" text-anchor="end" font-size="14" fill="#9aa7b4">C#</text>
<rect x="132" y="241" width="272.7" height="24" rx="5" fill="#a371f7"/>
<text x="413.7" y="258" font-size="13" fill="#e6edf3">258.42M</text>
<text x="120" y="297" text-anchor="end" font-size="14" fill="#9aa7b4">Kotlin</text>
<rect x="132" y="281" width="303.7" height="24" rx="5" fill="#a371f7"/>
<text x="444.7" y="298" font-size="13" fill="#e6edf3">351.47M</text>
<text x="120" y="337" text-anchor="end" font-size="14" fill="#9aa7b4">PHP</text>
<rect x="132" y="321" width="389.5" height="24" rx="5" fill="#f0883e"/>
<text x="530.5" y="338" font-size="13" fill="#e6edf3">821.75M</text>
<text x="120" y="377" text-anchor="end" font-size="14" fill="#9aa7b4">Scala</text>
<rect x="132" y="361" width="390.2" height="24" rx="5" fill="#a371f7"/>
<text x="531.2" y="378" font-size="13" fill="#e6edf3">826.93M</text>
<text x="120" y="417" text-anchor="end" font-size="14" fill="#9aa7b4">Python</text>
<rect x="132" y="401" width="482.0" height="24" rx="5" fill="#f0883e"/>
<text x="623.0" y="418" font-size="13" fill="#e6edf3">2.05B</text>
<text x="120" y="457" text-anchor="end" font-size="14" fill="#9aa7b4">Elixir</text>
<rect x="132" y="441" width="530.3" height="24" rx="5" fill="#a371f7"/>
<text x="671.3" y="458" font-size="13" fill="#e6edf3">3.31B</text>
<text x="120" y="497" text-anchor="end" font-size="14" fill="#9aa7b4">Perl</text>
<rect x="132" y="481" width="532.0" height="24" rx="5" fill="#f0883e"/>
<text x="673.0" y="498" font-size="13" fill="#e6edf3">3.37B</text>
</svg>