<svg xmlns="http://www.w3.org/2000/svg" width="760" height="622" viewBox="0 0 760 622" font-family="ui-sans-serif,system-ui,Segoe UI,Helvetica,Arial">
<rect width="760" height="622" rx="10" fill="#0d1117"/>
<text x="22" y="34" font-size="19" font-weight="700" fill="#e6edf3">dijkstra:instructions at n=5000</text>
<text x="22" y="56" font-size="13" fill="#9aa7b4">absolute count · qemu+insn · arm64 · log scale</text>
<text x="120" y="97" text-anchor="end" font-size="14" fill="#9aa7b4">C</text>
<rect x="132" y="81" width="18.7" height="24" rx="5" fill="#3fb950"/>
<text x="159.7" y="98" font-size="13" fill="#e6edf3">5.17M</text>
<text x="120" y="137" text-anchor="end" font-size="14" fill="#9aa7b4">Rust</text>
<rect x="132" y="121" width="87.5" height="24" rx="5" fill="#3fb950"/>
<text x="228.5" y="138" font-size="13" fill="#e6edf3">11.76M</text>
<text x="120" y="177" text-anchor="end" font-size="14" fill="#9aa7b4">Go</text>
<rect x="132" y="161" width="104.3" height="24" rx="5" fill="#3fb950"/>
<text x="245.3" y="178" font-size="13" fill="#e6edf3">14.36M</text>
<text x="120" y="217" text-anchor="end" font-size="14" fill="#9aa7b4">Swift</text>
<rect x="132" y="201" width="142.6" height="24" rx="5" fill="#3fb950"/>
<text x="283.6" y="218" font-size="13" fill="#e6edf3">22.69M</text>
<text x="120" y="257" text-anchor="end" font-size="14" fill="#9aa7b4">PHP</text>
<rect x="132" y="241" width="331.4" height="24" rx="5" fill="#f0883e"/>
<text x="472.4" y="258" font-size="13" fill="#e6edf3">216.31M</text>
<text x="120" y="297" text-anchor="end" font-size="14" fill="#9aa7b4">C#</text>
<rect x="132" y="281" width="335.2" height="24" rx="5" fill="#a371f7"/>
<text x="476.2" y="298" font-size="13" fill="#e6edf3">226.36M</text>
<text x="120" y="337" text-anchor="end" font-size="14" fill="#9aa7b4">Kotlin</text>
<rect x="132" y="321" width="349.8" height="24" rx="5" fill="#a371f7"/>
<text x="490.8" y="338" font-size="13" fill="#e6edf3">269.49M</text>
<text x="120" y="377" text-anchor="end" font-size="14" fill="#9aa7b4">Python</text>
<rect x="132" y="361" width="403.8" height="24" rx="5" fill="#f0883e"/>
<text x="544.8" y="378" font-size="13" fill="#e6edf3">513.50M</text>
<text x="120" y="417" text-anchor="end" font-size="14" fill="#9aa7b4">Ruby</text>
<rect x="132" y="401" width="428.6" height="24" rx="5" fill="#f0883e"/>
<text x="569.6" y="418" font-size="13" fill="#e6edf3">690.02M</text>
<text x="120" y="457" text-anchor="end" font-size="14" fill="#9aa7b4">Scala</text>
<rect x="132" y="441" width="433.6" height="24" rx="5" fill="#a371f7"/>
<text x="574.6" y="458" font-size="13" fill="#e6edf3">733.12M</text>
<text x="120" y="497" text-anchor="end" font-size="14" fill="#9aa7b4">Perl</text>
<rect x="132" y="481" width="439.9" height="24" rx="5" fill="#f0883e"/>
<text x="580.9" y="498" font-size="13" fill="#e6edf3">790.42M</text>
<text x="120" y="537" text-anchor="end" font-size="14" fill="#9aa7b4">COBOL</text>
<rect x="132" y="521" width="519.7" height="24" rx="5" fill="#3fb950"/>
<text x="660.7" y="538" font-size="13" fill="#e6edf3">2.05B</text>
<text x="120" y="577" text-anchor="end" font-size="14" fill="#9aa7b4">Elixir</text>
<rect x="132" y="561" width="532.0" height="24" rx="5" fill="#a371f7"/>
<text x="673.0" y="578" font-size="13" fill="#e6edf3">2.37B</text>
</svg>