<svg xmlns="http://www.w3.org/2000/svg" width="760" height="622" viewBox="0 0 760 622" font-family="ui-sans-serif,system-ui,Segoe UI,Helvetica,Arial">
<rect width="760" height="622" rx="10" fill="#0d1117"/>
<text x="22" y="34" font-size="19" font-weight="700" fill="#e6edf3">fannkuch:relative real work (I(9)−I(7), C = 1.0×)</text>
<text x="22" y="56" font-size="13" fill="#9aa7b4">differential cancels startup + JIT · qemu+insn · arm64 · the fair metric · lower is better</text>
<text x="120" y="97" text-anchor="end" font-size="14" fill="#9aa7b4">C</text>
<rect x="132" y="81" width="2.8" height="24" rx="5" fill="#3fb950"/>
<text x="143.8" y="98" font-size="13" fill="#e6edf3">1.00×</text>
<text x="120" y="137" text-anchor="end" font-size="14" fill="#9aa7b4">Rust</text>
<rect x="132" y="121" width="3.2" height="24" rx="5" fill="#3fb950"/>
<text x="144.2" y="138" font-size="13" fill="#e6edf3">1.14×</text>
<text x="120" y="177" text-anchor="end" font-size="14" fill="#9aa7b4">Go</text>
<rect x="132" y="161" width="4.2" height="24" rx="5" fill="#3fb950"/>
<text x="145.2" y="178" font-size="13" fill="#e6edf3">1.49×</text>
<text x="120" y="217" text-anchor="end" font-size="14" fill="#9aa7b4">C#</text>
<rect x="132" y="201" width="4.5" height="24" rx="5" fill="#a371f7"/>
<text x="145.5" y="218" font-size="13" fill="#e6edf3">1.61×</text>
<text x="120" y="257" text-anchor="end" font-size="14" fill="#9aa7b4">Scala</text>
<rect x="132" y="241" width="7.7" height="24" rx="5" fill="#a371f7"/>
<text x="148.7" y="258" font-size="13" fill="#e6edf3">2.73×</text>
<text x="120" y="297" text-anchor="end" font-size="14" fill="#9aa7b4">Kotlin</text>
<rect x="132" y="281" width="9.4" height="24" rx="5" fill="#a371f7"/>
<text x="150.4" y="298" font-size="13" fill="#e6edf3">3.34×</text>
<text x="120" y="337" text-anchor="end" font-size="14" fill="#9aa7b4">Swift</text>
<rect x="132" y="321" width="9.6" height="24" rx="5" fill="#3fb950"/>
<text x="150.6" y="338" font-size="13" fill="#e6edf3">3.42×</text>
<text x="120" y="377" text-anchor="end" font-size="14" fill="#9aa7b4">COBOL</text>
<rect x="132" y="361" width="75.1" height="24" rx="5" fill="#3fb950"/>
<text x="216.1" y="378" font-size="13" fill="#e6edf3">26.78×</text>
<text x="120" y="417" text-anchor="end" font-size="14" fill="#9aa7b4">Elixir</text>
<rect x="132" y="401" width="83.3" height="24" rx="5" fill="#a371f7"/>
<text x="224.3" y="418" font-size="13" fill="#e6edf3">29.71×</text>
<text x="120" y="457" text-anchor="end" font-size="14" fill="#9aa7b4">PHP</text>
<rect x="132" y="441" width="94.3" height="24" rx="5" fill="#f0883e"/>
<text x="235.3" y="458" font-size="13" fill="#e6edf3">33.62×</text>
<text x="120" y="497" text-anchor="end" font-size="14" fill="#9aa7b4">Python</text>
<rect x="132" y="481" width="195.2" height="24" rx="5" fill="#f0883e"/>
<text x="336.2" y="498" font-size="13" fill="#e6edf3">69.57×</text>
<text x="120" y="537" text-anchor="end" font-size="14" fill="#9aa7b4">Ruby</text>
<rect x="132" y="521" width="293.6" height="24" rx="5" fill="#f0883e"/>
<text x="434.6" y="538" font-size="13" fill="#e6edf3">104.64×</text>
<text x="120" y="577" text-anchor="end" font-size="14" fill="#9aa7b4">Perl</text>
<rect x="132" y="561" width="532.0" height="24" rx="5" fill="#f0883e"/>
<text x="673.0" y="578" font-size="13" fill="#e6edf3">189.62×</text>
</svg>