<svg xmlns="http://www.w3.org/2000/svg" width="760" height="582" viewBox="0 0 760 582" font-family="ui-sans-serif,system-ui,Segoe UI,Helvetica,Arial">
<rect width="760" height="582" rx="10" fill="#0d1117"/>
<text x="22" y="34" font-size="19" font-weight="700" fill="#e6edf3">fannkuch:instructions at n=9</text>
<text x="22" y="56" font-size="13" fill="#9aa7b4">absolute count · qemu+insn · arm64 · log scale · less = more efficient</text>
<text x="120" y="97" text-anchor="end" font-size="14" fill="#9aa7b4">C</text>
<rect x="132" y="81" width="21.7" height="24" rx="5" fill="#3fb950"/>
<text x="162.7" y="98" font-size="13" fill="#e6edf3">83.82M</text>
<text x="120" y="137" text-anchor="end" font-size="14" fill="#9aa7b4">Rust</text>
<rect x="132" y="121" width="34.6" height="24" rx="5" fill="#3fb950"/>
<text x="175.6" y="138" font-size="13" fill="#e6edf3">95.65M</text>
<text x="120" y="177" text-anchor="end" font-size="14" fill="#9aa7b4">Go</text>
<rect x="132" y="161" width="60.3" height="24" rx="5" fill="#3fb950"/>
<text x="201.3" y="178" font-size="13" fill="#e6edf3">124.62M</text>
<text x="120" y="217" text-anchor="end" font-size="14" fill="#9aa7b4">Swift</text>
<rect x="132" y="201" width="145.4" height="24" rx="5" fill="#3fb950"/>
<text x="286.4" y="218" font-size="13" fill="#e6edf3">298.72M</text>
<text x="120" y="257" text-anchor="end" font-size="14" fill="#9aa7b4">C#</text>
<rect x="132" y="241" width="159.3" height="24" rx="5" fill="#a371f7"/>
<text x="300.3" y="258" font-size="13" fill="#e6edf3">344.66M</text>
<text x="120" y="297" text-anchor="end" font-size="14" fill="#9aa7b4">Kotlin</text>
<rect x="132" y="281" width="184.2" height="24" rx="5" fill="#a371f7"/>
<text x="325.2" y="298" font-size="13" fill="#e6edf3">445.00M</text>
<text x="120" y="337" text-anchor="end" font-size="14" fill="#9aa7b4">Scala</text>
<rect x="132" y="321" width="253.7" height="24" rx="5" fill="#a371f7"/>
<text x="394.7" y="338" font-size="13" fill="#e6edf3">909.67M</text>
<text x="120" y="377" text-anchor="end" font-size="14" fill="#9aa7b4">PHP</text>
<rect x="132" y="361" width="364.8" height="24" rx="5" fill="#f0883e"/>
<text x="505.8" y="378" font-size="13" fill="#e6edf3">2.85B</text>
<text x="120" y="417" text-anchor="end" font-size="14" fill="#9aa7b4">Elixir</text>
<rect x="132" y="401" width="409.3" height="24" rx="5" fill="#a371f7"/>
<text x="550.3" y="418" font-size="13" fill="#e6edf3">4.50B</text>
<text x="120" y="457" text-anchor="end" font-size="14" fill="#9aa7b4">Python</text>
<rect x="132" y="441" width="435.1" height="24" rx="5" fill="#f0883e"/>
<text x="576.1" y="458" font-size="13" fill="#e6edf3">5.86B</text>
<text x="120" y="497" text-anchor="end" font-size="14" fill="#9aa7b4">Ruby</text>
<rect x="132" y="481" width="477.2" height="24" rx="5" fill="#f0883e"/>
<text x="618.2" y="498" font-size="13" fill="#e6edf3">9.04B</text>
<text x="120" y="537" text-anchor="end" font-size="14" fill="#9aa7b4">Perl</text>
<rect x="132" y="521" width="532.0" height="24" rx="5" fill="#f0883e"/>
<text x="673.0" y="538" font-size="13" fill="#e6edf3">15.87B</text>
</svg>