<svg xmlns="http://www.w3.org/2000/svg" width="760" height="622" viewBox="0 0 760 622" font-family="ui-sans-serif,system-ui,Segoe UI,Helvetica,Arial">
<rect width="760" height="622" rx="10" fill="#0d1117"/>
<text x="22" y="34" font-size="19" font-weight="700" fill="#e6edf3">fannkuch:instructions at n=7</text>
<text x="22" y="56" font-size="13" fill="#9aa7b4">absolute count · qemu+insn · x86_64 · log scale</text>
<text x="120" y="97" text-anchor="end" font-size="14" fill="#9aa7b4">C</text>
<rect x="132" y="81" width="15.2" height="24" rx="5" fill="#3fb950"/>
<text x="156.2" y="98" font-size="13" fill="#e6edf3">1.02M</text>
<text x="120" y="137" text-anchor="end" font-size="14" fill="#9aa7b4">Rust</text>
<rect x="132" y="121" width="26.8" height="24" rx="5" fill="#3fb950"/>
<text x="167.8" y="138" font-size="13" fill="#e6edf3">1.21M</text>
<text x="120" y="177" text-anchor="end" font-size="14" fill="#9aa7b4">Go</text>
<rect x="132" y="161" width="51.7" height="24" rx="5" fill="#3fb950"/>
<text x="192.7" y="178" font-size="13" fill="#e6edf3">1.74M</text>
<text x="120" y="217" text-anchor="end" font-size="14" fill="#9aa7b4">Swift</text>
<rect x="132" y="201" width="210.8" height="24" rx="5" fill="#3fb950"/>
<text x="351.8" y="218" font-size="13" fill="#e6edf3">18.02M</text>
<text x="120" y="257" text-anchor="end" font-size="14" fill="#9aa7b4">COBOL</text>
<rect x="132" y="241" width="252.0" height="24" rx="5" fill="#3fb950"/>
<text x="393.0" y="258" font-size="13" fill="#e6edf3">33.01M</text>
<text x="120" y="297" text-anchor="end" font-size="14" fill="#9aa7b4">PHP</text>
<rect x="132" y="281" width="293.3" height="24" rx="5" fill="#f0883e"/>
<text x="434.3" y="298" font-size="13" fill="#e6edf3">60.53M</text>
<text x="120" y="337" text-anchor="end" font-size="14" fill="#9aa7b4">Python</text>
<rect x="132" y="321" width="335.8" height="24" rx="5" fill="#f0883e"/>
<text x="476.8" y="338" font-size="13" fill="#e6edf3">113.08M</text>
<text x="120" y="377" text-anchor="end" font-size="14" fill="#9aa7b4">Perl</text>
<rect x="132" y="361" width="356.2" height="24" rx="5" fill="#f0883e"/>
<text x="497.2" y="378" font-size="13" fill="#e6edf3">152.58M</text>
<text x="120" y="417" text-anchor="end" font-size="14" fill="#9aa7b4">Kotlin</text>
<rect x="132" y="401" width="360.8" height="24" rx="5" fill="#a371f7"/>
<text x="501.8" y="418" font-size="13" fill="#e6edf3">163.15M</text>
<text x="120" y="457" text-anchor="end" font-size="14" fill="#9aa7b4">C#</text>
<rect x="132" y="441" width="380.9" height="24" rx="5" fill="#a371f7"/>
<text x="521.9" y="458" font-size="13" fill="#e6edf3">219.22M</text>
<text x="120" y="497" text-anchor="end" font-size="14" fill="#9aa7b4">Ruby</text>
<rect x="132" y="481" width="410.1" height="24" rx="5" fill="#f0883e"/>
<text x="551.1" y="498" font-size="13" fill="#e6edf3">336.50M</text>
<text x="120" y="537" text-anchor="end" font-size="14" fill="#9aa7b4">Scala</text>
<rect x="132" y="521" width="462.9" height="24" rx="5" fill="#a371f7"/>
<text x="603.9" y="538" font-size="13" fill="#e6edf3">731.17M</text>
<text x="120" y="577" text-anchor="end" font-size="14" fill="#9aa7b4">Elixir</text>
<rect x="132" y="561" width="532.0" height="24" rx="5" fill="#a371f7"/>
<text x="673.0" y="578" font-size="13" fill="#e6edf3">2.02B</text>
</svg>