<svg xmlns="http://www.w3.org/2000/svg" width="760" height="662" viewBox="0 0 760 662" font-family="ui-sans-serif,system-ui,Segoe UI,Helvetica,Arial">
<rect width="760" height="662" rx="10" fill="#0d1117"/>
<text x="22" y="34" font-size="19" font-weight="700" fill="#e6edf3">fannkuch:instructions at n=7</text>
<text x="22" y="56" font-size="13" fill="#9aa7b4">absolute count · qemu+insn · arm64 · log scale · less = more efficient</text>
<text x="120" y="97" text-anchor="end" font-size="14" fill="#9aa7b4">C</text>
<rect x="132" y="81" width="15.1" height="24" rx="5" fill="#3fb950"/>
<text x="156.1" y="98" font-size="13" fill="#e6edf3">978.75K</text>
<text x="120" y="137" text-anchor="end" font-size="14" fill="#9aa7b4">Rust</text>
<rect x="132" y="121" width="24.6" height="24" rx="5" fill="#3fb950"/>
<text x="165.6" y="138" font-size="13" fill="#e6edf3">1.13M</text>
<text x="120" y="177" text-anchor="end" font-size="14" fill="#9aa7b4">Go</text>
<rect x="132" y="161" width="47.4" height="24" rx="5" fill="#3fb950"/>
<text x="188.4" y="178" font-size="13" fill="#e6edf3">1.58M</text>
<text x="120" y="217" text-anchor="end" font-size="14" fill="#9aa7b4">Swift</text>
<rect x="132" y="201" width="200.0" height="24" rx="5" fill="#3fb950"/>
<text x="341.0" y="218" font-size="13" fill="#e6edf3">15.05M</text>
<text x="120" y="257" text-anchor="end" font-size="14" fill="#9aa7b4">PHP</text>
<rect x="132" y="241" width="295.8" height="24" rx="5" fill="#f0883e"/>
<text x="436.8" y="258" font-size="13" fill="#e6edf3">62.04M</text>
<text x="120" y="297" text-anchor="end" font-size="14" fill="#9aa7b4">Python</text>
<rect x="132" y="281" width="328.6" height="24" rx="5" fill="#f0883e"/>
<text x="469.6" y="298" font-size="13" fill="#e6edf3">100.78M</text>
<text x="120" y="337" text-anchor="end" font-size="14" fill="#9aa7b4">Java</text>
<rect x="132" y="321" width="338.2" height="24" rx="5" fill="#a371f7"/>
<text x="479.2" y="338" font-size="13" fill="#e6edf3">116.11M</text>
<text x="120" y="377" text-anchor="end" font-size="14" fill="#9aa7b4">JavaScript</text>
<rect x="132" y="361" width="353.2" height="24" rx="5" fill="#a371f7"/>
<text x="494.2" y="378" font-size="13" fill="#e6edf3">145.11M</text>
<text x="120" y="417" text-anchor="end" font-size="14" fill="#9aa7b4">Perl</text>
<rect x="132" y="401" width="362.1" height="24" rx="5" fill="#f0883e"/>
<text x="503.1" y="418" font-size="13" fill="#e6edf3">165.52M</text>
<text x="120" y="457" text-anchor="end" font-size="14" fill="#9aa7b4">Kotlin</text>
<rect x="132" y="441" width="363.4" height="24" rx="5" fill="#a371f7"/>
<text x="504.4" y="458" font-size="13" fill="#e6edf3">168.65M</text>
<text x="120" y="497" text-anchor="end" font-size="14" fill="#9aa7b4">C#</text>
<rect x="132" y="481" width="378.5" height="24" rx="5" fill="#a371f7"/>
<text x="519.5" y="498" font-size="13" fill="#e6edf3">210.89M</text>
<text x="120" y="537" text-anchor="end" font-size="14" fill="#9aa7b4">Ruby</text>
<rect x="132" y="521" width="416.4" height="24" rx="5" fill="#f0883e"/>
<text x="557.4" y="538" font-size="13" fill="#e6edf3">369.11M</text>
<text x="120" y="577" text-anchor="end" font-size="14" fill="#9aa7b4">Scala</text>
<rect x="132" y="561" width="458.0" height="24" rx="5" fill="#a371f7"/>
<text x="599.0" y="578" font-size="13" fill="#e6edf3">683.17M</text>
<text x="120" y="617" text-anchor="end" font-size="14" fill="#9aa7b4">Elixir</text>
<rect x="132" y="601" width="532.0" height="24" rx="5" fill="#a371f7"/>
<text x="673.0" y="618" font-size="13" fill="#e6edf3">2.04B</text>
</svg>