<svg xmlns="http://www.w3.org/2000/svg" width="760" height="622" viewBox="0 0 760 622" font-family="ui-sans-serif,system-ui,Segoe UI,Helvetica,Arial">
<rect width="760" height="622" rx="10" fill="#0d1117"/>
<text x="22" y="34" font-size="19" font-weight="700" fill="#e6edf3">gbdt:relative real work (I(20000)−I(5000), C = 1.0×)</text>
<text x="22" y="56" font-size="13" fill="#9aa7b4">differential cancels startup + JIT · qemu+insn · arm64 · the fair metric</text>
<text x="120" y="97" text-anchor="end" font-size="14" fill="#9aa7b4">Rust</text>
<rect x="132" y="81" width="2.9" height="24" rx="5" fill="#3fb950"/>
<text x="143.9" y="98" font-size="13" fill="#e6edf3">0.82×</text>
<text x="120" y="137" text-anchor="end" font-size="14" fill="#9aa7b4">C</text>
<rect x="132" y="121" width="3.5" height="24" rx="5" fill="#3fb950"/>
<text x="144.5" y="138" font-size="13" fill="#e6edf3">1.00×</text>
<text x="120" y="177" text-anchor="end" font-size="14" fill="#9aa7b4">Go</text>
<rect x="132" y="161" width="5.3" height="24" rx="5" fill="#3fb950"/>
<text x="146.3" y="178" font-size="13" fill="#e6edf3">1.52×</text>
<text x="120" y="217" text-anchor="end" font-size="14" fill="#9aa7b4">C#</text>
<rect x="132" y="201" width="5.5" height="24" rx="5" fill="#a371f7"/>
<text x="146.5" y="218" font-size="13" fill="#e6edf3">1.57×</text>
<text x="120" y="257" text-anchor="end" font-size="14" fill="#9aa7b4">Swift</text>
<rect x="132" y="241" width="6.0" height="24" rx="5" fill="#3fb950"/>
<text x="147.0" y="258" font-size="13" fill="#e6edf3">1.72×</text>
<text x="120" y="297" text-anchor="end" font-size="14" fill="#9aa7b4">Scala</text>
<rect x="132" y="281" width="8.1" height="24" rx="5" fill="#a371f7"/>
<text x="149.1" y="298" font-size="13" fill="#e6edf3">2.31×</text>
<text x="120" y="337" text-anchor="end" font-size="14" fill="#9aa7b4">Kotlin</text>
<rect x="132" y="321" width="8.8" height="24" rx="5" fill="#a371f7"/>
<text x="149.8" y="338" font-size="13" fill="#e6edf3">2.49×</text>
<text x="120" y="377" text-anchor="end" font-size="14" fill="#9aa7b4">PHP</text>
<rect x="132" y="361" width="105.5" height="24" rx="5" fill="#f0883e"/>
<text x="246.5" y="378" font-size="13" fill="#e6edf3">30.04×</text>
<text x="120" y="417" text-anchor="end" font-size="14" fill="#9aa7b4">Elixir</text>
<rect x="132" y="401" width="137.6" height="24" rx="5" fill="#a371f7"/>
<text x="278.6" y="418" font-size="13" fill="#e6edf3">39.19×</text>
<text x="120" y="457" text-anchor="end" font-size="14" fill="#9aa7b4">Ruby</text>
<rect x="132" y="441" width="319.4" height="24" rx="5" fill="#f0883e"/>
<text x="460.4" y="458" font-size="13" fill="#e6edf3">90.95×</text>
<text x="120" y="497" text-anchor="end" font-size="14" fill="#9aa7b4">Python</text>
<rect x="132" y="481" width="362.7" height="24" rx="5" fill="#f0883e"/>
<text x="503.7" y="498" font-size="13" fill="#e6edf3">103.27×</text>
<text x="120" y="537" text-anchor="end" font-size="14" fill="#9aa7b4">Perl</text>
<rect x="132" y="521" width="423.6" height="24" rx="5" fill="#f0883e"/>
<text x="564.6" y="538" font-size="13" fill="#e6edf3">120.60×</text>
<text x="120" y="577" text-anchor="end" font-size="14" fill="#9aa7b4">COBOL</text>
<rect x="132" y="561" width="532.0" height="24" rx="5" fill="#3fb950"/>
<text x="673.0" y="578" font-size="13" fill="#e6edf3">151.47×</text>
</svg>