<svg xmlns="http://www.w3.org/2000/svg" width="760" height="622" viewBox="0 0 760 622" font-family="ui-sans-serif,system-ui,Segoe UI,Helvetica,Arial">
<rect width="760" height="622" rx="10" fill="#0d1117"/>
<text x="22" y="34" font-size="19" font-weight="700" fill="#e6edf3">gbdt:instructions at n=5000</text>
<text x="22" y="56" font-size="13" fill="#9aa7b4">absolute count · qemu+insn · x86_64 · log scale</text>
<text x="120" y="97" text-anchor="end" font-size="14" fill="#9aa7b4">Rust</text>
<rect x="132" y="81" width="21.9" height="24" rx="5" fill="#3fb950"/>
<text x="162.9" y="98" font-size="13" fill="#e6edf3">94.11M</text>
<text x="120" y="137" text-anchor="end" font-size="14" fill="#9aa7b4">C</text>
<rect x="132" y="121" width="27.9" height="24" rx="5" fill="#3fb950"/>
<text x="168.9" y="138" font-size="13" fill="#e6edf3">100.11M</text>
<text x="120" y="177" text-anchor="end" font-size="14" fill="#9aa7b4">Go</text>
<rect x="132" y="161" width="92.2" height="24" rx="5" fill="#3fb950"/>
<text x="233.2" y="178" font-size="13" fill="#e6edf3">192.84M</text>
<text x="120" y="217" text-anchor="end" font-size="14" fill="#9aa7b4">Swift</text>
<rect x="132" y="201" width="109.0" height="24" rx="5" fill="#3fb950"/>
<text x="250.0" y="218" font-size="13" fill="#e6edf3">229.02M</text>
<text x="120" y="257" text-anchor="end" font-size="14" fill="#9aa7b4">C#</text>
<rect x="132" y="241" width="155.3" height="24" rx="5" fill="#a371f7"/>
<text x="296.3" y="258" font-size="13" fill="#e6edf3">367.14M</text>
<text x="120" y="297" text-anchor="end" font-size="14" fill="#9aa7b4">Kotlin</text>
<rect x="132" y="281" width="202.0" height="24" rx="5" fill="#a371f7"/>
<text x="343.0" y="298" font-size="13" fill="#e6edf3">591.32M</text>
<text x="120" y="337" text-anchor="end" font-size="14" fill="#9aa7b4">Scala</text>
<rect x="132" y="321" width="283.3" height="24" rx="5" fill="#a371f7"/>
<text x="424.3" y="338" font-size="13" fill="#e6edf3">1.36B</text>
<text x="120" y="377" text-anchor="end" font-size="14" fill="#9aa7b4">PHP</text>
<rect x="132" y="361" width="364.3" height="24" rx="5" fill="#f0883e"/>
<text x="505.3" y="378" font-size="13" fill="#e6edf3">3.10B</text>
<text x="120" y="417" text-anchor="end" font-size="14" fill="#9aa7b4">Elixir</text>
<rect x="132" y="401" width="436.5" height="24" rx="5" fill="#a371f7"/>
<text x="577.5" y="418" font-size="13" fill="#e6edf3">6.47B</text>
<text x="120" y="457" text-anchor="end" font-size="14" fill="#9aa7b4">Ruby</text>
<rect x="132" y="441" width="474.5" height="24" rx="5" fill="#f0883e"/>
<text x="615.5" y="458" font-size="13" fill="#e6edf3">9.54B</text>
<text x="120" y="497" text-anchor="end" font-size="14" fill="#9aa7b4">Perl</text>
<rect x="132" y="481" width="506.3" height="24" rx="5" fill="#f0883e"/>
<text x="647.3" y="498" font-size="13" fill="#e6edf3">13.19B</text>
<text x="120" y="537" text-anchor="end" font-size="14" fill="#9aa7b4">Python</text>
<rect x="132" y="521" width="508.4" height="24" rx="5" fill="#f0883e"/>
<text x="649.4" y="538" font-size="13" fill="#e6edf3">13.49B</text>
<text x="120" y="577" text-anchor="end" font-size="14" fill="#9aa7b4">COBOL</text>
<rect x="132" y="561" width="532.0" height="24" rx="5" fill="#3fb950"/>
<text x="673.0" y="578" font-size="13" fill="#e6edf3">17.15B</text>
</svg>