<svg xmlns="http://www.w3.org/2000/svg" width="760" height="662" viewBox="0 0 760 662" font-family="ui-sans-serif,system-ui,Segoe UI,Helvetica,Arial">
<rect width="760" height="662" rx="10" fill="#0d1117"/>
<text x="22" y="34" font-size="19" font-weight="700" fill="#e6edf3">gbdt:instructions at n=20000</text>
<text x="22" y="56" font-size="13" fill="#9aa7b4">absolute count · qemu+insn · arm64 · log scale · less = more efficient</text>
<text x="120" y="97" text-anchor="end" font-size="14" fill="#9aa7b4">Rust</text>
<rect x="132" y="81" width="22.8" height="24" rx="5" fill="#3fb950"/>
<text x="163.8" y="98" font-size="13" fill="#e6edf3">370.35M</text>
<text x="120" y="137" text-anchor="end" font-size="14" fill="#9aa7b4">C</text>
<rect x="132" y="121" width="42.8" height="24" rx="5" fill="#3fb950"/>
<text x="183.8" y="138" font-size="13" fill="#e6edf3">450.52M</text>
<text x="120" y="177" text-anchor="end" font-size="14" fill="#9aa7b4">Go</text>
<rect x="132" y="161" width="85.5" height="24" rx="5" fill="#3fb950"/>
<text x="226.5" y="178" font-size="13" fill="#e6edf3">684.95M</text>
<text x="120" y="217" text-anchor="end" font-size="14" fill="#9aa7b4">Swift</text>
<rect x="132" y="201" width="99.7" height="24" rx="5" fill="#3fb950"/>
<text x="240.7" y="218" font-size="13" fill="#e6edf3">786.93M</text>
<text x="120" y="257" text-anchor="end" font-size="14" fill="#9aa7b4">C#</text>
<rect x="132" y="241" width="115.9" height="24" rx="5" fill="#a371f7"/>
<text x="256.9" y="258" font-size="13" fill="#e6edf3">922.38M</text>
<text x="120" y="297" text-anchor="end" font-size="14" fill="#9aa7b4">Java</text>
<rect x="132" y="281" width="147.4" height="24" rx="5" fill="#a371f7"/>
<text x="288.4" y="298" font-size="13" fill="#e6edf3">1.26B</text>
<text x="120" y="337" text-anchor="end" font-size="14" fill="#9aa7b4">Kotlin</text>
<rect x="132" y="321" width="153.6" height="24" rx="5" fill="#a371f7"/>
<text x="294.6" y="338" font-size="13" fill="#e6edf3">1.34B</text>
<text x="120" y="377" text-anchor="end" font-size="14" fill="#9aa7b4">Scala</text>
<rect x="132" y="361" width="181.8" height="24" rx="5" fill="#a371f7"/>
<text x="322.8" y="378" font-size="13" fill="#e6edf3">1.76B</text>
<text x="120" y="417" text-anchor="end" font-size="14" fill="#9aa7b4">JavaScript</text>
<rect x="132" y="401" width="200.7" height="24" rx="5" fill="#a371f7"/>
<text x="341.7" y="418" font-size="13" fill="#e6edf3">2.12B</text>
<text x="120" y="457" text-anchor="end" font-size="14" fill="#9aa7b4">PHP</text>
<rect x="132" y="441" width="390.3" height="24" rx="5" fill="#f0883e"/>
<text x="531.3" y="458" font-size="13" fill="#e6edf3">13.58B</text>
<text x="120" y="497" text-anchor="end" font-size="14" fill="#9aa7b4">Elixir</text>
<rect x="132" y="481" width="428.6" height="24" rx="5" fill="#a371f7"/>
<text x="569.6" y="498" font-size="13" fill="#e6edf3">19.78B</text>
<text x="120" y="537" text-anchor="end" font-size="14" fill="#9aa7b4">Ruby</text>
<rect x="132" y="521" width="503.7" height="24" rx="5" fill="#f0883e"/>
<text x="644.7" y="538" font-size="13" fill="#e6edf3">41.28B</text>
<text x="120" y="577" text-anchor="end" font-size="14" fill="#9aa7b4">Python</text>
<rect x="132" y="561" width="516.5" height="24" rx="5" fill="#f0883e"/>
<text x="657.5" y="578" font-size="13" fill="#e6edf3">46.76B</text>
<text x="120" y="617" text-anchor="end" font-size="14" fill="#9aa7b4">Perl</text>
<rect x="132" y="601" width="532.0" height="24" rx="5" fill="#f0883e"/>
<text x="673.0" y="618" font-size="13" fill="#e6edf3">54.46B</text>
</svg>