<svg xmlns="http://www.w3.org/2000/svg" width="760" height="556" viewBox="0 0 760 556" font-family="ui-sans-serif,system-ui,Segoe UI,Helvetica,Arial">
<rect width="760" height="556" rx="10" fill="#0d1117"/>
<text x="22" y="34" font-size="19" font-weight="700" fill="#e6edf3">gbdt: speedup at 4 cores</text>
<text x="22" y="56" font-size="13" fill="#9aa7b4">wall-clock, compute region · x86_64 · higher is better, dashed = ideal 4×</text>
<line x1="496.7" y1="70" x2="496.7" y2="540" stroke="#9aa7b4" stroke-width="1.5" stroke-dasharray="5 4"/>
<text x="138" y="98" text-anchor="end" font-size="13.5" fill="#9aa7b4">Kotlin</text>
<rect x="150" y="82" width="164.3" height="23" rx="5" fill="#a371f7"/>
<text x="323.3" y="99" font-size="13" fill="#e6edf3">1.90×</text>
<text x="138" y="136" text-anchor="end" font-size="13.5" fill="#9aa7b4">C</text>
<rect x="150" y="120" width="172.1" height="23" rx="5" fill="#3fb950"/>
<text x="331.1" y="137" font-size="13" fill="#e6edf3">1.99×</text>
<text x="138" y="174" text-anchor="end" font-size="13.5" fill="#9aa7b4">Swift</text>
<rect x="150" y="158" width="179.9" height="23" rx="5" fill="#3fb950"/>
<text x="338.9" y="175" font-size="13" fill="#e6edf3">2.08×</text>
<text x="138" y="212" text-anchor="end" font-size="13.5" fill="#9aa7b4">Rust</text>
<rect x="150" y="196" width="183.2" height="23" rx="5" fill="#3fb950"/>
<text x="342.2" y="213" font-size="13" fill="#e6edf3">2.11×</text>
<text x="138" y="250" text-anchor="end" font-size="13.5" fill="#9aa7b4">C#</text>
<rect x="150" y="234" width="194.2" height="23" rx="5" fill="#a371f7"/>
<text x="353.2" y="251" font-size="13" fill="#e6edf3">2.24×</text>
<text x="138" y="288" text-anchor="end" font-size="13.5" fill="#9aa7b4">Go</text>
<rect x="150" y="272" width="210.9" height="23" rx="5" fill="#3fb950"/>
<text x="369.9" y="289" font-size="13" fill="#e6edf3">2.43×</text>
<text x="138" y="326" text-anchor="end" font-size="13.5" fill="#9aa7b4">Python</text>
<rect x="150" y="310" width="216.3" height="23" rx="5" fill="#f0883e"/>
<text x="375.3" y="327" font-size="13" fill="#e6edf3">2.50×</text>
<text x="138" y="364" text-anchor="end" font-size="13.5" fill="#9aa7b4">Perl</text>
<rect x="150" y="348" width="227.4" height="23" rx="5" fill="#f0883e"/>
<text x="386.4" y="365" font-size="13" fill="#e6edf3">2.62×</text>
<text x="138" y="402" text-anchor="end" font-size="13.5" fill="#9aa7b4">Ruby</text>
<rect x="150" y="386" width="232.9" height="23" rx="5" fill="#f0883e"/>
<text x="391.9" y="403" font-size="13" fill="#e6edf3">2.69×</text>
<text x="138" y="440" text-anchor="end" font-size="13.5" fill="#9aa7b4">PHP</text>
<rect x="150" y="424" width="248.1" height="23" rx="5" fill="#f0883e"/>
<text x="407.1" y="441" font-size="13" fill="#e6edf3">2.86×</text>
<text x="138" y="478" text-anchor="end" font-size="13.5" fill="#9aa7b4">Elixir</text>
<rect x="150" y="462" width="281.8" height="23" rx="5" fill="#a371f7"/>
<text x="440.8" y="479" font-size="13" fill="#e6edf3">3.25×</text>
<text x="138" y="516" text-anchor="end" font-size="13.5" fill="#9aa7b4">Scala</text>
<rect x="150" y="500" width="514.0" height="23" rx="5" fill="#a371f7"/>
<text x="673.0" y="517" font-size="13" fill="#e6edf3">5.93×</text>
</svg>