<svg xmlns="http://www.w3.org/2000/svg" width="760" height="662" viewBox="0 0 760 662" font-family="ui-sans-serif,system-ui,Segoe UI,Helvetica,Arial">
<rect width="760" height="662" rx="10" fill="#0d1117"/>
<text x="22" y="34" font-size="19" font-weight="700" fill="#e6edf3">gbdt:instructions at n=5000</text>
<text x="22" y="56" font-size="13" fill="#9aa7b4">absolute count · qemu+insn · arm64 · log scale · less = more efficient</text>
<text x="120" y="97" text-anchor="end" font-size="14" fill="#9aa7b4">Rust</text>
<rect x="132" y="81" width="22.7" height="24" rx="5" fill="#3fb950"/>
<text x="163.7" y="98" font-size="13" fill="#e6edf3">93.40M</text>
<text x="120" y="137" text-anchor="end" font-size="14" fill="#9aa7b4">C</text>
<rect x="132" y="121" width="42.6" height="24" rx="5" fill="#3fb950"/>
<text x="183.6" y="138" font-size="13" fill="#e6edf3">113.47M</text>
<text x="120" y="177" text-anchor="end" font-size="14" fill="#9aa7b4">Go</text>
<rect x="132" y="161" width="85.6" height="24" rx="5" fill="#3fb950"/>
<text x="226.6" y="178" font-size="13" fill="#e6edf3">173.00M</text>
<text x="120" y="217" text-anchor="end" font-size="14" fill="#9aa7b4">Swift</text>
<rect x="132" y="201" width="103.6" height="24" rx="5" fill="#3fb950"/>
<text x="244.6" y="218" font-size="13" fill="#e6edf3">206.51M</text>
<text x="120" y="257" text-anchor="end" font-size="14" fill="#9aa7b4">C#</text>
<rect x="132" y="241" width="169.5" height="24" rx="5" fill="#a371f7"/>
<text x="310.5" y="258" font-size="13" fill="#e6edf3">394.01M</text>
<text x="120" y="297" text-anchor="end" font-size="14" fill="#9aa7b4">Java</text>
<rect x="132" y="281" width="186.3" height="24" rx="5" fill="#a371f7"/>
<text x="327.3" y="298" font-size="13" fill="#e6edf3">464.88M</text>
<text x="120" y="337" text-anchor="end" font-size="14" fill="#9aa7b4">Kotlin</text>
<rect x="132" y="321" width="192.8" height="24" rx="5" fill="#a371f7"/>
<text x="333.8" y="338" font-size="13" fill="#e6edf3">495.27M</text>
<text x="120" y="377" text-anchor="end" font-size="14" fill="#9aa7b4">JavaScript</text>
<rect x="132" y="361" width="227.8" height="24" rx="5" fill="#a371f7"/>
<text x="368.8" y="378" font-size="13" fill="#e6edf3">698.09M</text>
<text x="120" y="417" text-anchor="end" font-size="14" fill="#9aa7b4">Scala</text>
<rect x="132" y="401" width="262.7" height="24" rx="5" fill="#a371f7"/>
<text x="403.7" y="418" font-size="13" fill="#e6edf3">982.98M</text>
<text x="120" y="457" text-anchor="end" font-size="14" fill="#9aa7b4">PHP</text>
<rect x="132" y="441" width="390.8" height="24" rx="5" fill="#f0883e"/>
<text x="531.8" y="458" font-size="13" fill="#e6edf3">3.45B</text>
<text x="120" y="497" text-anchor="end" font-size="14" fill="#9aa7b4">Elixir</text>
<rect x="132" y="481" width="456.2" height="24" rx="5" fill="#a371f7"/>
<text x="597.2" y="498" font-size="13" fill="#e6edf3">6.57B</text>
<text x="120" y="537" text-anchor="end" font-size="14" fill="#9aa7b4">Ruby</text>
<rect x="132" y="521" width="505.3" height="24" rx="5" fill="#f0883e"/>
<text x="646.3" y="538" font-size="13" fill="#e6edf3">10.62B</text>
<text x="120" y="577" text-anchor="end" font-size="14" fill="#9aa7b4">Python</text>
<rect x="132" y="561" width="517.3" height="24" rx="5" fill="#f0883e"/>
<text x="658.3" y="578" font-size="13" fill="#e6edf3">11.95B</text>
<text x="120" y="617" text-anchor="end" font-size="14" fill="#9aa7b4">Perl</text>
<rect x="132" y="601" width="532.0" height="24" rx="5" fill="#f0883e"/>
<text x="673.0" y="618" font-size="13" fill="#e6edf3">13.81B</text>
</svg>