<svg xmlns="http://www.w3.org/2000/svg" width="760" height="622" viewBox="0 0 760 622" font-family="ui-sans-serif,system-ui,Segoe UI,Helvetica,Arial">
<rect width="760" height="622" rx="10" fill="#0d1117"/>
<text x="22" y="34" font-size="19" font-weight="700" fill="#e6edf3">gemm:instructions at n=256</text>
<text x="22" y="56" font-size="13" fill="#9aa7b4">absolute count · qemu+insn · arm64 · log scale · less = more efficient</text>
<text x="120" y="97" text-anchor="end" font-size="14" fill="#9aa7b4">C</text>
<rect x="132" y="81" width="17.5" height="24" rx="5" fill="#3fb950"/>
<text x="158.5" y="98" font-size="13" fill="#e6edf3">119.76M</text>
<text x="120" y="137" text-anchor="end" font-size="14" fill="#9aa7b4">Rust</text>
<rect x="132" y="121" width="19.9" height="24" rx="5" fill="#3fb950"/>
<text x="160.9" y="138" font-size="13" fill="#e6edf3">123.57M</text>
<text x="120" y="177" text-anchor="end" font-size="14" fill="#9aa7b4">Go</text>
<rect x="132" y="161" width="66.0" height="24" rx="5" fill="#3fb950"/>
<text x="207.0" y="178" font-size="13" fill="#e6edf3">222.41M</text>
<text x="120" y="217" text-anchor="end" font-size="14" fill="#9aa7b4">Kotlin</text>
<rect x="132" y="201" width="100.6" height="24" rx="5" fill="#a371f7"/>
<text x="241.6" y="218" font-size="13" fill="#e6edf3">345.78M</text>
<text x="120" y="257" text-anchor="end" font-size="14" fill="#9aa7b4">Swift</text>
<rect x="132" y="241" width="101.5" height="24" rx="5" fill="#3fb950"/>
<text x="242.5" y="258" font-size="13" fill="#e6edf3">349.90M</text>
<text x="120" y="297" text-anchor="end" font-size="14" fill="#9aa7b4">C#</text>
<rect x="132" y="281" width="127.4" height="24" rx="5" fill="#a371f7"/>
<text x="268.4" y="298" font-size="13" fill="#e6edf3">486.58M</text>
<text x="120" y="337" text-anchor="end" font-size="14" fill="#9aa7b4">Scala</text>
<rect x="132" y="321" width="168.6" height="24" rx="5" fill="#a371f7"/>
<text x="309.6" y="338" font-size="13" fill="#e6edf3">823.47M</text>
<text x="120" y="377" text-anchor="end" font-size="14" fill="#9aa7b4">PHP</text>
<rect x="132" y="361" width="303.6" height="24" rx="5" fill="#f0883e"/>
<text x="444.6" y="378" font-size="13" fill="#e6edf3">4.60B</text>
<text x="120" y="417" text-anchor="end" font-size="14" fill="#9aa7b4">Elixir</text>
<rect x="132" y="401" width="350.0" height="24" rx="5" fill="#a371f7"/>
<text x="491.0" y="418" font-size="13" fill="#e6edf3">8.32B</text>
<text x="120" y="457" text-anchor="end" font-size="14" fill="#9aa7b4">Ruby</text>
<rect x="132" y="441" width="377.6" height="24" rx="5" fill="#f0883e"/>
<text x="518.6" y="458" font-size="13" fill="#e6edf3">11.83B</text>
<text x="120" y="497" text-anchor="end" font-size="14" fill="#9aa7b4">Perl</text>
<rect x="132" y="481" width="402.2" height="24" rx="5" fill="#f0883e"/>
<text x="543.2" y="498" font-size="13" fill="#e6edf3">16.19B</text>
<text x="120" y="537" text-anchor="end" font-size="14" fill="#9aa7b4">Python</text>
<rect x="132" y="521" width="421.1" height="24" rx="5" fill="#f0883e"/>
<text x="562.1" y="538" font-size="13" fill="#e6edf3">20.62B</text>
<text x="120" y="577" text-anchor="end" font-size="14" fill="#9aa7b4">COBOL</text>
<rect x="132" y="561" width="532.0" height="24" rx="5" fill="#3fb950"/>
<text x="673.0" y="578" font-size="13" fill="#e6edf3">84.84B</text>
</svg>