<svg xmlns="http://www.w3.org/2000/svg" width="760" height="556" viewBox="0 0 760 556" font-family="ui-sans-serif,system-ui,Segoe UI,Helvetica,Arial">
<rect width="760" height="556" rx="10" fill="#0d1117"/>
<text x="22" y="34" font-size="19" font-weight="700" fill="#e6edf3">gemm: speedup at 4 cores</text>
<text x="22" y="56" font-size="13" fill="#9aa7b4">wall-clock, compute region · x86_64 · higher is better, dashed = ideal 4×</text>
<line x1="664.0" y1="70" x2="664.0" y2="540" stroke="#9aa7b4" stroke-width="1.5" stroke-dasharray="5 4"/>
<text x="138" y="98" text-anchor="end" font-size="13.5" fill="#9aa7b4">Perl</text>
<rect x="150" y="82" width="230.7" height="23" rx="5" fill="#f0883e"/>
<text x="389.7" y="99" font-size="13" fill="#e6edf3">1.79×</text>
<text x="138" y="136" text-anchor="end" font-size="13.5" fill="#9aa7b4">Scala</text>
<rect x="150" y="120" width="239.1" height="23" rx="5" fill="#a371f7"/>
<text x="398.1" y="137" font-size="13" fill="#e6edf3">1.86×</text>
<text x="138" y="174" text-anchor="end" font-size="13.5" fill="#9aa7b4">Kotlin</text>
<rect x="150" y="158" width="254.9" height="23" rx="5" fill="#a371f7"/>
<text x="413.9" y="175" font-size="13" fill="#e6edf3">1.98×</text>
<text x="138" y="212" text-anchor="end" font-size="13.5" fill="#9aa7b4">Go</text>
<rect x="150" y="196" width="255.8" height="23" rx="5" fill="#3fb950"/>
<text x="414.8" y="213" font-size="13" fill="#e6edf3">1.99×</text>
<text x="138" y="250" text-anchor="end" font-size="13.5" fill="#9aa7b4">Swift</text>
<rect x="150" y="234" width="258.0" height="23" rx="5" fill="#3fb950"/>
<text x="417.0" y="251" font-size="13" fill="#e6edf3">2.01×</text>
<text x="138" y="288" text-anchor="end" font-size="13.5" fill="#9aa7b4">Rust</text>
<rect x="150" y="272" width="260.7" height="23" rx="5" fill="#3fb950"/>
<text x="419.7" y="289" font-size="13" fill="#e6edf3">2.03×</text>
<text x="138" y="326" text-anchor="end" font-size="13.5" fill="#9aa7b4">PHP</text>
<rect x="150" y="310" width="264.1" height="23" rx="5" fill="#f0883e"/>
<text x="423.1" y="327" font-size="13" fill="#e6edf3">2.06×</text>
<text x="138" y="364" text-anchor="end" font-size="13.5" fill="#9aa7b4">C</text>
<rect x="150" y="348" width="280.6" height="23" rx="5" fill="#3fb950"/>
<text x="439.6" y="365" font-size="13" fill="#e6edf3">2.18×</text>
<text x="138" y="402" text-anchor="end" font-size="13.5" fill="#9aa7b4">C#</text>
<rect x="150" y="386" width="281.0" height="23" rx="5" fill="#a371f7"/>
<text x="440.0" y="403" font-size="13" fill="#e6edf3">2.19×</text>
<text x="138" y="440" text-anchor="end" font-size="13.5" fill="#9aa7b4">Python</text>
<rect x="150" y="424" width="323.2" height="23" rx="5" fill="#f0883e"/>
<text x="482.2" y="441" font-size="13" fill="#e6edf3">2.52×</text>
<text x="138" y="478" text-anchor="end" font-size="13.5" fill="#9aa7b4">Ruby</text>
<rect x="150" y="462" width="357.2" height="23" rx="5" fill="#f0883e"/>
<text x="516.2" y="479" font-size="13" fill="#e6edf3">2.78×</text>
<text x="138" y="516" text-anchor="end" font-size="13.5" fill="#9aa7b4">Elixir</text>
<rect x="150" y="500" width="371.8" height="23" rx="5" fill="#a371f7"/>
<text x="530.8" y="517" font-size="13" fill="#e6edf3">2.89×</text>
</svg>