<svg xmlns="http://www.w3.org/2000/svg" width="760" height="594" viewBox="0 0 760 594" font-family="ui-sans-serif,system-ui,Segoe UI,Helvetica,Arial">
<rect width="760" height="594" rx="10" fill="#0d1117"/>
<text x="22" y="34" font-size="19" font-weight="700" fill="#e6edf3">gemm: speedup at 4 cores</text>
<text x="22" y="56" font-size="13" fill="#9aa7b4">wall-clock, compute region · arm64 · higher is better, dashed = ideal 4×</text>
<line x1="653.9" y1="70" x2="653.9" y2="578" stroke="#9aa7b4" stroke-width="1.5" stroke-dasharray="5 4"/>
<text x="138" y="98" text-anchor="end" font-size="13.5" fill="#9aa7b4">Python (threads)</text>
<rect x="150" y="82" width="129.3" height="23" rx="5" fill="#f0883e"/>
<text x="288.3" y="99" font-size="13" fill="#e6edf3">1.03×</text>
<text x="138" y="136" text-anchor="end" font-size="13.5" fill="#9aa7b4">Perl</text>
<rect x="150" y="120" width="278.5" height="23" rx="5" fill="#f0883e"/>
<text x="437.5" y="137" font-size="13" fill="#e6edf3">2.21×</text>
<text x="138" y="174" text-anchor="end" font-size="13.5" fill="#9aa7b4">Kotlin</text>
<rect x="150" y="158" width="435.3" height="23" rx="5" fill="#a371f7"/>
<text x="594.3" y="175" font-size="13" fill="#e6edf3">3.46×</text>
<text x="138" y="212" text-anchor="end" font-size="13.5" fill="#9aa7b4">Ruby</text>
<rect x="150" y="196" width="443.2" height="23" rx="5" fill="#f0883e"/>
<text x="602.2" y="213" font-size="13" fill="#e6edf3">3.52×</text>
<text x="138" y="250" text-anchor="end" font-size="13.5" fill="#9aa7b4">C</text>
<rect x="150" y="234" width="444.7" height="23" rx="5" fill="#3fb950"/>
<text x="603.7" y="251" font-size="13" fill="#e6edf3">3.53×</text>
<text x="138" y="288" text-anchor="end" font-size="13.5" fill="#9aa7b4">Rust</text>
<rect x="150" y="272" width="445.1" height="23" rx="5" fill="#3fb950"/>
<text x="604.1" y="289" font-size="13" fill="#e6edf3">3.53×</text>
<text x="138" y="326" text-anchor="end" font-size="13.5" fill="#9aa7b4">Go</text>
<rect x="150" y="310" width="451.0" height="23" rx="5" fill="#3fb950"/>
<text x="610.0" y="327" font-size="13" fill="#e6edf3">3.58×</text>
<text x="138" y="364" text-anchor="end" font-size="13.5" fill="#9aa7b4">Scala</text>
<rect x="150" y="348" width="454.2" height="23" rx="5" fill="#a371f7"/>
<text x="613.2" y="365" font-size="13" fill="#e6edf3">3.60×</text>
<text x="138" y="402" text-anchor="end" font-size="13.5" fill="#9aa7b4">Python (proc)</text>
<rect x="150" y="386" width="454.7" height="23" rx="5" fill="#f0883e"/>
<text x="613.7" y="403" font-size="13" fill="#e6edf3">3.61×</text>
<text x="138" y="440" text-anchor="end" font-size="13.5" fill="#9aa7b4">Elixir</text>
<rect x="150" y="424" width="455.0" height="23" rx="5" fill="#a371f7"/>
<text x="614.0" y="441" font-size="13" fill="#e6edf3">3.61×</text>
<text x="138" y="478" text-anchor="end" font-size="13.5" fill="#9aa7b4">Swift</text>
<rect x="150" y="462" width="466.4" height="23" rx="5" fill="#3fb950"/>
<text x="625.4" y="479" font-size="13" fill="#e6edf3">3.70×</text>
<text x="138" y="516" text-anchor="end" font-size="13.5" fill="#9aa7b4">C#</text>
<rect x="150" y="500" width="474.2" height="23" rx="5" fill="#a371f7"/>
<text x="633.2" y="517" font-size="13" fill="#e6edf3">3.76×</text>
<text x="138" y="554" text-anchor="end" font-size="13.5" fill="#9aa7b4">PHP</text>
<rect x="150" y="538" width="514.0" height="23" rx="5" fill="#f0883e"/>
<text x="673.0" y="555" font-size="13" fill="#e6edf3">4.08×</text>
</svg>