<svg xmlns="http://www.w3.org/2000/svg" width="760" height="622" viewBox="0 0 760 622" font-family="ui-sans-serif,system-ui,Segoe UI,Helvetica,Arial">
<rect width="760" height="622" rx="10" fill="#0d1117"/>
<text x="22" y="34" font-size="19" font-weight="700" fill="#e6edf3">gemm:instructions at n=128</text>
<text x="22" y="56" font-size="13" fill="#9aa7b4">absolute count · qemu+insn · arm64 · log scale</text>
<text x="120" y="97" text-anchor="end" font-size="14" fill="#9aa7b4">C</text>
<rect x="132" y="81" width="17.5" height="24" rx="5" fill="#3fb950"/>
<text x="158.5" y="98" font-size="13" fill="#e6edf3">15.33M</text>
<text x="120" y="137" text-anchor="end" font-size="14" fill="#9aa7b4">Rust</text>
<rect x="132" y="121" width="22.6" height="24" rx="5" fill="#3fb950"/>
<text x="163.6" y="138" font-size="13" fill="#e6edf3">16.34M</text>
<text x="120" y="177" text-anchor="end" font-size="14" fill="#9aa7b4">Go</text>
<rect x="132" y="161" width="66.4" height="24" rx="5" fill="#3fb950"/>
<text x="207.4" y="178" font-size="13" fill="#e6edf3">28.56M</text>
<text x="120" y="217" text-anchor="end" font-size="14" fill="#9aa7b4">Swift</text>
<rect x="132" y="201" width="116.6" height="24" rx="5" fill="#3fb950"/>
<text x="257.6" y="218" font-size="13" fill="#e6edf3">54.03M</text>
<text x="120" y="257" text-anchor="end" font-size="14" fill="#9aa7b4">Kotlin</text>
<rect x="132" y="241" width="234.4" height="24" rx="5" fill="#a371f7"/>
<text x="375.4" y="258" font-size="13" fill="#e6edf3">241.75M</text>
<text x="120" y="297" text-anchor="end" font-size="14" fill="#9aa7b4">C#</text>
<rect x="132" y="281" width="236.2" height="24" rx="5" fill="#a371f7"/>
<text x="377.2" y="298" font-size="13" fill="#e6edf3">247.43M</text>
<text x="120" y="337" text-anchor="end" font-size="14" fill="#9aa7b4">PHP</text>
<rect x="132" y="321" width="307.8" height="24" rx="5" fill="#f0883e"/>
<text x="448.8" y="338" font-size="13" fill="#e6edf3">614.97M</text>
<text x="120" y="377" text-anchor="end" font-size="14" fill="#9aa7b4">Scala</text>
<rect x="132" y="361" width="319.3" height="24" rx="5" fill="#a371f7"/>
<text x="460.3" y="378" font-size="13" fill="#e6edf3">712.23M</text>
<text x="120" y="417" text-anchor="end" font-size="14" fill="#9aa7b4">Ruby</text>
<rect x="132" y="401" width="389.9" height="24" rx="5" fill="#f0883e"/>
<text x="530.9" y="418" font-size="13" fill="#e6edf3">1.75B</text>
<text x="120" y="457" text-anchor="end" font-size="14" fill="#9aa7b4">Perl</text>
<rect x="132" y="441" width="404.1" height="24" rx="5" fill="#f0883e"/>
<text x="545.1" y="458" font-size="13" fill="#e6edf3">2.09B</text>
<text x="120" y="497" text-anchor="end" font-size="14" fill="#9aa7b4">Python</text>
<rect x="132" y="481" width="423.1" height="24" rx="5" fill="#f0883e"/>
<text x="564.1" y="498" font-size="13" fill="#e6edf3">2.67B</text>
<text x="120" y="537" text-anchor="end" font-size="14" fill="#9aa7b4">Elixir</text>
<rect x="132" y="521" width="427.5" height="24" rx="5" fill="#a371f7"/>
<text x="568.5" y="538" font-size="13" fill="#e6edf3">2.82B</text>
<text x="120" y="577" text-anchor="end" font-size="14" fill="#9aa7b4">COBOL</text>
<rect x="132" y="561" width="532.0" height="24" rx="5" fill="#3fb950"/>
<text x="673.0" y="578" font-size="13" fill="#e6edf3">10.65B</text>
</svg>