<svg xmlns="http://www.w3.org/2000/svg" width="760" height="662" viewBox="0 0 760 662" font-family="ui-sans-serif,system-ui,Segoe UI,Helvetica,Arial">
<rect width="760" height="662" rx="10" fill="#0d1117"/>
<text x="22" y="34" font-size="19" font-weight="700" fill="#e6edf3">gemm:instructions at n=256</text>
<text x="22" y="56" font-size="13" fill="#9aa7b4">absolute count · qemu+insn · arm64 · log scale · less = more efficient</text>
<text x="120" y="97" text-anchor="end" font-size="14" fill="#9aa7b4">C</text>
<rect x="132" y="81" width="22.1" height="24" rx="5" fill="#3fb950"/>
<text x="163.1" y="98" font-size="13" fill="#e6edf3">119.76M</text>
<text x="120" y="137" text-anchor="end" font-size="14" fill="#9aa7b4">Rust</text>
<rect x="132" y="121" width="25.2" height="24" rx="5" fill="#3fb950"/>
<text x="166.2" y="138" font-size="13" fill="#e6edf3">123.57M</text>
<text x="120" y="177" text-anchor="end" font-size="14" fill="#9aa7b4">Go</text>
<rect x="132" y="161" width="83.4" height="24" rx="5" fill="#3fb950"/>
<text x="224.4" y="178" font-size="13" fill="#e6edf3">222.42M</text>
<text x="120" y="217" text-anchor="end" font-size="14" fill="#9aa7b4">Kotlin</text>
<rect x="132" y="201" width="127.1" height="24" rx="5" fill="#a371f7"/>
<text x="268.1" y="218" font-size="13" fill="#e6edf3">345.78M</text>
<text x="120" y="257" text-anchor="end" font-size="14" fill="#9aa7b4">Swift</text>
<rect x="132" y="241" width="128.3" height="24" rx="5" fill="#3fb950"/>
<text x="269.3" y="258" font-size="13" fill="#e6edf3">349.90M</text>
<text x="120" y="297" text-anchor="end" font-size="14" fill="#9aa7b4">Java</text>
<rect x="132" y="281" width="130.3" height="24" rx="5" fill="#a371f7"/>
<text x="271.3" y="298" font-size="13" fill="#e6edf3">356.94M</text>
<text x="120" y="337" text-anchor="end" font-size="14" fill="#9aa7b4">C#</text>
<rect x="132" y="321" width="160.9" height="24" rx="5" fill="#a371f7"/>
<text x="301.9" y="338" font-size="13" fill="#e6edf3">486.58M</text>
<text x="120" y="377" text-anchor="end" font-size="14" fill="#9aa7b4">Scala</text>
<rect x="132" y="361" width="213.0" height="24" rx="5" fill="#a371f7"/>
<text x="354.0" y="378" font-size="13" fill="#e6edf3">823.47M</text>
<text x="120" y="417" text-anchor="end" font-size="14" fill="#9aa7b4">JavaScript</text>
<rect x="132" y="401" width="218.0" height="24" rx="5" fill="#a371f7"/>
<text x="359.0" y="418" font-size="13" fill="#e6edf3">865.89M</text>
<text x="120" y="457" text-anchor="end" font-size="14" fill="#9aa7b4">PHP</text>
<rect x="132" y="441" width="383.5" height="24" rx="5" fill="#f0883e"/>
<text x="524.5" y="458" font-size="13" fill="#e6edf3">4.60B</text>
<text x="120" y="497" text-anchor="end" font-size="14" fill="#9aa7b4">Elixir</text>
<rect x="132" y="481" width="442.1" height="24" rx="5" fill="#a371f7"/>
<text x="583.1" y="498" font-size="13" fill="#e6edf3">8.32B</text>
<text x="120" y="537" text-anchor="end" font-size="14" fill="#9aa7b4">Ruby</text>
<rect x="132" y="521" width="477.0" height="24" rx="5" fill="#f0883e"/>
<text x="618.0" y="538" font-size="13" fill="#e6edf3">11.83B</text>
<text x="120" y="577" text-anchor="end" font-size="14" fill="#9aa7b4">Perl</text>
<rect x="132" y="561" width="508.1" height="24" rx="5" fill="#f0883e"/>
<text x="649.1" y="578" font-size="13" fill="#e6edf3">16.19B</text>
<text x="120" y="617" text-anchor="end" font-size="14" fill="#9aa7b4">Python</text>
<rect x="132" y="601" width="532.0" height="24" rx="5" fill="#f0883e"/>
<text x="673.0" y="618" font-size="13" fill="#e6edf3">20.62B</text>
</svg>