<svg xmlns="http://www.w3.org/2000/svg" width="760" height="662" viewBox="0 0 760 662" font-family="ui-sans-serif,system-ui,Segoe UI,Helvetica,Arial">
<rect width="760" height="662" rx="10" fill="#0d1117"/>
<text x="22" y="34" font-size="19" font-weight="700" fill="#e6edf3">gemm:instructions at n=128</text>
<text x="22" y="56" font-size="13" fill="#9aa7b4">absolute count · qemu+insn · arm64 · log scale · less = more efficient</text>
<text x="120" y="97" text-anchor="end" font-size="14" fill="#9aa7b4">C</text>
<rect x="132" y="81" width="21.8" height="24" rx="5" fill="#3fb950"/>
<text x="162.8" y="98" font-size="13" fill="#e6edf3">15.33M</text>
<text x="120" y="137" text-anchor="end" font-size="14" fill="#9aa7b4">Rust</text>
<rect x="132" y="121" width="28.1" height="24" rx="5" fill="#3fb950"/>
<text x="169.1" y="138" font-size="13" fill="#e6edf3">16.34M</text>
<text x="120" y="177" text-anchor="end" font-size="14" fill="#9aa7b4">Go</text>
<rect x="132" y="161" width="82.7" height="24" rx="5" fill="#3fb950"/>
<text x="223.7" y="178" font-size="13" fill="#e6edf3">28.56M</text>
<text x="120" y="217" text-anchor="end" font-size="14" fill="#9aa7b4">Swift</text>
<rect x="132" y="201" width="145.1" height="24" rx="5" fill="#3fb950"/>
<text x="286.1" y="218" font-size="13" fill="#e6edf3">54.03M</text>
<text x="120" y="257" text-anchor="end" font-size="14" fill="#9aa7b4">Kotlin</text>
<rect x="132" y="241" width="291.7" height="24" rx="5" fill="#a371f7"/>
<text x="432.7" y="258" font-size="13" fill="#e6edf3">241.75M</text>
<text x="120" y="297" text-anchor="end" font-size="14" fill="#9aa7b4">C#</text>
<rect x="132" y="281" width="294.0" height="24" rx="5" fill="#a371f7"/>
<text x="435.0" y="298" font-size="13" fill="#e6edf3">247.43M</text>
<text x="120" y="337" text-anchor="end" font-size="14" fill="#9aa7b4">Java</text>
<rect x="132" y="321" width="294.6" height="24" rx="5" fill="#a371f7"/>
<text x="435.6" y="338" font-size="13" fill="#e6edf3">248.90M</text>
<text x="120" y="377" text-anchor="end" font-size="14" fill="#9aa7b4">JavaScript</text>
<rect x="132" y="361" width="300.8" height="24" rx="5" fill="#a371f7"/>
<text x="441.8" y="378" font-size="13" fill="#e6edf3">265.31M</text>
<text x="120" y="417" text-anchor="end" font-size="14" fill="#9aa7b4">PHP</text>
<rect x="132" y="401" width="383.1" height="24" rx="5" fill="#f0883e"/>
<text x="524.1" y="418" font-size="13" fill="#e6edf3">614.97M</text>
<text x="120" y="457" text-anchor="end" font-size="14" fill="#9aa7b4">Scala</text>
<rect x="132" y="441" width="397.4" height="24" rx="5" fill="#a371f7"/>
<text x="538.4" y="458" font-size="13" fill="#e6edf3">712.23M</text>
<text x="120" y="497" text-anchor="end" font-size="14" fill="#9aa7b4">Ruby</text>
<rect x="132" y="481" width="485.2" height="24" rx="5" fill="#f0883e"/>
<text x="626.2" y="498" font-size="13" fill="#e6edf3">1.75B</text>
<text x="120" y="537" text-anchor="end" font-size="14" fill="#9aa7b4">Perl</text>
<rect x="132" y="521" width="502.9" height="24" rx="5" fill="#f0883e"/>
<text x="643.9" y="538" font-size="13" fill="#e6edf3">2.09B</text>
<text x="120" y="577" text-anchor="end" font-size="14" fill="#9aa7b4">Python</text>
<rect x="132" y="561" width="526.6" height="24" rx="5" fill="#f0883e"/>
<text x="667.6" y="578" font-size="13" fill="#e6edf3">2.67B</text>
<text x="120" y="617" text-anchor="end" font-size="14" fill="#9aa7b4">Elixir</text>
<rect x="132" y="601" width="532.0" height="24" rx="5" fill="#a371f7"/>
<text x="673.0" y="618" font-size="13" fill="#e6edf3">2.82B</text>
</svg>