<svg xmlns="http://www.w3.org/2000/svg" width="760" height="622" viewBox="0 0 760 622" font-family="ui-sans-serif,system-ui,Segoe UI,Helvetica,Arial">
<rect width="760" height="622" rx="10" fill="#0d1117"/>
<text x="22" y="34" font-size="19" font-weight="700" fill="#e6edf3">gemm:instructions at n=256</text>
<text x="22" y="56" font-size="13" fill="#9aa7b4">absolute count · qemu+insn · x86_64 · log scale · less = more efficient</text>
<text x="120" y="97" text-anchor="end" font-size="14" fill="#9aa7b4">C</text>
<rect x="132" y="81" width="17.3" height="24" rx="5" fill="#3fb950"/>
<text x="158.3" y="98" font-size="13" fill="#e6edf3">104.18M</text>
<text x="120" y="137" text-anchor="end" font-size="14" fill="#9aa7b4">Rust</text>
<rect x="132" y="121" width="34.8" height="24" rx="5" fill="#3fb950"/>
<text x="175.8" y="138" font-size="13" fill="#e6edf3">130.72M</text>
<text x="120" y="177" text-anchor="end" font-size="14" fill="#9aa7b4">Go</text>
<rect x="132" y="161" width="76.1" height="24" rx="5" fill="#3fb950"/>
<text x="217.1" y="178" font-size="13" fill="#e6edf3">222.96M</text>
<text x="120" y="217" text-anchor="end" font-size="14" fill="#9aa7b4">Swift</text>
<rect x="132" y="201" width="91.1" height="24" rx="5" fill="#3fb950"/>
<text x="232.1" y="218" font-size="13" fill="#e6edf3">270.49M</text>
<text x="120" y="257" text-anchor="end" font-size="14" fill="#9aa7b4">C#</text>
<rect x="132" y="241" width="129.6" height="24" rx="5" fill="#a371f7"/>
<text x="270.6" y="258" font-size="13" fill="#e6edf3">444.87M</text>
<text x="120" y="297" text-anchor="end" font-size="14" fill="#9aa7b4">Kotlin</text>
<rect x="132" y="281" width="179.2" height="24" rx="5" fill="#a371f7"/>
<text x="320.2" y="298" font-size="13" fill="#e6edf3">844.31M</text>
<text x="120" y="337" text-anchor="end" font-size="14" fill="#9aa7b4">Scala</text>
<rect x="132" y="321" width="222.6" height="24" rx="5" fill="#a371f7"/>
<text x="363.6" y="338" font-size="13" fill="#e6edf3">1.48B</text>
<text x="120" y="377" text-anchor="end" font-size="14" fill="#9aa7b4">PHP</text>
<rect x="132" y="361" width="298.8" height="24" rx="5" fill="#f0883e"/>
<text x="439.8" y="378" font-size="13" fill="#e6edf3">3.96B</text>
<text x="120" y="417" text-anchor="end" font-size="14" fill="#9aa7b4">Elixir</text>
<rect x="132" y="401" width="355.5" height="24" rx="5" fill="#a371f7"/>
<text x="496.5" y="418" font-size="13" fill="#e6edf3">8.24B</text>
<text x="120" y="457" text-anchor="end" font-size="14" fill="#9aa7b4">Ruby</text>
<rect x="132" y="441" width="370.1" height="24" rx="5" fill="#f0883e"/>
<text x="511.1" y="458" font-size="13" fill="#e6edf3">9.96B</text>
<text x="120" y="497" text-anchor="end" font-size="14" fill="#9aa7b4">Perl</text>
<rect x="132" y="481" width="405.8" height="24" rx="5" fill="#f0883e"/>
<text x="546.8" y="498" font-size="13" fill="#e6edf3">15.80B</text>
<text x="120" y="537" text-anchor="end" font-size="14" fill="#9aa7b4">Python</text>
<rect x="132" y="521" width="435.7" height="24" rx="5" fill="#f0883e"/>
<text x="576.7" y="538" font-size="13" fill="#e6edf3">23.26B</text>
<text x="120" y="577" text-anchor="end" font-size="14" fill="#9aa7b4">COBOL</text>
<rect x="132" y="561" width="532.0" height="24" rx="5" fill="#3fb950"/>
<text x="673.0" y="578" font-size="13" fill="#e6edf3">80.70B</text>
</svg>