<svg xmlns="http://www.w3.org/2000/svg" width="760" height="556" viewBox="0 0 760 556" font-family="ui-sans-serif,system-ui,Segoe UI,Helvetica,Arial">
<rect width="760" height="556" rx="10" fill="#0d1117"/>
<text x="22" y="34" font-size="19" font-weight="700" fill="#e6edf3">k-means: speedup at 4 cores</text>
<text x="22" y="56" font-size="13" fill="#9aa7b4">wall-clock, compute region · x86_64 · higher is better, dashed = ideal 4×</text>
<line x1="664.0" y1="70" x2="664.0" y2="540" stroke="#9aa7b4" stroke-width="1.5" stroke-dasharray="5 4"/>
<text x="138" y="98" text-anchor="end" font-size="13.5" fill="#9aa7b4">PHP</text>
<rect x="150" y="82" width="216.8" height="23" rx="5" fill="#f0883e"/>
<text x="375.8" y="99" font-size="13" fill="#e6edf3">1.69×</text>
<text x="138" y="136" text-anchor="end" font-size="13.5" fill="#9aa7b4">Swift</text>
<rect x="150" y="120" width="231.0" height="23" rx="5" fill="#3fb950"/>
<text x="390.0" y="137" font-size="13" fill="#e6edf3">1.80×</text>
<text x="138" y="174" text-anchor="end" font-size="13.5" fill="#9aa7b4">Scala</text>
<rect x="150" y="158" width="235.2" height="23" rx="5" fill="#a371f7"/>
<text x="394.2" y="175" font-size="13" fill="#e6edf3">1.83×</text>
<text x="138" y="212" text-anchor="end" font-size="13.5" fill="#9aa7b4">Kotlin</text>
<rect x="150" y="196" width="238.4" height="23" rx="5" fill="#a371f7"/>
<text x="397.4" y="213" font-size="13" fill="#e6edf3">1.85×</text>
<text x="138" y="250" text-anchor="end" font-size="13.5" fill="#9aa7b4">C</text>
<rect x="150" y="234" width="241.3" height="23" rx="5" fill="#3fb950"/>
<text x="400.3" y="251" font-size="13" fill="#e6edf3">1.88×</text>
<text x="138" y="288" text-anchor="end" font-size="13.5" fill="#9aa7b4">Python</text>
<rect x="150" y="272" width="244.9" height="23" rx="5" fill="#f0883e"/>
<text x="403.9" y="289" font-size="13" fill="#e6edf3">1.91×</text>
<text x="138" y="326" text-anchor="end" font-size="13.5" fill="#9aa7b4">Perl</text>
<rect x="150" y="310" width="248.0" height="23" rx="5" fill="#f0883e"/>
<text x="407.0" y="327" font-size="13" fill="#e6edf3">1.93×</text>
<text x="138" y="364" text-anchor="end" font-size="13.5" fill="#9aa7b4">Rust</text>
<rect x="150" y="348" width="255.3" height="23" rx="5" fill="#3fb950"/>
<text x="414.3" y="365" font-size="13" fill="#e6edf3">1.99×</text>
<text x="138" y="402" text-anchor="end" font-size="13.5" fill="#9aa7b4">C#</text>
<rect x="150" y="386" width="257.3" height="23" rx="5" fill="#a371f7"/>
<text x="416.3" y="403" font-size="13" fill="#e6edf3">2.00×</text>
<text x="138" y="440" text-anchor="end" font-size="13.5" fill="#9aa7b4">Go</text>
<rect x="150" y="424" width="275.6" height="23" rx="5" fill="#3fb950"/>
<text x="434.6" y="441" font-size="13" fill="#e6edf3">2.15×</text>
<text x="138" y="478" text-anchor="end" font-size="13.5" fill="#9aa7b4">Ruby</text>
<rect x="150" y="462" width="307.4" height="23" rx="5" fill="#f0883e"/>
<text x="466.4" y="479" font-size="13" fill="#e6edf3">2.39×</text>
<text x="138" y="516" text-anchor="end" font-size="13.5" fill="#9aa7b4">Elixir</text>
<rect x="150" y="500" width="341.6" height="23" rx="5" fill="#a371f7"/>
<text x="500.6" y="517" font-size="13" fill="#e6edf3">2.66×</text>
</svg>