<svg xmlns="http://www.w3.org/2000/svg" width="760" height="582" viewBox="0 0 760 582" font-family="ui-sans-serif,system-ui,Segoe UI,Helvetica,Arial">
<rect width="760" height="582" rx="10" fill="#0d1117"/>
<text x="22" y="34" font-size="19" font-weight="700" fill="#e6edf3">k-means:instructions at n=2000</text>
<text x="22" y="56" font-size="13" fill="#9aa7b4">absolute count · qemu+insn · arm64 · log scale · less = more efficient</text>
<text x="120" y="97" text-anchor="end" font-size="14" fill="#9aa7b4">Rust</text>
<rect x="132" y="81" width="19.6" height="24" rx="5" fill="#3fb950"/>
<text x="160.6" y="98" font-size="13" fill="#e6edf3">8.87M</text>
<text x="120" y="137" text-anchor="end" font-size="14" fill="#9aa7b4">C</text>
<rect x="132" y="121" width="64.6" height="24" rx="5" fill="#3fb950"/>
<text x="205.6" y="138" font-size="13" fill="#e6edf3">14.80M</text>
<text x="120" y="177" text-anchor="end" font-size="14" fill="#9aa7b4">Go</text>
<rect x="132" y="161" width="110.6" height="24" rx="5" fill="#3fb950"/>
<text x="251.6" y="178" font-size="13" fill="#e6edf3">24.95M</text>
<text x="120" y="217" text-anchor="end" font-size="14" fill="#9aa7b4">Swift</text>
<rect x="132" y="201" width="168.2" height="24" rx="5" fill="#3fb950"/>
<text x="309.2" y="218" font-size="13" fill="#e6edf3">48.01M</text>
<text x="120" y="257" text-anchor="end" font-size="14" fill="#9aa7b4">C#</text>
<rect x="132" y="241" width="309.8" height="24" rx="5" fill="#a371f7"/>
<text x="450.8" y="258" font-size="13" fill="#e6edf3">240.14M</text>
<text x="120" y="297" text-anchor="end" font-size="14" fill="#9aa7b4">Kotlin</text>
<rect x="132" y="281" width="324.1" height="24" rx="5" fill="#a371f7"/>
<text x="465.1" y="298" font-size="13" fill="#e6edf3">282.57M</text>
<text x="120" y="337" text-anchor="end" font-size="14" fill="#9aa7b4">PHP</text>
<rect x="132" y="321" width="407.5" height="24" rx="5" fill="#f0883e"/>
<text x="548.5" y="338" font-size="13" fill="#e6edf3">728.85M</text>
<text x="120" y="377" text-anchor="end" font-size="14" fill="#9aa7b4">Scala</text>
<rect x="132" y="361" width="412.5" height="24" rx="5" fill="#a371f7"/>
<text x="553.5" y="378" font-size="13" fill="#e6edf3">771.84M</text>
<text x="120" y="417" text-anchor="end" font-size="14" fill="#9aa7b4">Ruby</text>
<rect x="132" y="401" width="477.6" height="24" rx="5" fill="#f0883e"/>
<text x="618.6" y="418" font-size="13" fill="#e6edf3">1.62B</text>
<text x="120" y="457" text-anchor="end" font-size="14" fill="#9aa7b4">Python</text>
<rect x="132" y="441" width="505.7" height="24" rx="5" fill="#f0883e"/>
<text x="646.7" y="458" font-size="13" fill="#e6edf3">2.23B</text>
<text x="120" y="497" text-anchor="end" font-size="14" fill="#9aa7b4">Elixir</text>
<rect x="132" y="481" width="522.9" height="24" rx="5" fill="#a371f7"/>
<text x="663.9" y="498" font-size="13" fill="#e6edf3">2.71B</text>
<text x="120" y="537" text-anchor="end" font-size="14" fill="#9aa7b4">Perl</text>
<rect x="132" y="521" width="532.0" height="24" rx="5" fill="#f0883e"/>
<text x="673.0" y="538" font-size="13" fill="#e6edf3">3.00B</text>
</svg>