<svg xmlns="http://www.w3.org/2000/svg" width="820" height="470" viewBox="0 0 820 470" font-family="ui-sans-serif,system-ui,Segoe UI,Helvetica,Arial">
<rect width="820" height="470" rx="10" fill="#0d1117"/>
<text x="22" y="34" font-size="19" font-weight="700" fill="#e6edf3">k-means: parallel speedup vs cores</text>
<text x="22" y="56" font-size="13" fill="#9aa7b4">wall-clock T1/TP of the compute region (startup excluded) · x86_64 · higher is better, ideal = linear</text>
<line x1="64" y1="424.0" x2="670" y2="424.0" stroke="#21262d" stroke-width="1"/>
<text x="54" y="428.0" text-anchor="end" font-size="12" fill="#9aa7b4">0×</text>
<line x1="64" y1="355.2" x2="670" y2="355.2" stroke="#21262d" stroke-width="1"/>
<text x="54" y="359.2" text-anchor="end" font-size="12" fill="#9aa7b4">1×</text>
<line x1="64" y1="286.4" x2="670" y2="286.4" stroke="#21262d" stroke-width="1"/>
<text x="54" y="290.4" text-anchor="end" font-size="12" fill="#9aa7b4">2×</text>
<line x1="64" y1="217.6" x2="670" y2="217.6" stroke="#21262d" stroke-width="1"/>
<text x="54" y="221.6" text-anchor="end" font-size="12" fill="#9aa7b4">3×</text>
<line x1="64" y1="148.8" x2="670" y2="148.8" stroke="#21262d" stroke-width="1"/>
<text x="54" y="152.8" text-anchor="end" font-size="12" fill="#9aa7b4">4×</text>
<line x1="64" y1="80.0" x2="670" y2="80.0" stroke="#21262d" stroke-width="1"/>
<text x="54" y="84.0" text-anchor="end" font-size="12" fill="#9aa7b4">5×</text>
<text x="64.0" y="448.0" text-anchor="middle" font-size="13" fill="#9aa7b4">1 core</text>
<text x="367.0" y="448.0" text-anchor="middle" font-size="13" fill="#9aa7b4">2 cores</text>
<text x="670.0" y="448.0" text-anchor="middle" font-size="13" fill="#9aa7b4">4 cores</text>
<polyline points="64.0,355.2 367.0,286.4 670.0,148.8" fill="none" stroke="#9aa7b4" stroke-width="1.5" stroke-dasharray="5 4"/>
<text x="678.0" y="152.8" font-size="12" fill="#9aa7b4">ideal</text>
<polyline points="64.0,355.2 367.0,301.9 670.0,242.4" fill="none" stroke="#a371f7" stroke-width="2.5" opacity="0.92"/>
<circle cx="64.0" cy="355.2" r="3" fill="#a371f7"/>
<circle cx="367.0" cy="301.9" r="3" fill="#a371f7"/>
<circle cx="670.0" cy="242.4" r="3" fill="#a371f7"/>
<text x="678" y="246.4" font-size="12.5" fill="#a371f7">Elixir 2.64×</text>
<polyline points="64.0,355.2 367.0,298.0 670.0,249.0" fill="none" stroke="#f0883e" stroke-width="2.5" opacity="0.92"/>
<circle cx="64.0" cy="355.2" r="3" fill="#f0883e"/>
<circle cx="367.0" cy="298.0" r="3" fill="#f0883e"/>
<circle cx="670.0" cy="249.0" r="3" fill="#f0883e"/>
<text x="678" y="262.4" font-size="12.5" fill="#f0883e">Ruby 2.54×</text>
<polyline points="64.0,355.2 367.0,293.1 670.0,278.0" fill="none" stroke="#3fb950" stroke-width="2.5" opacity="0.92"/>
<circle cx="64.0" cy="355.2" r="3" fill="#3fb950"/>
<circle cx="367.0" cy="293.1" r="3" fill="#3fb950"/>
<circle cx="670.0" cy="278.0" r="3" fill="#3fb950"/>
<text x="678" y="282.0" font-size="12.5" fill="#3fb950">Go 2.12×</text>
<polyline points="64.0,355.2 367.0,294.7 670.0,279.2" fill="none" stroke="#3fb950" stroke-width="2.5" opacity="0.92"/>
<circle cx="64.0" cy="355.2" r="3" fill="#3fb950"/>
<circle cx="367.0" cy="294.7" r="3" fill="#3fb950"/>
<circle cx="670.0" cy="279.2" r="3" fill="#3fb950"/>
<text x="678" y="298.0" font-size="12.5" fill="#3fb950">C 2.10×</text>
<polyline points="64.0,355.2 367.0,292.0 670.0,288.3" fill="none" stroke="#a371f7" stroke-width="2.5" opacity="0.92"/>
<circle cx="64.0" cy="355.2" r="3" fill="#a371f7"/>
<circle cx="367.0" cy="292.0" r="3" fill="#a371f7"/>
<circle cx="670.0" cy="288.3" r="3" fill="#a371f7"/>
<text x="678" y="314.0" font-size="12.5" fill="#a371f7">C# 1.97×</text>
<polyline points="64.0,355.2 367.0,307.1 670.0,292.2" fill="none" stroke="#f0883e" stroke-width="2.5" opacity="0.92"/>
<circle cx="64.0" cy="355.2" r="3" fill="#f0883e"/>
<circle cx="367.0" cy="307.1" r="3" fill="#f0883e"/>
<circle cx="670.0" cy="292.2" r="3" fill="#f0883e"/>
<text x="678" y="330.0" font-size="12.5" fill="#f0883e">Perl 1.92×</text>
<polyline points="64.0,355.2 367.0,290.7 670.0,292.5" fill="none" stroke="#3fb950" stroke-width="2.5" opacity="0.92"/>
<circle cx="64.0" cy="355.2" r="3" fill="#3fb950"/>
<circle cx="367.0" cy="290.7" r="3" fill="#3fb950"/>
<circle cx="670.0" cy="292.5" r="3" fill="#3fb950"/>
<text x="678" y="346.0" font-size="12.5" fill="#3fb950">Rust 1.91×</text>
<polyline points="64.0,355.2 367.0,315.4 670.0,292.8" fill="none" stroke="#f0883e" stroke-width="2.5" opacity="0.92"/>
<circle cx="64.0" cy="355.2" r="3" fill="#f0883e"/>
<circle cx="367.0" cy="315.4" r="3" fill="#f0883e"/>
<circle cx="670.0" cy="292.8" r="3" fill="#f0883e"/>
<text x="678" y="362.0" font-size="12.5" fill="#f0883e">Python 1.91×</text>
<polyline points="64.0,355.2 367.0,298.3 670.0,294.9" fill="none" stroke="#a371f7" stroke-width="2.5" opacity="0.92"/>
<circle cx="64.0" cy="355.2" r="3" fill="#a371f7"/>
<circle cx="367.0" cy="298.3" r="3" fill="#a371f7"/>
<circle cx="670.0" cy="294.9" r="3" fill="#a371f7"/>
<text x="678" y="378.0" font-size="12.5" fill="#a371f7">Scala 1.88×</text>
<polyline points="64.0,355.2 367.0,315.6 670.0,297.2" fill="none" stroke="#a371f7" stroke-width="2.5" opacity="0.92"/>
<circle cx="64.0" cy="355.2" r="3" fill="#a371f7"/>
<circle cx="367.0" cy="315.6" r="3" fill="#a371f7"/>
<circle cx="670.0" cy="297.2" r="3" fill="#a371f7"/>
<text x="678" y="394.0" font-size="12.5" fill="#a371f7">Kotlin 1.84×</text>
<polyline points="64.0,355.2 367.0,299.7 670.0,299.7" fill="none" stroke="#f0883e" stroke-width="2.5" opacity="0.92"/>
<circle cx="64.0" cy="355.2" r="3" fill="#f0883e"/>
<circle cx="367.0" cy="299.7" r="3" fill="#f0883e"/>
<circle cx="670.0" cy="299.7" r="3" fill="#f0883e"/>
<text x="678" y="410.0" font-size="12.5" fill="#f0883e">PHP 1.81×</text>
<polyline points="64.0,355.2 367.0,315.0 670.0,300.0" fill="none" stroke="#3fb950" stroke-width="2.5" opacity="0.92"/>
<circle cx="64.0" cy="355.2" r="3" fill="#3fb950"/>
<circle cx="367.0" cy="315.0" r="3" fill="#3fb950"/>
<circle cx="670.0" cy="300.0" r="3" fill="#3fb950"/>
<text x="678" y="426.0" font-size="12.5" fill="#3fb950">Swift 1.80×</text>
</svg>