<svg xmlns="http://www.w3.org/2000/svg" width="760" height="622" viewBox="0 0 760 622" font-family="ui-sans-serif,system-ui,Segoe UI,Helvetica,Arial">
<rect width="760" height="622" rx="10" fill="#0d1117"/>
<text x="22" y="34" font-size="19" font-weight="700" fill="#e6edf3">k-means:instructions at n=8000</text>
<text x="22" y="56" font-size="13" fill="#9aa7b4">absolute count · qemu+insn · x86_64 · log scale · less = more efficient</text>
<text x="120" y="97" text-anchor="end" font-size="14" fill="#9aa7b4">Rust</text>
<rect x="132" y="81" width="18.4" height="24" rx="5" fill="#3fb950"/>
<text x="159.4" y="98" font-size="13" fill="#e6edf3">43.82M</text>
<text x="120" y="137" text-anchor="end" font-size="14" fill="#9aa7b4">C</text>
<rect x="132" y="121" width="39.7" height="24" rx="5" fill="#3fb950"/>
<text x="180.7" y="138" font-size="13" fill="#e6edf3">56.70M</text>
<text x="120" y="177" text-anchor="end" font-size="14" fill="#9aa7b4">Go</text>
<rect x="132" y="161" width="82.7" height="24" rx="5" fill="#3fb950"/>
<text x="223.7" y="178" font-size="13" fill="#e6edf3">95.47M</text>
<text x="120" y="217" text-anchor="end" font-size="14" fill="#9aa7b4">Swift</text>
<rect x="132" y="201" width="119.7" height="24" rx="5" fill="#3fb950"/>
<text x="260.7" y="218" font-size="13" fill="#e6edf3">149.52M</text>
<text x="120" y="257" text-anchor="end" font-size="14" fill="#9aa7b4">C#</text>
<rect x="132" y="241" width="177.8" height="24" rx="5" fill="#a371f7"/>
<text x="318.8" y="258" font-size="13" fill="#e6edf3">302.57M</text>
<text x="120" y="297" text-anchor="end" font-size="14" fill="#9aa7b4">Kotlin</text>
<rect x="132" y="281" width="227.9" height="24" rx="5" fill="#a371f7"/>
<text x="368.9" y="298" font-size="13" fill="#e6edf3">555.37M</text>
<text x="120" y="337" text-anchor="end" font-size="14" fill="#9aa7b4">Scala</text>
<rect x="132" y="321" width="289.0" height="24" rx="5" fill="#a371f7"/>
<text x="430.0" y="338" font-size="13" fill="#e6edf3">1.16B</text>
<text x="120" y="377" text-anchor="end" font-size="14" fill="#9aa7b4">PHP</text>
<rect x="132" y="361" width="353.7" height="24" rx="5" fill="#f0883e"/>
<text x="494.7" y="378" font-size="13" fill="#e6edf3">2.55B</text>
<text x="120" y="417" text-anchor="end" font-size="14" fill="#9aa7b4">Elixir</text>
<rect x="132" y="401" width="399.4" height="24" rx="5" fill="#a371f7"/>
<text x="540.4" y="418" font-size="13" fill="#e6edf3">4.44B</text>
<text x="120" y="457" text-anchor="end" font-size="14" fill="#9aa7b4">Ruby</text>
<rect x="132" y="441" width="405.2" height="24" rx="5" fill="#f0883e"/>
<text x="546.2" y="458" font-size="13" fill="#e6edf3">4.76B</text>
<text x="120" y="497" text-anchor="end" font-size="14" fill="#9aa7b4">Python</text>
<rect x="132" y="481" width="466.1" height="24" rx="5" fill="#f0883e"/>
<text x="607.1" y="498" font-size="13" fill="#e6edf3">9.96B</text>
<text x="120" y="537" text-anchor="end" font-size="14" fill="#9aa7b4">Perl</text>
<rect x="132" y="521" width="475.8" height="24" rx="5" fill="#f0883e"/>
<text x="616.8" y="538" font-size="13" fill="#e6edf3">11.21B</text>
<text x="120" y="577" text-anchor="end" font-size="14" fill="#9aa7b4">COBOL</text>
<rect x="132" y="561" width="532.0" height="24" rx="5" fill="#3fb950"/>
<text x="673.0" y="578" font-size="13" fill="#e6edf3">22.14B</text>
</svg>