<svg xmlns="http://www.w3.org/2000/svg" width="760" height="582" viewBox="0 0 760 582" font-family="ui-sans-serif,system-ui,Segoe UI,Helvetica,Arial">
<rect width="760" height="582" rx="10" fill="#0d1117"/>
<text x="22" y="34" font-size="19" font-weight="700" fill="#e6edf3">k-means:instructions at n=8000</text>
<text x="22" y="56" font-size="13" fill="#9aa7b4">absolute count · qemu+insn · arm64 · log scale · less = more efficient</text>
<text x="120" y="97" text-anchor="end" font-size="14" fill="#9aa7b4">Rust</text>
<rect x="132" y="81" width="19.6" height="24" rx="5" fill="#3fb950"/>
<text x="160.6" y="98" font-size="13" fill="#e6edf3">34.95M</text>
<text x="120" y="137" text-anchor="end" font-size="14" fill="#9aa7b4">C</text>
<rect x="132" y="121" width="65.4" height="24" rx="5" fill="#3fb950"/>
<text x="206.4" y="138" font-size="13" fill="#e6edf3">58.89M</text>
<text x="120" y="177" text-anchor="end" font-size="14" fill="#9aa7b4">Go</text>
<rect x="132" y="161" width="110.9" height="24" rx="5" fill="#3fb950"/>
<text x="251.9" y="178" font-size="13" fill="#e6edf3">98.90M</text>
<text x="120" y="217" text-anchor="end" font-size="14" fill="#9aa7b4">Swift</text>
<rect x="132" y="201" width="152.0" height="24" rx="5" fill="#3fb950"/>
<text x="293.0" y="218" font-size="13" fill="#e6edf3">157.96M</text>
<text x="120" y="257" text-anchor="end" font-size="14" fill="#9aa7b4">C#</text>
<rect x="132" y="241" width="209.0" height="24" rx="5" fill="#a371f7"/>
<text x="350.0" y="258" font-size="13" fill="#e6edf3">302.13M</text>
<text x="120" y="297" text-anchor="end" font-size="14" fill="#9aa7b4">Kotlin</text>
<rect x="132" y="281" width="266.3" height="24" rx="5" fill="#a371f7"/>
<text x="407.3" y="298" font-size="13" fill="#e6edf3">580.56M</text>
<text x="120" y="337" text-anchor="end" font-size="14" fill="#9aa7b4">Scala</text>
<rect x="132" y="321" width="309.0" height="24" rx="5" fill="#a371f7"/>
<text x="450.0" y="338" font-size="13" fill="#e6edf3">943.21M</text>
<text x="120" y="377" text-anchor="end" font-size="14" fill="#9aa7b4">PHP</text>
<rect x="132" y="361" width="404.8" height="24" rx="5" fill="#f0883e"/>
<text x="545.8" y="378" font-size="13" fill="#e6edf3">2.81B</text>
<text x="120" y="417" text-anchor="end" font-size="14" fill="#9aa7b4">Elixir</text>
<rect x="132" y="401" width="444.8" height="24" rx="5" fill="#a371f7"/>
<text x="585.8" y="418" font-size="13" fill="#e6edf3">4.43B</text>
<text x="120" y="457" text-anchor="end" font-size="14" fill="#9aa7b4">Ruby</text>
<rect x="132" y="441" width="465.9" height="24" rx="5" fill="#f0883e"/>
<text x="606.9" y="458" font-size="13" fill="#e6edf3">5.64B</text>
<text x="120" y="497" text-anchor="end" font-size="14" fill="#9aa7b4">Python</text>
<rect x="132" y="481" width="505.1" height="24" rx="5" fill="#f0883e"/>
<text x="646.1" y="498" font-size="13" fill="#e6edf3">8.81B</text>
<text x="120" y="537" text-anchor="end" font-size="14" fill="#9aa7b4">Perl</text>
<rect x="132" y="521" width="532.0" height="24" rx="5" fill="#f0883e"/>
<text x="673.0" y="538" font-size="13" fill="#e6edf3">11.96B</text>
</svg>