<svg xmlns="http://www.w3.org/2000/svg" width="760" height="582" viewBox="0 0 760 582" font-family="ui-sans-serif,system-ui,Segoe UI,Helvetica,Arial">
<rect width="760" height="582" rx="10" fill="#0d1117"/>
<text x="22" y="34" font-size="19" font-weight="700" fill="#e6edf3">k-nucleotide:relative real work (I(200000)−I(100000), C = 1.0×)</text>
<text x="22" y="56" font-size="13" fill="#9aa7b4">differential cancels startup + JIT · qemu+insn · x86_64 · the fair metric</text>
<text x="120" y="97" text-anchor="end" font-size="14" fill="#9aa7b4">C</text>
<rect x="132" y="81" width="13.1" height="24" rx="5" fill="#3fb950"/>
<text x="154.1" y="98" font-size="13" fill="#e6edf3">1.00×</text>
<text x="120" y="137" text-anchor="end" font-size="14" fill="#9aa7b4">Rust</text>
<rect x="132" y="121" width="77.6" height="24" rx="5" fill="#3fb950"/>
<text x="218.6" y="138" font-size="13" fill="#e6edf3">3.00×</text>
<text x="120" y="177" text-anchor="end" font-size="14" fill="#9aa7b4">Go</text>
<rect x="132" y="161" width="98.8" height="24" rx="5" fill="#3fb950"/>
<text x="239.8" y="178" font-size="13" fill="#e6edf3">4.31×</text>
<text x="120" y="217" text-anchor="end" font-size="14" fill="#9aa7b4">Swift</text>
<rect x="132" y="201" width="143.0" height="24" rx="5" fill="#3fb950"/>
<text x="284.0" y="218" font-size="13" fill="#e6edf3">9.16×</text>
<text x="120" y="257" text-anchor="end" font-size="14" fill="#9aa7b4">PHP</text>
<rect x="132" y="241" width="162.9" height="24" rx="5" fill="#f0883e"/>
<text x="303.9" y="258" font-size="13" fill="#e6edf3">12.87×</text>
<text x="120" y="297" text-anchor="end" font-size="14" fill="#9aa7b4">Scala</text>
<rect x="132" y="281" width="191.7" height="24" rx="5" fill="#a371f7"/>
<text x="332.7" y="298" font-size="13" fill="#e6edf3">21.04×</text>
<text x="120" y="337" text-anchor="end" font-size="14" fill="#9aa7b4">Kotlin</text>
<rect x="132" y="321" width="209.5" height="24" rx="5" fill="#a371f7"/>
<text x="350.5" y="338" font-size="13" fill="#e6edf3">28.46×</text>
<text x="120" y="377" text-anchor="end" font-size="14" fill="#9aa7b4">Perl</text>
<rect x="132" y="361" width="211.6" height="24" rx="5" fill="#f0883e"/>
<text x="352.6" y="378" font-size="13" fill="#e6edf3">29.52×</text>
<text x="120" y="417" text-anchor="end" font-size="14" fill="#9aa7b4">Elixir</text>
<rect x="132" y="401" width="225.9" height="24" rx="5" fill="#a371f7"/>
<text x="366.9" y="418" font-size="13" fill="#e6edf3">37.68×</text>
<text x="120" y="457" text-anchor="end" font-size="14" fill="#9aa7b4">Python</text>
<rect x="132" y="441" width="242.4" height="24" rx="5" fill="#f0883e"/>
<text x="383.4" y="458" font-size="13" fill="#e6edf3">49.92×</text>
<text x="120" y="497" text-anchor="end" font-size="14" fill="#9aa7b4">Ruby</text>
<rect x="132" y="481" width="432.3" height="24" rx="5" fill="#f0883e"/>
<text x="573.3" y="498" font-size="13" fill="#e6edf3">1272.29×</text>
<text x="120" y="537" text-anchor="end" font-size="14" fill="#9aa7b4">COBOL</text>
<rect x="132" y="521" width="532.0" height="24" rx="5" fill="#3fb950"/>
<text x="673.0" y="538" font-size="13" fill="#e6edf3">6961.43×</text>
</svg>