<svg xmlns="http://www.w3.org/2000/svg" width="760" height="582" viewBox="0 0 760 582" font-family="ui-sans-serif,system-ui,Segoe UI,Helvetica,Arial">
<rect width="760" height="582" rx="10" fill="#0d1117"/>
<text x="22" y="34" font-size="19" font-weight="700" fill="#e6edf3">k-nucleotide:instructions at n=100000</text>
<text x="22" y="56" font-size="13" fill="#9aa7b4">absolute count · qemu+insn · x86_64 · log scale</text>
<text x="120" y="97" text-anchor="end" font-size="14" fill="#9aa7b4">C</text>
<rect x="132" y="81" width="13.9" height="24" rx="5" fill="#3fb950"/>
<text x="154.9" y="98" font-size="13" fill="#e6edf3">15.49M</text>
<text x="120" y="137" text-anchor="end" font-size="14" fill="#9aa7b4">Rust</text>
<rect x="132" y="121" width="81.9" height="24" rx="5" fill="#3fb950"/>
<text x="222.9" y="138" font-size="13" fill="#e6edf3">46.31M</text>
<text x="120" y="177" text-anchor="end" font-size="14" fill="#9aa7b4">Go</text>
<rect x="132" y="161" width="102.4" height="24" rx="5" fill="#3fb950"/>
<text x="243.4" y="178" font-size="13" fill="#e6edf3">64.47M</text>
<text x="120" y="217" text-anchor="end" font-size="14" fill="#9aa7b4">Swift</text>
<rect x="132" y="201" width="142.7" height="24" rx="5" fill="#3fb950"/>
<text x="283.7" y="218" font-size="13" fill="#e6edf3">123.22M</text>
<text x="120" y="257" text-anchor="end" font-size="14" fill="#9aa7b4">PHP</text>
<rect x="132" y="241" width="195.9" height="24" rx="5" fill="#f0883e"/>
<text x="336.9" y="258" font-size="13" fill="#e6edf3">290.09M</text>
<text x="120" y="297" text-anchor="end" font-size="14" fill="#9aa7b4">Kotlin</text>
<rect x="132" y="281" width="240.7" height="24" rx="5" fill="#a371f7"/>
<text x="381.7" y="298" font-size="13" fill="#e6edf3">597.03M</text>
<text x="120" y="337" text-anchor="end" font-size="14" fill="#9aa7b4">Python</text>
<rect x="132" y="321" width="259.3" height="24" rx="5" fill="#f0883e"/>
<text x="400.3" y="338" font-size="13" fill="#e6edf3">806.36M</text>
<text x="120" y="377" text-anchor="end" font-size="14" fill="#9aa7b4">Perl</text>
<rect x="132" y="361" width="259.4" height="24" rx="5" fill="#f0883e"/>
<text x="400.4" y="378" font-size="13" fill="#e6edf3">807.61M</text>
<text x="120" y="417" text-anchor="end" font-size="14" fill="#9aa7b4">Scala</text>
<rect x="132" y="401" width="282.3" height="24" rx="5" fill="#a371f7"/>
<text x="423.3" y="418" font-size="13" fill="#e6edf3">1.17B</text>
<text x="120" y="457" text-anchor="end" font-size="14" fill="#9aa7b4">Elixir</text>
<rect x="132" y="441" width="327.8" height="24" rx="5" fill="#a371f7"/>
<text x="468.8" y="458" font-size="13" fill="#e6edf3">2.43B</text>
<text x="120" y="497" text-anchor="end" font-size="14" fill="#9aa7b4">Ruby</text>
<rect x="132" y="481" width="375.1" height="24" rx="5" fill="#f0883e"/>
<text x="516.1" y="498" font-size="13" fill="#e6edf3">5.20B</text>
<text x="120" y="537" text-anchor="end" font-size="14" fill="#9aa7b4">COBOL</text>
<rect x="132" y="521" width="532.0" height="24" rx="5" fill="#3fb950"/>
<text x="673.0" y="538" font-size="13" fill="#e6edf3">65.02B</text>
</svg>