<svg xmlns="http://www.w3.org/2000/svg" width="760" height="582" viewBox="0 0 760 582" font-family="ui-sans-serif,system-ui,Segoe UI,Helvetica,Arial">
<rect width="760" height="582" rx="10" fill="#0d1117"/>
<text x="22" y="34" font-size="19" font-weight="700" fill="#e6edf3">k-nucleotide:instructions at n=100000</text>
<text x="22" y="56" font-size="13" fill="#9aa7b4">absolute count · qemu+insn · arm64 · log scale</text>
<text x="120" y="97" text-anchor="end" font-size="14" fill="#9aa7b4">C</text>
<rect x="132" y="81" width="19.2" height="24" rx="5" fill="#3fb950"/>
<text x="160.2" y="98" font-size="13" fill="#e6edf3">13.61M</text>
<text x="120" y="137" text-anchor="end" font-size="14" fill="#9aa7b4">Rust</text>
<rect x="132" y="121" width="106.2" height="24" rx="5" fill="#3fb950"/>
<text x="247.2" y="138" font-size="13" fill="#e6edf3">37.45M</text>
<text x="120" y="177" text-anchor="end" font-size="14" fill="#9aa7b4">Go</text>
<rect x="132" y="161" width="152.6" height="24" rx="5" fill="#3fb950"/>
<text x="293.6" y="178" font-size="13" fill="#e6edf3">64.24M</text>
<text x="120" y="217" text-anchor="end" font-size="14" fill="#9aa7b4">Swift</text>
<rect x="132" y="201" width="200.7" height="24" rx="5" fill="#3fb950"/>
<text x="341.7" y="218" font-size="13" fill="#e6edf3">112.35M</text>
<text x="120" y="257" text-anchor="end" font-size="14" fill="#9aa7b4">C#</text>
<rect x="132" y="241" width="283.0" height="24" rx="5" fill="#a371f7"/>
<text x="424.0" y="258" font-size="13" fill="#e6edf3">292.37M</text>
<text x="120" y="297" text-anchor="end" font-size="14" fill="#9aa7b4">PHP</text>
<rect x="132" y="281" width="290.4" height="24" rx="5" fill="#f0883e"/>
<text x="431.4" y="298" font-size="13" fill="#e6edf3">318.63M</text>
<text x="120" y="337" text-anchor="end" font-size="14" fill="#9aa7b4">Kotlin</text>
<rect x="132" y="321" width="329.7" height="24" rx="5" fill="#a371f7"/>
<text x="470.7" y="338" font-size="13" fill="#e6edf3">503.36M</text>
<text x="120" y="377" text-anchor="end" font-size="14" fill="#9aa7b4">Python</text>
<rect x="132" y="361" width="359.2" height="24" rx="5" fill="#f0883e"/>
<text x="500.2" y="378" font-size="13" fill="#e6edf3">709.74M</text>
<text x="120" y="417" text-anchor="end" font-size="14" fill="#9aa7b4">Perl</text>
<rect x="132" y="401" width="377.8" height="24" rx="5" fill="#f0883e"/>
<text x="518.8" y="418" font-size="13" fill="#e6edf3">881.31M</text>
<text x="120" y="457" text-anchor="end" font-size="14" fill="#9aa7b4">Scala</text>
<rect x="132" y="441" width="389.3" height="24" rx="5" fill="#a371f7"/>
<text x="530.3" y="458" font-size="13" fill="#e6edf3">1.01B</text>
<text x="120" y="497" text-anchor="end" font-size="14" fill="#9aa7b4">Elixir</text>
<rect x="132" y="481" width="464.4" height="24" rx="5" fill="#a371f7"/>
<text x="605.4" y="498" font-size="13" fill="#e6edf3">2.41B</text>
<text x="120" y="537" text-anchor="end" font-size="14" fill="#9aa7b4">Ruby</text>
<rect x="132" y="521" width="532.0" height="24" rx="5" fill="#f0883e"/>
<text x="673.0" y="538" font-size="13" fill="#e6edf3">5.29B</text>
</svg>