<svg xmlns="http://www.w3.org/2000/svg" width="760" height="582" viewBox="0 0 760 582" font-family="ui-sans-serif,system-ui,Segoe UI,Helvetica,Arial">
<rect width="760" height="582" rx="10" fill="#0d1117"/>
<text x="22" y="34" font-size="19" font-weight="700" fill="#e6edf3">k-nucleotide:instructions at n=200000</text>
<text x="22" y="56" font-size="13" fill="#9aa7b4">absolute count · qemu+insn · x86_64 · log scale · less = more efficient</text>
<text x="120" y="97" text-anchor="end" font-size="14" fill="#9aa7b4">C</text>
<rect x="132" y="81" width="13.5" height="24" rx="5" fill="#3fb950"/>
<text x="154.5" y="98" font-size="13" fill="#e6edf3">24.76M</text>
<text x="120" y="137" text-anchor="end" font-size="14" fill="#9aa7b4">Rust</text>
<rect x="132" y="121" width="79.9" height="24" rx="5" fill="#3fb950"/>
<text x="220.9" y="138" font-size="13" fill="#e6edf3">74.16M</text>
<text x="120" y="177" text-anchor="end" font-size="14" fill="#9aa7b4">Go</text>
<rect x="132" y="161" width="100.7" height="24" rx="5" fill="#3fb950"/>
<text x="241.7" y="178" font-size="13" fill="#e6edf3">104.45M</text>
<text x="120" y="217" text-anchor="end" font-size="14" fill="#9aa7b4">Swift</text>
<rect x="132" y="201" width="142.4" height="24" rx="5" fill="#3fb950"/>
<text x="283.4" y="218" font-size="13" fill="#e6edf3">208.10M</text>
<text x="120" y="257" text-anchor="end" font-size="14" fill="#9aa7b4">PHP</text>
<rect x="132" y="241" width="183.4" height="24" rx="5" fill="#f0883e"/>
<text x="324.4" y="258" font-size="13" fill="#e6edf3">409.44M</text>
<text x="120" y="297" text-anchor="end" font-size="14" fill="#9aa7b4">Kotlin</text>
<rect x="132" y="281" width="228.4" height="24" rx="5" fill="#a371f7"/>
<text x="369.4" y="298" font-size="13" fill="#e6edf3">860.85M</text>
<text x="120" y="337" text-anchor="end" font-size="14" fill="#9aa7b4">Perl</text>
<rect x="132" y="321" width="242.2" height="24" rx="5" fill="#f0883e"/>
<text x="383.2" y="338" font-size="13" fill="#e6edf3">1.08B</text>
<text x="120" y="377" text-anchor="end" font-size="14" fill="#9aa7b4">Python</text>
<rect x="132" y="361" width="251.9" height="24" rx="5" fill="#f0883e"/>
<text x="392.9" y="378" font-size="13" fill="#e6edf3">1.27B</text>
<text x="120" y="417" text-anchor="end" font-size="14" fill="#9aa7b4">Scala</text>
<rect x="132" y="401" width="256.2" height="24" rx="5" fill="#a371f7"/>
<text x="397.2" y="418" font-size="13" fill="#e6edf3">1.36B</text>
<text x="120" y="457" text-anchor="end" font-size="14" fill="#9aa7b4">Elixir</text>
<rect x="132" y="441" width="299.3" height="24" rx="5" fill="#a371f7"/>
<text x="440.3" y="458" font-size="13" fill="#e6edf3">2.78B</text>
<text x="120" y="497" text-anchor="end" font-size="14" fill="#9aa7b4">Ruby</text>
<rect x="132" y="481" width="409.0" height="24" rx="5" fill="#f0883e"/>
<text x="550.0" y="498" font-size="13" fill="#e6edf3">17.00B</text>
<text x="120" y="537" text-anchor="end" font-size="14" fill="#9aa7b4">COBOL</text>
<rect x="132" y="521" width="532.0" height="24" rx="5" fill="#3fb950"/>
<text x="673.0" y="538" font-size="13" fill="#e6edf3">129.56B</text>
</svg>