<svg xmlns="http://www.w3.org/2000/svg" width="760" height="662" viewBox="0 0 760 662" font-family="ui-sans-serif,system-ui,Segoe UI,Helvetica,Arial">
<rect width="760" height="662" rx="10" fill="#0d1117"/>
<text x="22" y="34" font-size="19" font-weight="700" fill="#e6edf3">k-nucleotide:instructions at n=200000</text>
<text x="22" y="56" font-size="13" fill="#9aa7b4">absolute count · qemu+insn · arm64 · log scale · less = more efficient</text>
<text x="120" y="97" text-anchor="end" font-size="14" fill="#9aa7b4">C</text>
<rect x="132" y="81" width="23.5" height="24" rx="5" fill="#3fb950"/>
<text x="164.5" y="98" font-size="13" fill="#e6edf3">21.84M</text>
<text x="120" y="137" text-anchor="end" font-size="14" fill="#9aa7b4">Rust</text>
<rect x="132" y="121" width="129.7" height="24" rx="5" fill="#3fb950"/>
<text x="270.7" y="138" font-size="13" fill="#e6edf3">59.95M</text>
<text x="120" y="177" text-anchor="end" font-size="14" fill="#9aa7b4">Go</text>
<rect x="132" y="161" width="197.5" height="24" rx="5" fill="#3fb950"/>
<text x="338.5" y="178" font-size="13" fill="#e6edf3">114.12M</text>
<text x="120" y="217" text-anchor="end" font-size="14" fill="#9aa7b4">Swift</text>
<rect x="132" y="201" width="252.3" height="24" rx="5" fill="#3fb950"/>
<text x="393.3" y="218" font-size="13" fill="#e6edf3">191.98M</text>
<text x="120" y="257" text-anchor="end" font-size="14" fill="#9aa7b4">C#</text>
<rect x="132" y="241" width="322.0" height="24" rx="5" fill="#a371f7"/>
<text x="463.0" y="258" font-size="13" fill="#e6edf3">372.51M</text>
<text x="120" y="297" text-anchor="end" font-size="14" fill="#9aa7b4">PHP</text>
<rect x="132" y="281" width="342.0" height="24" rx="5" fill="#f0883e"/>
<text x="483.0" y="298" font-size="13" fill="#e6edf3">450.56M</text>
<text x="120" y="337" text-anchor="end" font-size="14" fill="#9aa7b4">JavaScript</text>
<rect x="132" y="321" width="364.8" height="24" rx="5" fill="#a371f7"/>
<text x="505.8" y="338" font-size="13" fill="#e6edf3">559.54M</text>
<text x="120" y="377" text-anchor="end" font-size="14" fill="#9aa7b4">Kotlin</text>
<rect x="132" y="361" width="369.6" height="24" rx="5" fill="#a371f7"/>
<text x="510.6" y="378" font-size="13" fill="#e6edf3">585.53M</text>
<text x="120" y="417" text-anchor="end" font-size="14" fill="#9aa7b4">Java</text>
<rect x="132" y="401" width="385.6" height="24" rx="5" fill="#a371f7"/>
<text x="526.6" y="418" font-size="13" fill="#e6edf3">681.52M</text>
<text x="120" y="457" text-anchor="end" font-size="14" fill="#9aa7b4">Scala</text>
<rect x="132" y="441" width="435.4" height="24" rx="5" fill="#a371f7"/>
<text x="576.4" y="458" font-size="13" fill="#e6edf3">1.09B</text>
<text x="120" y="497" text-anchor="end" font-size="14" fill="#9aa7b4">Python</text>
<rect x="132" y="481" width="437.9" height="24" rx="5" fill="#f0883e"/>
<text x="578.9" y="498" font-size="13" fill="#e6edf3">1.12B</text>
<text x="120" y="537" text-anchor="end" font-size="14" fill="#9aa7b4">Perl</text>
<rect x="132" y="521" width="443.5" height="24" rx="5" fill="#f0883e"/>
<text x="584.5" y="538" font-size="13" fill="#e6edf3">1.18B</text>
<text x="120" y="577" text-anchor="end" font-size="14" fill="#9aa7b4">Ruby</text>
<rect x="132" y="561" width="494.3" height="24" rx="5" fill="#f0883e"/>
<text x="635.3" y="578" font-size="13" fill="#e6edf3">1.91B</text>
<text x="120" y="617" text-anchor="end" font-size="14" fill="#9aa7b4">Elixir</text>
<rect x="132" y="601" width="532.0" height="24" rx="5" fill="#a371f7"/>
<text x="673.0" y="618" font-size="13" fill="#e6edf3">2.74B</text>
</svg>