<svg xmlns="http://www.w3.org/2000/svg" width="760" height="622" viewBox="0 0 760 622" font-family="ui-sans-serif,system-ui,Segoe UI,Helvetica,Arial">
<rect width="760" height="622" rx="10" fill="#0d1117"/>
<text x="22" y="34" font-size="19" font-weight="700" fill="#e6edf3">lz77:relative real work (I(24000)−I(6000), C = 1.0×)</text>
<text x="22" y="56" font-size="13" fill="#9aa7b4">differential cancels startup + JIT · qemu+insn · x86_64 · the fair metric</text>
<text x="120" y="97" text-anchor="end" font-size="14" fill="#9aa7b4">C</text>
<rect x="132" y="81" width="2.5" height="24" rx="5" fill="#3fb950"/>
<text x="143.5" y="98" font-size="13" fill="#e6edf3">1.00×</text>
<text x="120" y="137" text-anchor="end" font-size="14" fill="#9aa7b4">Swift</text>
<rect x="132" y="121" width="3.3" height="24" rx="5" fill="#3fb950"/>
<text x="144.3" y="138" font-size="13" fill="#e6edf3">1.31×</text>
<text x="120" y="177" text-anchor="end" font-size="14" fill="#9aa7b4">C#</text>
<rect x="132" y="161" width="3.6" height="24" rx="5" fill="#a371f7"/>
<text x="144.6" y="178" font-size="13" fill="#e6edf3">1.46×</text>
<text x="120" y="217" text-anchor="end" font-size="14" fill="#9aa7b4">Go</text>
<rect x="132" y="201" width="4.4" height="24" rx="5" fill="#3fb950"/>
<text x="145.4" y="218" font-size="13" fill="#e6edf3">1.75×</text>
<text x="120" y="257" text-anchor="end" font-size="14" fill="#9aa7b4">Rust</text>
<rect x="132" y="241" width="4.5" height="24" rx="5" fill="#3fb950"/>
<text x="145.5" y="258" font-size="13" fill="#e6edf3">1.80×</text>
<text x="120" y="297" text-anchor="end" font-size="14" fill="#9aa7b4">Kotlin</text>
<rect x="132" y="281" width="12.0" height="24" rx="5" fill="#a371f7"/>
<text x="153.0" y="298" font-size="13" fill="#e6edf3">4.80×</text>
<text x="120" y="337" text-anchor="end" font-size="14" fill="#9aa7b4">Scala</text>
<rect x="132" y="321" width="12.3" height="24" rx="5" fill="#a371f7"/>
<text x="153.3" y="338" font-size="13" fill="#e6edf3">4.96×</text>
<text x="120" y="377" text-anchor="end" font-size="14" fill="#9aa7b4">PHP</text>
<rect x="132" y="361" width="65.9" height="24" rx="5" fill="#f0883e"/>
<text x="206.9" y="378" font-size="13" fill="#e6edf3">26.44×</text>
<text x="120" y="417" text-anchor="end" font-size="14" fill="#9aa7b4">Elixir</text>
<rect x="132" y="401" width="69.4" height="24" rx="5" fill="#a371f7"/>
<text x="210.4" y="418" font-size="13" fill="#e6edf3">27.85×</text>
<text x="120" y="457" text-anchor="end" font-size="14" fill="#9aa7b4">Ruby</text>
<rect x="132" y="441" width="121.2" height="24" rx="5" fill="#f0883e"/>
<text x="262.2" y="458" font-size="13" fill="#e6edf3">48.64×</text>
<text x="120" y="497" text-anchor="end" font-size="14" fill="#9aa7b4">Perl</text>
<rect x="132" y="481" width="327.2" height="24" rx="5" fill="#f0883e"/>
<text x="468.2" y="498" font-size="13" fill="#e6edf3">131.36×</text>
<text x="120" y="537" text-anchor="end" font-size="14" fill="#9aa7b4">Python</text>
<rect x="132" y="521" width="361.1" height="24" rx="5" fill="#f0883e"/>
<text x="502.1" y="538" font-size="13" fill="#e6edf3">144.98×</text>
<text x="120" y="577" text-anchor="end" font-size="14" fill="#9aa7b4">COBOL</text>
<rect x="132" y="561" width="532.0" height="24" rx="5" fill="#3fb950"/>
<text x="673.0" y="578" font-size="13" fill="#e6edf3">213.59×</text>
</svg>