<svg xmlns="http://www.w3.org/2000/svg" width="760" height="582" viewBox="0 0 760 582" font-family="ui-sans-serif,system-ui,Segoe UI,Helvetica,Arial">
<rect width="760" height="582" rx="10" fill="#0d1117"/>
<text x="22" y="34" font-size="19" font-weight="700" fill="#e6edf3">mandelbrot:instructions at n=128</text>
<text x="22" y="56" font-size="13" fill="#9aa7b4">absolute count · qemu+insn · arm64 · log scale · less = more efficient</text>
<text x="120" y="97" text-anchor="end" font-size="14" fill="#9aa7b4">C</text>
<rect x="132" y="81" width="18.9" height="24" rx="5" fill="#3fb950"/>
<text x="159.9" y="98" font-size="13" fill="#e6edf3">4.73M</text>
<text x="120" y="137" text-anchor="end" font-size="14" fill="#9aa7b4">Rust</text>
<rect x="132" y="121" width="32.8" height="24" rx="5" fill="#3fb950"/>
<text x="173.8" y="138" font-size="13" fill="#e6edf3">5.58M</text>
<text x="120" y="177" text-anchor="end" font-size="14" fill="#9aa7b4">Go</text>
<rect x="132" y="161" width="42.4" height="24" rx="5" fill="#3fb950"/>
<text x="183.4" y="178" font-size="13" fill="#e6edf3">6.25M</text>
<text x="120" y="217" text-anchor="end" font-size="14" fill="#9aa7b4">Swift</text>
<rect x="132" y="201" width="125.7" height="24" rx="5" fill="#3fb950"/>
<text x="266.7" y="218" font-size="13" fill="#e6edf3">16.74M</text>
<text x="120" y="257" text-anchor="end" font-size="14" fill="#9aa7b4">PHP</text>
<rect x="132" y="241" width="332.2" height="24" rx="5" fill="#f0883e"/>
<text x="473.2" y="258" font-size="13" fill="#e6edf3">192.81M</text>
<text x="120" y="297" text-anchor="end" font-size="14" fill="#9aa7b4">Kotlin</text>
<rect x="132" y="281" width="332.5" height="24" rx="5" fill="#a371f7"/>
<text x="473.5" y="298" font-size="13" fill="#e6edf3">193.54M</text>
<text x="120" y="337" text-anchor="end" font-size="14" fill="#9aa7b4">C#</text>
<rect x="132" y="321" width="340.2" height="24" rx="5" fill="#a371f7"/>
<text x="481.2" y="338" font-size="13" fill="#e6edf3">212.08M</text>
<text x="120" y="377" text-anchor="end" font-size="14" fill="#9aa7b4">Python</text>
<rect x="132" y="361" width="430.9" height="24" rx="5" fill="#f0883e"/>
<text x="571.9" y="378" font-size="13" fill="#e6edf3">620.02M</text>
<text x="120" y="417" text-anchor="end" font-size="14" fill="#9aa7b4">Scala</text>
<rect x="132" y="401" width="437.4" height="24" rx="5" fill="#a371f7"/>
<text x="578.4" y="418" font-size="13" fill="#e6edf3">669.88M</text>
<text x="120" y="457" text-anchor="end" font-size="14" fill="#9aa7b4">Ruby</text>
<rect x="132" y="441" width="455.0" height="24" rx="5" fill="#f0883e"/>
<text x="596.0" y="458" font-size="13" fill="#e6edf3">825.53M</text>
<text x="120" y="497" text-anchor="end" font-size="14" fill="#9aa7b4">Perl</text>
<rect x="132" y="481" width="472.9" height="24" rx="5" fill="#f0883e"/>
<text x="613.9" y="498" font-size="13" fill="#e6edf3">1.02B</text>
<text x="120" y="537" text-anchor="end" font-size="14" fill="#9aa7b4">Elixir</text>
<rect x="132" y="521" width="532.0" height="24" rx="5" fill="#a371f7"/>
<text x="673.0" y="538" font-size="13" fill="#e6edf3">2.05B</text>
</svg>