<svg xmlns="http://www.w3.org/2000/svg" width="760" height="556" viewBox="0 0 760 556" font-family="ui-sans-serif,system-ui,Segoe UI,Helvetica,Arial">
<rect width="760" height="556" rx="10" fill="#0d1117"/>
<text x="22" y="34" font-size="19" font-weight="700" fill="#e6edf3">mandelbrot: speedup at 4 cores</text>
<text x="22" y="56" font-size="13" fill="#9aa7b4">wall-clock, compute region · x86_64 · higher is better, dashed = ideal 4×</text>
<line x1="664.0" y1="70" x2="664.0" y2="540" stroke="#9aa7b4" stroke-width="1.5" stroke-dasharray="5 4"/>
<text x="138" y="98" text-anchor="end" font-size="13.5" fill="#9aa7b4">PHP</text>
<rect x="150" y="82" width="273.6" height="23" rx="5" fill="#f0883e"/>
<text x="432.6" y="99" font-size="13" fill="#e6edf3">2.13×</text>
<text x="138" y="136" text-anchor="end" font-size="13.5" fill="#9aa7b4">Elixir</text>
<rect x="150" y="120" width="280.8" height="23" rx="5" fill="#a371f7"/>
<text x="439.8" y="137" font-size="13" fill="#e6edf3">2.19×</text>
<text x="138" y="174" text-anchor="end" font-size="13.5" fill="#9aa7b4">Python</text>
<rect x="150" y="158" width="280.8" height="23" rx="5" fill="#f0883e"/>
<text x="439.8" y="175" font-size="13" fill="#e6edf3">2.19×</text>
<text x="138" y="212" text-anchor="end" font-size="13.5" fill="#9aa7b4">Perl</text>
<rect x="150" y="196" width="281.9" height="23" rx="5" fill="#f0883e"/>
<text x="440.9" y="213" font-size="13" fill="#e6edf3">2.19×</text>
<text x="138" y="250" text-anchor="end" font-size="13.5" fill="#9aa7b4">Ruby</text>
<rect x="150" y="234" width="310.8" height="23" rx="5" fill="#f0883e"/>
<text x="469.8" y="251" font-size="13" fill="#e6edf3">2.42×</text>
<text x="138" y="288" text-anchor="end" font-size="13.5" fill="#9aa7b4">C</text>
<rect x="150" y="272" width="317.4" height="23" rx="5" fill="#3fb950"/>
<text x="476.4" y="289" font-size="13" fill="#e6edf3">2.47×</text>
<text x="138" y="326" text-anchor="end" font-size="13.5" fill="#9aa7b4">Go</text>
<rect x="150" y="310" width="321.0" height="23" rx="5" fill="#3fb950"/>
<text x="480.0" y="327" font-size="13" fill="#e6edf3">2.50×</text>
<text x="138" y="364" text-anchor="end" font-size="13.5" fill="#9aa7b4">Kotlin</text>
<rect x="150" y="348" width="321.1" height="23" rx="5" fill="#a371f7"/>
<text x="480.1" y="365" font-size="13" fill="#e6edf3">2.50×</text>
<text x="138" y="402" text-anchor="end" font-size="13.5" fill="#9aa7b4">Swift</text>
<rect x="150" y="386" width="321.2" height="23" rx="5" fill="#3fb950"/>
<text x="480.2" y="403" font-size="13" fill="#e6edf3">2.50×</text>
<text x="138" y="440" text-anchor="end" font-size="13.5" fill="#9aa7b4">C#</text>
<rect x="150" y="424" width="322.1" height="23" rx="5" fill="#a371f7"/>
<text x="481.1" y="441" font-size="13" fill="#e6edf3">2.51×</text>
<text x="138" y="478" text-anchor="end" font-size="13.5" fill="#9aa7b4">Scala</text>
<rect x="150" y="462" width="326.0" height="23" rx="5" fill="#a371f7"/>
<text x="485.0" y="479" font-size="13" fill="#e6edf3">2.54×</text>
<text x="138" y="516" text-anchor="end" font-size="13.5" fill="#9aa7b4">Rust</text>
<rect x="150" y="500" width="330.2" height="23" rx="5" fill="#3fb950"/>
<text x="489.2" y="517" font-size="13" fill="#e6edf3">2.57×</text>
</svg>