<svg xmlns="http://www.w3.org/2000/svg" width="760" height="622" viewBox="0 0 760 622" font-family="ui-sans-serif,system-ui,Segoe UI,Helvetica,Arial">
<rect width="760" height="622" rx="10" fill="#0d1117"/>
<text x="22" y="34" font-size="19" font-weight="700" fill="#e6edf3">mandelbrot:instructions at n=128</text>
<text x="22" y="56" font-size="13" fill="#9aa7b4">absolute count · qemu+insn · x86_64 · log scale</text>
<text x="120" y="97" text-anchor="end" font-size="14" fill="#9aa7b4">C</text>
<rect x="132" y="81" width="13.4" height="24" rx="5" fill="#3fb950"/>
<text x="154.4" y="98" font-size="13" fill="#e6edf3">6.76M</text>
<text x="120" y="137" text-anchor="end" font-size="14" fill="#9aa7b4">Rust</text>
<rect x="132" y="121" width="20.7" height="24" rx="5" fill="#3fb950"/>
<text x="161.7" y="138" font-size="13" fill="#e6edf3">7.64M</text>
<text x="120" y="177" text-anchor="end" font-size="14" fill="#9aa7b4">Go</text>
<rect x="132" y="161" width="25.9" height="24" rx="5" fill="#3fb950"/>
<text x="166.9" y="178" font-size="13" fill="#e6edf3">8.33M</text>
<text x="120" y="217" text-anchor="end" font-size="14" fill="#9aa7b4">Swift</text>
<rect x="132" y="201" width="81.3" height="24" rx="5" fill="#3fb950"/>
<text x="222.3" y="218" font-size="13" fill="#e6edf3">20.94M</text>
<text x="120" y="257" text-anchor="end" font-size="14" fill="#9aa7b4">PHP</text>
<rect x="132" y="241" width="210.8" height="24" rx="5" fill="#f0883e"/>
<text x="351.8" y="258" font-size="13" fill="#e6edf3">180.70M</text>
<text x="120" y="297" text-anchor="end" font-size="14" fill="#9aa7b4">Kotlin</text>
<rect x="132" y="281" width="213.4" height="24" rx="5" fill="#a371f7"/>
<text x="354.4" y="298" font-size="13" fill="#e6edf3">188.64M</text>
<text x="120" y="337" text-anchor="end" font-size="14" fill="#9aa7b4">C#</text>
<rect x="132" y="321" width="222.5" height="24" rx="5" fill="#a371f7"/>
<text x="363.5" y="338" font-size="13" fill="#e6edf3">219.83M</text>
<text x="120" y="377" text-anchor="end" font-size="14" fill="#9aa7b4">Python</text>
<rect x="132" y="361" width="293.3" height="24" rx="5" fill="#f0883e"/>
<text x="434.3" y="378" font-size="13" fill="#e6edf3">714.18M</text>
<text x="120" y="417" text-anchor="end" font-size="14" fill="#9aa7b4">Scala</text>
<rect x="132" y="401" width="293.5" height="24" rx="5" fill="#a371f7"/>
<text x="434.5" y="418" font-size="13" fill="#e6edf3">716.13M</text>
<text x="120" y="457" text-anchor="end" font-size="14" fill="#9aa7b4">Ruby</text>
<rect x="132" y="441" width="297.7" height="24" rx="5" fill="#f0883e"/>
<text x="438.7" y="458" font-size="13" fill="#e6edf3">767.92M</text>
<text x="120" y="497" text-anchor="end" font-size="14" fill="#9aa7b4">Perl</text>
<rect x="132" y="481" width="309.0" height="24" rx="5" fill="#f0883e"/>
<text x="450.0" y="498" font-size="13" fill="#e6edf3">926.76M</text>
<text x="120" y="537" text-anchor="end" font-size="14" fill="#9aa7b4">Elixir</text>
<rect x="132" y="521" width="355.9" height="24" rx="5" fill="#a371f7"/>
<text x="496.9" y="538" font-size="13" fill="#e6edf3">2.02B</text>
<text x="120" y="577" text-anchor="end" font-size="14" fill="#9aa7b4">COBOL</text>
<rect x="132" y="561" width="532.0" height="24" rx="5" fill="#3fb950"/>
<text x="673.0" y="578" font-size="13" fill="#e6edf3">37.94B</text>
</svg>