<svg xmlns="http://www.w3.org/2000/svg" width="760" height="622" viewBox="0 0 760 622" font-family="ui-sans-serif,system-ui,Segoe UI,Helvetica,Arial">
<rect width="760" height="622" rx="10" fill="#0d1117"/>
<text x="22" y="34" font-size="19" font-weight="700" fill="#e6edf3">mandelbrot:instructions at n=256</text>
<text x="22" y="56" font-size="13" fill="#9aa7b4">absolute count · qemu+insn · arm64 · log scale · less = more efficient</text>
<text x="120" y="97" text-anchor="end" font-size="14" fill="#9aa7b4">C</text>
<rect x="132" y="81" width="12.9" height="24" rx="5" fill="#3fb950"/>
<text x="153.9" y="98" font-size="13" fill="#e6edf3">18.65M</text>
<text x="120" y="137" text-anchor="end" font-size="14" fill="#9aa7b4">Rust</text>
<rect x="132" y="121" width="22.0" height="24" rx="5" fill="#3fb950"/>
<text x="163.0" y="138" font-size="13" fill="#e6edf3">21.83M</text>
<text x="120" y="177" text-anchor="end" font-size="14" fill="#9aa7b4">Go</text>
<rect x="132" y="161" width="27.9" height="24" rx="5" fill="#3fb950"/>
<text x="168.9" y="178" font-size="13" fill="#e6edf3">24.17M</text>
<text x="120" y="217" text-anchor="end" font-size="14" fill="#9aa7b4">Swift</text>
<rect x="132" y="201" width="46.0" height="24" rx="5" fill="#3fb950"/>
<text x="187.0" y="218" font-size="13" fill="#e6edf3">33.00M</text>
<text x="120" y="257" text-anchor="end" font-size="14" fill="#9aa7b4">Kotlin</text>
<rect x="132" y="241" width="153.4" height="24" rx="5" fill="#a371f7"/>
<text x="294.4" y="258" font-size="13" fill="#e6edf3">211.38M</text>
<text x="120" y="297" text-anchor="end" font-size="14" fill="#9aa7b4">C#</text>
<rect x="132" y="281" width="158.0" height="24" rx="5" fill="#a371f7"/>
<text x="299.0" y="298" font-size="13" fill="#e6edf3">228.70M</text>
<text x="120" y="337" text-anchor="end" font-size="14" fill="#9aa7b4">PHP</text>
<rect x="132" y="321" width="220.0" height="24" rx="5" fill="#f0883e"/>
<text x="361.0" y="338" font-size="13" fill="#e6edf3">667.45M</text>
<text x="120" y="377" text-anchor="end" font-size="14" fill="#9aa7b4">Scala</text>
<rect x="132" y="361" width="221.3" height="24" rx="5" fill="#a371f7"/>
<text x="362.3" y="378" font-size="13" fill="#e6edf3">683.35M</text>
<text x="120" y="417" text-anchor="end" font-size="14" fill="#9aa7b4">Elixir</text>
<rect x="132" y="401" width="291.9" height="24" rx="5" fill="#a371f7"/>
<text x="432.9" y="418" font-size="13" fill="#e6edf3">2.31B</text>
<text x="120" y="457" text-anchor="end" font-size="14" fill="#9aa7b4">Python</text>
<rect x="132" y="441" width="293.0" height="24" rx="5" fill="#f0883e"/>
<text x="434.0" y="458" font-size="13" fill="#e6edf3">2.36B</text>
<text x="120" y="497" text-anchor="end" font-size="14" fill="#9aa7b4">Ruby</text>
<rect x="132" y="481" width="295.4" height="24" rx="5" fill="#f0883e"/>
<text x="436.4" y="498" font-size="13" fill="#e6edf3">2.46B</text>
<text x="120" y="537" text-anchor="end" font-size="14" fill="#9aa7b4">Perl</text>
<rect x="132" y="521" width="324.2" height="24" rx="5" fill="#f0883e"/>
<text x="465.2" y="538" font-size="13" fill="#e6edf3">4.04B</text>
<text x="120" y="577" text-anchor="end" font-size="14" fill="#9aa7b4">COBOL</text>
<rect x="132" y="561" width="532.0" height="24" rx="5" fill="#3fb950"/>
<text x="673.0" y="578" font-size="13" fill="#e6edf3">146.41B</text>
</svg>