<svg xmlns="http://www.w3.org/2000/svg" width="820" height="470" viewBox="0 0 820 470" font-family="ui-sans-serif,system-ui,Segoe UI,Helvetica,Arial">
<rect width="820" height="470" rx="10" fill="#0d1117"/>
<text x="22" y="34" font-size="19" font-weight="700" fill="#e6edf3">mandelbrot: parallel speedup vs cores</text>
<text x="22" y="56" font-size="13" fill="#9aa7b4">wall-clock T1/TP of the compute region (startup excluded) · arm64 · higher is better, ideal = linear</text>
<line x1="64" y1="424.0" x2="670" y2="424.0" stroke="#21262d" stroke-width="1"/>
<text x="54" y="428.0" text-anchor="end" font-size="12" fill="#9aa7b4">0×</text>
<line x1="64" y1="355.2" x2="670" y2="355.2" stroke="#21262d" stroke-width="1"/>
<text x="54" y="359.2" text-anchor="end" font-size="12" fill="#9aa7b4">1×</text>
<line x1="64" y1="286.4" x2="670" y2="286.4" stroke="#21262d" stroke-width="1"/>
<text x="54" y="290.4" text-anchor="end" font-size="12" fill="#9aa7b4">2×</text>
<line x1="64" y1="217.6" x2="670" y2="217.6" stroke="#21262d" stroke-width="1"/>
<text x="54" y="221.6" text-anchor="end" font-size="12" fill="#9aa7b4">3×</text>
<line x1="64" y1="148.8" x2="670" y2="148.8" stroke="#21262d" stroke-width="1"/>
<text x="54" y="152.8" text-anchor="end" font-size="12" fill="#9aa7b4">4×</text>
<line x1="64" y1="80.0" x2="670" y2="80.0" stroke="#21262d" stroke-width="1"/>
<text x="54" y="84.0" text-anchor="end" font-size="12" fill="#9aa7b4">5×</text>
<text x="64.0" y="448.0" text-anchor="middle" font-size="13" fill="#9aa7b4">1 core</text>
<text x="367.0" y="448.0" text-anchor="middle" font-size="13" fill="#9aa7b4">2 cores</text>
<text x="670.0" y="448.0" text-anchor="middle" font-size="13" fill="#9aa7b4">4 cores</text>
<polyline points="64.0,355.2 367.0,286.4 670.0,148.8" fill="none" stroke="#9aa7b4" stroke-width="1.5" stroke-dasharray="5 4"/>
<text x="678.0" y="152.8" font-size="12" fill="#9aa7b4">ideal</text>
<polyline points="64.0,355.2 367.0,288.4 670.0,240.2" fill="none" stroke="#f0883e" stroke-width="2.5" opacity="0.92"/>
<circle cx="64.0" cy="355.2" r="3" fill="#f0883e"/>
<circle cx="367.0" cy="288.4" r="3" fill="#f0883e"/>
<circle cx="670.0" cy="240.2" r="3" fill="#f0883e"/>
<text x="678" y="244.2" font-size="12.5" fill="#f0883e">Perl 2.67×</text>
<polyline points="64.0,355.2 367.0,292.8 670.0,247.9" fill="none" stroke="#a371f7" stroke-width="2.5" opacity="0.92"/>
<circle cx="64.0" cy="355.2" r="3" fill="#a371f7"/>
<circle cx="367.0" cy="292.8" r="3" fill="#a371f7"/>
<circle cx="670.0" cy="247.9" r="3" fill="#a371f7"/>
<text x="678" y="260.2" font-size="12.5" fill="#a371f7">Elixir 2.56×</text>
<polyline points="64.0,355.2 367.0,292.8 670.0,249.5" fill="none" stroke="#f0883e" stroke-width="2.5" opacity="0.92"/>
<circle cx="64.0" cy="355.2" r="3" fill="#f0883e"/>
<circle cx="367.0" cy="292.8" r="3" fill="#f0883e"/>
<circle cx="670.0" cy="249.5" r="3" fill="#f0883e"/>
<text x="678" y="276.2" font-size="12.5" fill="#f0883e">Ruby 2.54×</text>
<polyline points="64.0,355.2 367.0,293.1 670.0,251.0" fill="none" stroke="#f0883e" stroke-width="2.5" opacity="0.92"/>
<circle cx="64.0" cy="355.2" r="3" fill="#f0883e"/>
<circle cx="367.0" cy="293.1" r="3" fill="#f0883e"/>
<circle cx="670.0" cy="251.0" r="3" fill="#f0883e"/>
<text x="678" y="292.2" font-size="12.5" fill="#f0883e">PHP 2.51×</text>
<polyline points="64.0,355.2 367.0,289.6 670.0,252.1" fill="none" stroke="#a371f7" stroke-width="2.5" opacity="0.92"/>
<circle cx="64.0" cy="355.2" r="3" fill="#a371f7"/>
<circle cx="367.0" cy="289.6" r="3" fill="#a371f7"/>
<circle cx="670.0" cy="252.1" r="3" fill="#a371f7"/>
<text x="678" y="308.2" font-size="12.5" fill="#a371f7">C# 2.50×</text>
<polyline points="64.0,355.2 367.0,291.4 670.0,252.3" fill="none" stroke="#3fb950" stroke-width="2.5" opacity="0.92"/>
<circle cx="64.0" cy="355.2" r="3" fill="#3fb950"/>
<circle cx="367.0" cy="291.4" r="3" fill="#3fb950"/>
<circle cx="670.0" cy="252.3" r="3" fill="#3fb950"/>
<text x="678" y="324.2" font-size="12.5" fill="#3fb950">C 2.50×</text>
<polyline points="64.0,355.2 367.0,296.7 670.0,252.8" fill="none" stroke="#f0883e" stroke-width="2.5" opacity="0.92"/>
<circle cx="64.0" cy="355.2" r="3" fill="#f0883e"/>
<circle cx="367.0" cy="296.7" r="3" fill="#f0883e"/>
<circle cx="670.0" cy="252.8" r="3" fill="#f0883e"/>
<text x="678" y="340.2" font-size="12.5" fill="#f0883e">Python (proc) 2.49×</text>
<polyline points="64.0,355.2 367.0,291.7 670.0,253.4" fill="none" stroke="#3fb950" stroke-width="2.5" opacity="0.92"/>
<circle cx="64.0" cy="355.2" r="3" fill="#3fb950"/>
<circle cx="367.0" cy="291.7" r="3" fill="#3fb950"/>
<circle cx="670.0" cy="253.4" r="3" fill="#3fb950"/>
<text x="678" y="356.2" font-size="12.5" fill="#3fb950">Rust 2.48×</text>
<polyline points="64.0,355.2 367.0,293.1 670.0,254.1" fill="none" stroke="#3fb950" stroke-width="2.5" opacity="0.92"/>
<circle cx="64.0" cy="355.2" r="3" fill="#3fb950"/>
<circle cx="367.0" cy="293.1" r="3" fill="#3fb950"/>
<circle cx="670.0" cy="254.1" r="3" fill="#3fb950"/>
<text x="678" y="372.2" font-size="12.5" fill="#3fb950">Go 2.47×</text>
<polyline points="64.0,355.2 367.0,292.8 670.0,254.5" fill="none" stroke="#a371f7" stroke-width="2.5" opacity="0.92"/>
<circle cx="64.0" cy="355.2" r="3" fill="#a371f7"/>
<circle cx="367.0" cy="292.8" r="3" fill="#a371f7"/>
<circle cx="670.0" cy="254.5" r="3" fill="#a371f7"/>
<text x="678" y="388.2" font-size="12.5" fill="#a371f7">Kotlin 2.46×</text>
<polyline points="64.0,355.2 367.0,294.4 670.0,255.2" fill="none" stroke="#3fb950" stroke-width="2.5" opacity="0.92"/>
<circle cx="64.0" cy="355.2" r="3" fill="#3fb950"/>
<circle cx="367.0" cy="294.4" r="3" fill="#3fb950"/>
<circle cx="670.0" cy="255.2" r="3" fill="#3fb950"/>
<text x="678" y="404.2" font-size="12.5" fill="#3fb950">Swift 2.45×</text>
<polyline points="64.0,355.2 367.0,293.8 670.0,256.4" fill="none" stroke="#a371f7" stroke-width="2.5" opacity="0.92"/>
<circle cx="64.0" cy="355.2" r="3" fill="#a371f7"/>
<circle cx="367.0" cy="293.8" r="3" fill="#a371f7"/>
<circle cx="670.0" cy="256.4" r="3" fill="#a371f7"/>
<text x="678" y="420.2" font-size="12.5" fill="#a371f7">Scala 2.44×</text>
</svg>