<svg xmlns="http://www.w3.org/2000/svg" width="760" height="622" viewBox="0 0 760 622" font-family="ui-sans-serif,system-ui,Segoe UI,Helvetica,Arial">
<rect width="760" height="622" rx="10" fill="#0d1117"/>
<text x="22" y="34" font-size="19" font-weight="700" fill="#e6edf3">mandelbrot:instructions at n=256</text>
<text x="22" y="56" font-size="13" fill="#9aa7b4">absolute count · qemu+insn · x86_64 · log scale · less = more efficient</text>
<text x="120" y="97" text-anchor="end" font-size="14" fill="#9aa7b4">C</text>
<rect x="132" y="81" width="13.4" height="24" rx="5" fill="#3fb950"/>
<text x="154.4" y="98" font-size="13" fill="#e6edf3">26.74M</text>
<text x="120" y="137" text-anchor="end" font-size="14" fill="#9aa7b4">Rust</text>
<rect x="132" y="121" width="20.2" height="24" rx="5" fill="#3fb950"/>
<text x="161.2" y="138" font-size="13" fill="#e6edf3">29.99M</text>
<text x="120" y="177" text-anchor="end" font-size="14" fill="#9aa7b4">Go</text>
<rect x="132" y="161" width="25.0" height="24" rx="5" fill="#3fb950"/>
<text x="166.0" y="178" font-size="13" fill="#e6edf3">32.47M</text>
<text x="120" y="217" text-anchor="end" font-size="14" fill="#9aa7b4">Swift</text>
<rect x="132" y="201" width="40.5" height="24" rx="5" fill="#3fb950"/>
<text x="181.5" y="218" font-size="13" fill="#e6edf3">42.04M</text>
<text x="120" y="257" text-anchor="end" font-size="14" fill="#9aa7b4">C#</text>
<rect x="132" y="241" width="143.7" height="24" rx="5" fill="#a371f7"/>
<text x="284.7" y="258" font-size="13" fill="#e6edf3">235.17M</text>
<text x="120" y="297" text-anchor="end" font-size="14" fill="#9aa7b4">Kotlin</text>
<rect x="132" y="281" width="149.9" height="24" rx="5" fill="#a371f7"/>
<text x="290.9" y="298" font-size="13" fill="#e6edf3">260.70M</text>
<text x="120" y="337" text-anchor="end" font-size="14" fill="#9aa7b4">PHP</text>
<rect x="132" y="321" width="201.1" height="24" rx="5" fill="#f0883e"/>
<text x="342.1" y="338" font-size="13" fill="#e6edf3">612.42M</text>
<text x="120" y="377" text-anchor="end" font-size="14" fill="#9aa7b4">Scala</text>
<rect x="132" y="361" width="216.3" height="24" rx="5" fill="#a371f7"/>
<text x="357.3" y="378" font-size="13" fill="#e6edf3">788.92M</text>
<text x="120" y="417" text-anchor="end" font-size="14" fill="#9aa7b4">Elixir</text>
<rect x="132" y="401" width="280.0" height="24" rx="5" fill="#a371f7"/>
<text x="421.0" y="418" font-size="13" fill="#e6edf3">2.28B</text>
<text x="120" y="457" text-anchor="end" font-size="14" fill="#9aa7b4">Ruby</text>
<rect x="132" y="441" width="280.1" height="24" rx="5" fill="#f0883e"/>
<text x="421.1" y="458" font-size="13" fill="#e6edf3">2.29B</text>
<text x="120" y="497" text-anchor="end" font-size="14" fill="#9aa7b4">Python</text>
<rect x="132" y="481" width="290.5" height="24" rx="5" fill="#f0883e"/>
<text x="431.5" y="498" font-size="13" fill="#e6edf3">2.72B</text>
<text x="120" y="537" text-anchor="end" font-size="14" fill="#9aa7b4">Perl</text>
<rect x="132" y="521" width="308.4" height="24" rx="5" fill="#f0883e"/>
<text x="449.4" y="538" font-size="13" fill="#e6edf3">3.67B</text>
<text x="120" y="577" text-anchor="end" font-size="14" fill="#9aa7b4">COBOL</text>
<rect x="132" y="561" width="532.0" height="24" rx="5" fill="#3fb950"/>
<text x="673.0" y="578" font-size="13" fill="#e6edf3">152.97B</text>
</svg>