<svg xmlns="http://www.w3.org/2000/svg" width="760" height="662" viewBox="0 0 760 662" font-family="ui-sans-serif,system-ui,Segoe UI,Helvetica,Arial">
<rect width="760" height="662" rx="10" fill="#0d1117"/>
<text x="22" y="34" font-size="19" font-weight="700" fill="#e6edf3">mandelbrot:instructions at n=256</text>
<text x="22" y="56" font-size="13" fill="#9aa7b4">absolute count · qemu+insn · arm64 · log scale · less = more efficient</text>
<text x="120" y="97" text-anchor="end" font-size="14" fill="#9aa7b4">C</text>
<rect x="132" y="81" width="21.2" height="24" rx="5" fill="#3fb950"/>
<text x="162.2" y="98" font-size="13" fill="#e6edf3">18.65M</text>
<text x="120" y="137" text-anchor="end" font-size="14" fill="#9aa7b4">Rust</text>
<rect x="132" y="121" width="36.2" height="24" rx="5" fill="#3fb950"/>
<text x="177.2" y="138" font-size="13" fill="#e6edf3">21.83M</text>
<text x="120" y="177" text-anchor="end" font-size="14" fill="#9aa7b4">Go</text>
<rect x="132" y="161" width="45.8" height="24" rx="5" fill="#3fb950"/>
<text x="186.8" y="178" font-size="13" fill="#e6edf3">24.17M</text>
<text x="120" y="217" text-anchor="end" font-size="14" fill="#9aa7b4">Swift</text>
<rect x="132" y="201" width="75.4" height="24" rx="5" fill="#3fb950"/>
<text x="216.4" y="218" font-size="13" fill="#e6edf3">33.00M</text>
<text x="120" y="257" text-anchor="end" font-size="14" fill="#9aa7b4">JavaScript</text>
<rect x="132" y="241" width="236.6" height="24" rx="5" fill="#a371f7"/>
<text x="377.6" y="258" font-size="13" fill="#e6edf3">180.18M</text>
<text x="120" y="297" text-anchor="end" font-size="14" fill="#9aa7b4">Java</text>
<rect x="132" y="281" width="238.2" height="24" rx="5" fill="#a371f7"/>
<text x="379.2" y="298" font-size="13" fill="#e6edf3">183.15M</text>
<text x="120" y="337" text-anchor="end" font-size="14" fill="#9aa7b4">Kotlin</text>
<rect x="132" y="321" width="251.8" height="24" rx="5" fill="#a371f7"/>
<text x="392.8" y="338" font-size="13" fill="#e6edf3">211.38M</text>
<text x="120" y="377" text-anchor="end" font-size="14" fill="#9aa7b4">C#</text>
<rect x="132" y="361" width="259.3" height="24" rx="5" fill="#a371f7"/>
<text x="400.3" y="378" font-size="13" fill="#e6edf3">228.70M</text>
<text x="120" y="417" text-anchor="end" font-size="14" fill="#9aa7b4">PHP</text>
<rect x="132" y="401" width="361.0" height="24" rx="5" fill="#f0883e"/>
<text x="502.0" y="418" font-size="13" fill="#e6edf3">667.45M</text>
<text x="120" y="457" text-anchor="end" font-size="14" fill="#9aa7b4">Scala</text>
<rect x="132" y="441" width="363.3" height="24" rx="5" fill="#a371f7"/>
<text x="504.3" y="458" font-size="13" fill="#e6edf3">683.35M</text>
<text x="120" y="497" text-anchor="end" font-size="14" fill="#9aa7b4">Elixir</text>
<rect x="132" y="481" width="479.1" height="24" rx="5" fill="#a371f7"/>
<text x="620.1" y="498" font-size="13" fill="#e6edf3">2.31B</text>
<text x="120" y="537" text-anchor="end" font-size="14" fill="#9aa7b4">Python</text>
<rect x="132" y="521" width="480.8" height="24" rx="5" fill="#f0883e"/>
<text x="621.8" y="538" font-size="13" fill="#e6edf3">2.36B</text>
<text x="120" y="577" text-anchor="end" font-size="14" fill="#9aa7b4">Ruby</text>
<rect x="132" y="561" width="484.8" height="24" rx="5" fill="#f0883e"/>
<text x="625.8" y="578" font-size="13" fill="#e6edf3">2.46B</text>
<text x="120" y="617" text-anchor="end" font-size="14" fill="#9aa7b4">Perl</text>
<rect x="132" y="601" width="532.0" height="24" rx="5" fill="#f0883e"/>
<text x="673.0" y="618" font-size="13" fill="#e6edf3">4.04B</text>
</svg>