<svg xmlns="http://www.w3.org/2000/svg" width="820" height="470" viewBox="0 0 820 470" font-family="ui-sans-serif,system-ui,Segoe UI,Helvetica,Arial">
<rect width="820" height="470" rx="10" fill="#0d1117"/>
<text x="22" y="34" font-size="19" font-weight="700" fill="#e6edf3">mandelbrot: parallel speedup vs cores</text>
<text x="22" y="56" font-size="13" fill="#9aa7b4">wall-clock T1/TP of the compute region (startup excluded) · x86_64 · higher is better, ideal = linear</text>
<line x1="64" y1="424.0" x2="670" y2="424.0" stroke="#21262d" stroke-width="1"/>
<text x="54" y="428.0" text-anchor="end" font-size="12" fill="#9aa7b4">0×</text>
<line x1="64" y1="355.2" x2="670" y2="355.2" stroke="#21262d" stroke-width="1"/>
<text x="54" y="359.2" text-anchor="end" font-size="12" fill="#9aa7b4">1×</text>
<line x1="64" y1="286.4" x2="670" y2="286.4" stroke="#21262d" stroke-width="1"/>
<text x="54" y="290.4" text-anchor="end" font-size="12" fill="#9aa7b4">2×</text>
<line x1="64" y1="217.6" x2="670" y2="217.6" stroke="#21262d" stroke-width="1"/>
<text x="54" y="221.6" text-anchor="end" font-size="12" fill="#9aa7b4">3×</text>
<line x1="64" y1="148.8" x2="670" y2="148.8" stroke="#21262d" stroke-width="1"/>
<text x="54" y="152.8" text-anchor="end" font-size="12" fill="#9aa7b4">4×</text>
<line x1="64" y1="80.0" x2="670" y2="80.0" stroke="#21262d" stroke-width="1"/>
<text x="54" y="84.0" text-anchor="end" font-size="12" fill="#9aa7b4">5×</text>
<text x="64.0" y="448.0" text-anchor="middle" font-size="13" fill="#9aa7b4">1 core</text>
<text x="367.0" y="448.0" text-anchor="middle" font-size="13" fill="#9aa7b4">2 cores</text>
<text x="670.0" y="448.0" text-anchor="middle" font-size="13" fill="#9aa7b4">4 cores</text>
<polyline points="64.0,355.2 367.0,286.4 670.0,148.8" fill="none" stroke="#9aa7b4" stroke-width="1.5" stroke-dasharray="5 4"/>
<text x="678.0" y="152.8" font-size="12" fill="#9aa7b4">ideal</text>
<polyline points="64.0,355.2 367.0,286.3 670.0,247.2" fill="none" stroke="#3fb950" stroke-width="2.5" opacity="0.92"/>
<circle cx="64.0" cy="355.2" r="3" fill="#3fb950"/>
<circle cx="367.0" cy="286.3" r="3" fill="#3fb950"/>
<circle cx="670.0" cy="247.2" r="3" fill="#3fb950"/>
<text x="678" y="251.2" font-size="12.5" fill="#3fb950">Rust 2.57×</text>
<polyline points="64.0,355.2 367.0,285.7 670.0,249.5" fill="none" stroke="#a371f7" stroke-width="2.5" opacity="0.92"/>
<circle cx="64.0" cy="355.2" r="3" fill="#a371f7"/>
<circle cx="367.0" cy="285.7" r="3" fill="#a371f7"/>
<circle cx="670.0" cy="249.5" r="3" fill="#a371f7"/>
<text x="678" y="267.2" font-size="12.5" fill="#a371f7">Scala 2.54×</text>
<polyline points="64.0,355.2 367.0,287.0 670.0,251.5" fill="none" stroke="#a371f7" stroke-width="2.5" opacity="0.92"/>
<circle cx="64.0" cy="355.2" r="3" fill="#a371f7"/>
<circle cx="367.0" cy="287.0" r="3" fill="#a371f7"/>
<circle cx="670.0" cy="251.5" r="3" fill="#a371f7"/>
<text x="678" y="283.2" font-size="12.5" fill="#a371f7">C# 2.51×</text>
<polyline points="64.0,355.2 367.0,285.4 670.0,252.0" fill="none" stroke="#3fb950" stroke-width="2.5" opacity="0.92"/>
<circle cx="64.0" cy="355.2" r="3" fill="#3fb950"/>
<circle cx="367.0" cy="285.4" r="3" fill="#3fb950"/>
<circle cx="670.0" cy="252.0" r="3" fill="#3fb950"/>
<text x="678" y="299.2" font-size="12.5" fill="#3fb950">Swift 2.50×</text>
<polyline points="64.0,355.2 367.0,286.7 670.0,252.1" fill="none" stroke="#a371f7" stroke-width="2.5" opacity="0.92"/>
<circle cx="64.0" cy="355.2" r="3" fill="#a371f7"/>
<circle cx="367.0" cy="286.7" r="3" fill="#a371f7"/>
<circle cx="670.0" cy="252.1" r="3" fill="#a371f7"/>
<text x="678" y="315.2" font-size="12.5" fill="#a371f7">Kotlin 2.50×</text>
<polyline points="64.0,355.2 367.0,287.2 670.0,252.1" fill="none" stroke="#3fb950" stroke-width="2.5" opacity="0.92"/>
<circle cx="64.0" cy="355.2" r="3" fill="#3fb950"/>
<circle cx="367.0" cy="287.2" r="3" fill="#3fb950"/>
<circle cx="670.0" cy="252.1" r="3" fill="#3fb950"/>
<text x="678" y="331.2" font-size="12.5" fill="#3fb950">Go 2.50×</text>
<polyline points="64.0,355.2 367.0,286.7 670.0,254.1" fill="none" stroke="#3fb950" stroke-width="2.5" opacity="0.92"/>
<circle cx="64.0" cy="355.2" r="3" fill="#3fb950"/>
<circle cx="367.0" cy="286.7" r="3" fill="#3fb950"/>
<circle cx="670.0" cy="254.1" r="3" fill="#3fb950"/>
<text x="678" y="347.2" font-size="12.5" fill="#3fb950">C 2.47×</text>
<polyline points="64.0,355.2 367.0,285.5 670.0,257.6" fill="none" stroke="#f0883e" stroke-width="2.5" opacity="0.92"/>
<circle cx="64.0" cy="355.2" r="3" fill="#f0883e"/>
<circle cx="367.0" cy="285.5" r="3" fill="#f0883e"/>
<circle cx="670.0" cy="257.6" r="3" fill="#f0883e"/>
<text x="678" y="363.2" font-size="12.5" fill="#f0883e">Ruby 2.42×</text>
<polyline points="64.0,355.2 367.0,286.4 670.0,273.1" fill="none" stroke="#f0883e" stroke-width="2.5" opacity="0.92"/>
<circle cx="64.0" cy="355.2" r="3" fill="#f0883e"/>
<circle cx="367.0" cy="286.4" r="3" fill="#f0883e"/>
<circle cx="670.0" cy="273.1" r="3" fill="#f0883e"/>
<text x="678" y="379.2" font-size="12.5" fill="#f0883e">Perl 2.19×</text>
<polyline points="64.0,355.2 367.0,284.1 670.0,273.7" fill="none" stroke="#a371f7" stroke-width="2.5" opacity="0.92"/>
<circle cx="64.0" cy="355.2" r="3" fill="#a371f7"/>
<circle cx="367.0" cy="284.1" r="3" fill="#a371f7"/>
<circle cx="670.0" cy="273.7" r="3" fill="#a371f7"/>
<text x="678" y="395.2" font-size="12.5" fill="#a371f7">Elixir 2.19×</text>
<polyline points="64.0,355.2 367.0,293.8 670.0,273.7" fill="none" stroke="#f0883e" stroke-width="2.5" opacity="0.92"/>
<circle cx="64.0" cy="355.2" r="3" fill="#f0883e"/>
<circle cx="367.0" cy="293.8" r="3" fill="#f0883e"/>
<circle cx="670.0" cy="273.7" r="3" fill="#f0883e"/>
<text x="678" y="411.2" font-size="12.5" fill="#f0883e">Python 2.19×</text>
<polyline points="64.0,355.2 367.0,291.4 670.0,277.5" fill="none" stroke="#f0883e" stroke-width="2.5" opacity="0.92"/>
<circle cx="64.0" cy="355.2" r="3" fill="#f0883e"/>
<circle cx="367.0" cy="291.4" r="3" fill="#f0883e"/>
<circle cx="670.0" cy="277.5" r="3" fill="#f0883e"/>
<text x="678" y="427.2" font-size="12.5" fill="#f0883e">PHP 2.13×</text>
</svg>