<svg xmlns="http://www.w3.org/2000/svg" width="860" height="482" viewBox="0 0 860 482" font-family="ui-sans-serif,system-ui,Segoe UI,Helvetica,Arial">
<rect width="860" height="482" rx="10" fill="#0d1117"/>
<text x="22" y="34" font-size="19" font-weight="700" fill="#e6edf3">message-ring: handoff latency (wall-clock per hop)</text>
<text x="22" y="56" font-size="13" fill="#9aa7b4">native, single OS thread, normalized to C · lower is better · log scale · the honest concurrency metric (vs instruction count)</text>
<line x1="221.7" y1="72" x2="221.7" y2="464" stroke="#21262d" stroke-width="1"/>
<text x="221.7" y="476" text-anchor="middle" font-size="11" fill="#9aa7b4">0.01us</text>
<line x1="350.0" y1="72" x2="350.0" y2="464" stroke="#21262d" stroke-width="1"/>
<text x="350.0" y="476" text-anchor="middle" font-size="11" fill="#9aa7b4">0.1us</text>
<line x1="478.3" y1="72" x2="478.3" y2="464" stroke="#21262d" stroke-width="1"/>
<text x="478.3" y="476" text-anchor="middle" font-size="11" fill="#9aa7b4">1us</text>
<line x1="606.6" y1="72" x2="606.6" y2="464" stroke="#21262d" stroke-width="1"/>
<text x="606.6" y="476" text-anchor="middle" font-size="11" fill="#9aa7b4">10us</text>
<line x1="390.6" y1="72" x2="390.6" y2="464" stroke="#9aa7b4" stroke-width="1.5" stroke-dasharray="5 4"/>
<text x="395.6" y="68" font-size="11" fill="#9aa7b4">C = 1.0×</text>
<text x="120" y="99" text-anchor="end" font-size="13.5" fill="#9aa7b4">Rust</text>
<rect x="132" y="84" width="31.2" height="22" rx="5" fill="#3fb950"/>
<text x="171.2" y="100" font-size="12.5" fill="#e6edf3">0.004us  (0.02×)</text>
<text x="120" y="133" text-anchor="end" font-size="13.5" fill="#9aa7b4">Go</text>
<rect x="132" y="118" width="219.0" height="22" rx="5" fill="#3fb950"/>
<text x="359.0" y="134" font-size="12.5" fill="#e6edf3">0.102us  (0.49×)</text>
<text x="120" y="167" text-anchor="end" font-size="13.5" fill="#9aa7b4">PHP</text>
<rect x="132" y="152" width="226.4" height="22" rx="5" fill="#f0883e"/>
<text x="366.4" y="168" font-size="12.5" fill="#e6edf3">0.116us  (0.56×)</text>
<text x="120" y="201" text-anchor="end" font-size="13.5" fill="#9aa7b4">Ruby</text>
<rect x="132" y="186" width="246.9" height="22" rx="5" fill="#f0883e"/>
<text x="386.9" y="202" font-size="12.5" fill="#e6edf3">0.168us  (0.81×)</text>
<text x="120" y="235" text-anchor="end" font-size="13.5" fill="#9aa7b4">C</text>
<rect x="132" y="220" width="258.6" height="22" rx="5" fill="#3fb950"/>
<text x="398.6" y="236" font-size="12.5" fill="#e6edf3">0.207us  (1×)</text>
<text x="120" y="269" text-anchor="end" font-size="13.5" fill="#9aa7b4">C#</text>
<rect x="132" y="254" width="261.3" height="22" rx="5" fill="#a371f7"/>
<text x="401.3" y="270" font-size="12.5" fill="#e6edf3">0.218us  (1.05×)</text>
<text x="120" y="303" text-anchor="end" font-size="13.5" fill="#9aa7b4">Elixir</text>
<rect x="132" y="288" width="275.4" height="22" rx="5" fill="#a371f7"/>
<text x="415.4" y="304" font-size="12.5" fill="#e6edf3">0.280us  (1.35×)</text>
<text x="120" y="337" text-anchor="end" font-size="13.5" fill="#9aa7b4">Kotlin</text>
<rect x="132" y="322" width="366.1" height="22" rx="5" fill="#a371f7"/>
<text x="506.1" y="338" font-size="12.5" fill="#e6edf3">1.429us  (6.89×)</text>
<text x="120" y="371" text-anchor="end" font-size="13.5" fill="#9aa7b4">Scala</text>
<rect x="132" y="356" width="366.3" height="22" rx="5" fill="#a371f7"/>
<text x="506.3" y="372" font-size="12.5" fill="#e6edf3">1.434us  (6.91×)</text>
<text x="120" y="405" text-anchor="end" font-size="13.5" fill="#9aa7b4">Python</text>
<rect x="132" y="390" width="388.5" height="22" rx="5" fill="#f0883e"/>
<text x="528.5" y="406" font-size="12.5" fill="#e6edf3">2.135us  (10.3×)</text>
<text x="120" y="439" text-anchor="end" font-size="13.5" fill="#9aa7b4">Swift</text>
<rect x="132" y="424" width="554.2" height="22" rx="5" fill="#3fb950"/>
<text x="694.2" y="440" font-size="12.5" fill="#e6edf3">41.775us  (201.4×)</text>
</svg>