<svg xmlns="http://www.w3.org/2000/svg" width="760" height="582" viewBox="0 0 760 582" font-family="ui-sans-serif,system-ui,Segoe UI,Helvetica,Arial">
<rect width="760" height="582" rx="10" fill="#0d1117"/>
<text x="22" y="34" font-size="19" font-weight="700" fill="#e6edf3">polymorphism:relative real work (I(200)−I(50), C = 1.0×)</text>
<text x="22" y="56" font-size="13" fill="#9aa7b4">differential cancels startup + JIT · qemu+insn · arm64 · the fair metric · lower is better</text>
<text x="120" y="97" text-anchor="end" font-size="14" fill="#9aa7b4">C</text>
<rect x="132" y="81" width="3.9" height="24" rx="5" fill="#3fb950"/>
<text x="144.9" y="98" font-size="13" fill="#e6edf3">1.00×</text>
<text x="120" y="137" text-anchor="end" font-size="14" fill="#9aa7b4">Rust</text>
<rect x="132" y="121" width="4.1" height="24" rx="5" fill="#3fb950"/>
<text x="145.1" y="138" font-size="13" fill="#e6edf3">1.04×</text>
<text x="120" y="177" text-anchor="end" font-size="14" fill="#9aa7b4">C#</text>
<rect x="132" y="161" width="4.7" height="24" rx="5" fill="#a371f7"/>
<text x="145.7" y="178" font-size="13" fill="#e6edf3">1.21×</text>
<text x="120" y="217" text-anchor="end" font-size="14" fill="#9aa7b4">Go</text>
<rect x="132" y="201" width="5.4" height="24" rx="5" fill="#3fb950"/>
<text x="146.4" y="218" font-size="13" fill="#e6edf3">1.39×</text>
<text x="120" y="257" text-anchor="end" font-size="14" fill="#9aa7b4">Kotlin</text>
<rect x="132" y="241" width="10.3" height="24" rx="5" fill="#a371f7"/>
<text x="151.3" y="258" font-size="13" fill="#e6edf3">2.65×</text>
<text x="120" y="297" text-anchor="end" font-size="14" fill="#9aa7b4">Scala</text>
<rect x="132" y="281" width="10.8" height="24" rx="5" fill="#a371f7"/>
<text x="151.8" y="298" font-size="13" fill="#e6edf3">2.78×</text>
<text x="120" y="337" text-anchor="end" font-size="14" fill="#9aa7b4">Swift</text>
<rect x="132" y="321" width="24.0" height="24" rx="5" fill="#3fb950"/>
<text x="165.0" y="338" font-size="13" fill="#e6edf3">6.13×</text>
<text x="120" y="377" text-anchor="end" font-size="14" fill="#9aa7b4">PHP</text>
<rect x="132" y="361" width="90.5" height="24" rx="5" fill="#f0883e"/>
<text x="231.5" y="378" font-size="13" fill="#e6edf3">23.15×</text>
<text x="120" y="417" text-anchor="end" font-size="14" fill="#9aa7b4">Ruby</text>
<rect x="132" y="401" width="174.1" height="24" rx="5" fill="#f0883e"/>
<text x="315.1" y="418" font-size="13" fill="#e6edf3">44.55×</text>
<text x="120" y="457" text-anchor="end" font-size="14" fill="#9aa7b4">Perl</text>
<rect x="132" y="441" width="381.1" height="24" rx="5" fill="#f0883e"/>
<text x="522.1" y="458" font-size="13" fill="#e6edf3">97.53×</text>
<text x="120" y="497" text-anchor="end" font-size="14" fill="#9aa7b4">Python</text>
<rect x="132" y="481" width="405.2" height="24" rx="5" fill="#f0883e"/>
<text x="546.2" y="498" font-size="13" fill="#e6edf3">103.71×</text>
<text x="120" y="537" text-anchor="end" font-size="14" fill="#9aa7b4">Elixir</text>
<rect x="132" y="521" width="532.0" height="24" rx="5" fill="#a371f7"/>
<text x="673.0" y="538" font-size="13" fill="#e6edf3">136.15×</text>
</svg>