<svg xmlns="http://www.w3.org/2000/svg" width="760" height="622" viewBox="0 0 760 622" font-family="ui-sans-serif,system-ui,Segoe UI,Helvetica,Arial">
<rect width="760" height="622" rx="10" fill="#0d1117"/>
<text x="22" y="34" font-size="19" font-weight="700" fill="#e6edf3">polymorphism:instructions at n=200</text>
<text x="22" y="56" font-size="13" fill="#9aa7b4">absolute count · qemu+insn · x86_64 · log scale · less = more efficient</text>
<text x="120" y="97" text-anchor="end" font-size="14" fill="#9aa7b4">C</text>
<rect x="132" y="81" width="19.3" height="24" rx="5" fill="#3fb950"/>
<text x="160.3" y="98" font-size="13" fill="#e6edf3">39.97M</text>
<text x="120" y="137" text-anchor="end" font-size="14" fill="#9aa7b4">Rust</text>
<rect x="132" y="121" width="33.8" height="24" rx="5" fill="#3fb950"/>
<text x="174.8" y="138" font-size="13" fill="#e6edf3">47.26M</text>
<text x="120" y="177" text-anchor="end" font-size="14" fill="#9aa7b4">Go</text>
<rect x="132" y="161" width="55.4" height="24" rx="5" fill="#3fb950"/>
<text x="196.4" y="178" font-size="13" fill="#e6edf3">60.63M</text>
<text x="120" y="217" text-anchor="end" font-size="14" fill="#9aa7b4">C#</text>
<rect x="132" y="201" width="183.2" height="24" rx="5" fill="#a371f7"/>
<text x="324.2" y="218" font-size="13" fill="#e6edf3">265.64M</text>
<text x="120" y="257" text-anchor="end" font-size="14" fill="#9aa7b4">Swift</text>
<rect x="132" y="241" width="184.0" height="24" rx="5" fill="#3fb950"/>
<text x="325.0" y="258" font-size="13" fill="#e6edf3">268.02M</text>
<text x="120" y="297" text-anchor="end" font-size="14" fill="#9aa7b4">Kotlin</text>
<rect x="132" y="281" width="237.0" height="24" rx="5" fill="#a371f7"/>
<text x="378.0" y="298" font-size="13" fill="#e6edf3">494.31M</text>
<text x="120" y="337" text-anchor="end" font-size="14" fill="#9aa7b4">Scala</text>
<rect x="132" y="321" width="301.7" height="24" rx="5" fill="#a371f7"/>
<text x="442.7" y="338" font-size="13" fill="#e6edf3">1.04B</text>
<text x="120" y="377" text-anchor="end" font-size="14" fill="#9aa7b4">PHP</text>
<rect x="132" y="361" width="301.7" height="24" rx="5" fill="#f0883e"/>
<text x="442.7" y="378" font-size="13" fill="#e6edf3">1.04B</text>
<text x="120" y="417" text-anchor="end" font-size="14" fill="#9aa7b4">Ruby</text>
<rect x="132" y="401" width="374.2" height="24" rx="5" fill="#f0883e"/>
<text x="515.2" y="418" font-size="13" fill="#e6edf3">2.41B</text>
<text x="120" y="457" text-anchor="end" font-size="14" fill="#9aa7b4">Perl</text>
<rect x="132" y="441" width="428.2" height="24" rx="5" fill="#f0883e"/>
<text x="569.2" y="458" font-size="13" fill="#e6edf3">4.50B</text>
<text x="120" y="497" text-anchor="end" font-size="14" fill="#9aa7b4">Python</text>
<rect x="132" y="481" width="449.0" height="24" rx="5" fill="#f0883e"/>
<text x="590.0" y="498" font-size="13" fill="#e6edf3">5.73B</text>
<text x="120" y="537" text-anchor="end" font-size="14" fill="#9aa7b4">Elixir</text>
<rect x="132" y="521" width="491.5" height="24" rx="5" fill="#a371f7"/>
<text x="632.5" y="538" font-size="13" fill="#e6edf3">9.36B</text>
<text x="120" y="577" text-anchor="end" font-size="14" fill="#9aa7b4">COBOL</text>
<rect x="132" y="561" width="532.0" height="24" rx="5" fill="#3fb950"/>
<text x="673.0" y="578" font-size="13" fill="#e6edf3">14.95B</text>
</svg>