<svg xmlns="http://www.w3.org/2000/svg" width="760" height="582" viewBox="0 0 760 582" font-family="ui-sans-serif,system-ui,Segoe UI,Helvetica,Arial">
<rect width="760" height="582" rx="10" fill="#0d1117"/>
<text x="22" y="34" font-size="19" font-weight="700" fill="#e6edf3">polymorphism:instructions at n=200</text>
<text x="22" y="56" font-size="13" fill="#9aa7b4">absolute count · qemu+insn · arm64 · log scale · less = more efficient</text>
<text x="120" y="97" text-anchor="end" font-size="14" fill="#9aa7b4">C</text>
<rect x="132" y="81" width="21.6" height="24" rx="5" fill="#3fb950"/>
<text x="162.6" y="98" font-size="13" fill="#e6edf3">47.84M</text>
<text x="120" y="137" text-anchor="end" font-size="14" fill="#9aa7b4">Rust</text>
<rect x="132" y="121" width="32.9" height="24" rx="5" fill="#3fb950"/>
<text x="173.9" y="138" font-size="13" fill="#e6edf3">53.72M</text>
<text x="120" y="177" text-anchor="end" font-size="14" fill="#9aa7b4">Go</text>
<rect x="132" y="161" width="57.1" height="24" rx="5" fill="#3fb950"/>
<text x="198.1" y="178" font-size="13" fill="#e6edf3">68.99M</text>
<text x="120" y="217" text-anchor="end" font-size="14" fill="#9aa7b4">C#</text>
<rect x="132" y="201" width="189.3" height="24" rx="5" fill="#a371f7"/>
<text x="330.3" y="218" font-size="13" fill="#e6edf3">269.76M</text>
<text x="120" y="257" text-anchor="end" font-size="14" fill="#9aa7b4">Swift</text>
<rect x="132" y="241" width="201.4" height="24" rx="5" fill="#3fb950"/>
<text x="342.4" y="258" font-size="13" fill="#e6edf3">305.65M</text>
<text x="120" y="297" text-anchor="end" font-size="14" fill="#9aa7b4">Kotlin</text>
<rect x="132" y="281" width="208.0" height="24" rx="5" fill="#a371f7"/>
<text x="349.0" y="298" font-size="13" fill="#e6edf3">327.16M</text>
<text x="120" y="337" text-anchor="end" font-size="14" fill="#9aa7b4">Scala</text>
<rect x="132" y="321" width="293.2" height="24" rx="5" fill="#a371f7"/>
<text x="434.2" y="338" font-size="13" fill="#e6edf3">788.67M</text>
<text x="120" y="377" text-anchor="end" font-size="14" fill="#9aa7b4">PHP</text>
<rect x="132" y="361" width="330.9" height="24" rx="5" fill="#f0883e"/>
<text x="471.9" y="378" font-size="13" fill="#e6edf3">1.16B</text>
<text x="120" y="417" text-anchor="end" font-size="14" fill="#9aa7b4">Ruby</text>
<rect x="132" y="401" width="402.6" height="24" rx="5" fill="#f0883e"/>
<text x="543.6" y="418" font-size="13" fill="#e6edf3">2.44B</text>
<text x="120" y="457" text-anchor="end" font-size="14" fill="#9aa7b4">Perl</text>
<rect x="132" y="441" width="467.5" height="24" rx="5" fill="#f0883e"/>
<text x="608.5" y="458" font-size="13" fill="#e6edf3">4.76B</text>
<text x="120" y="497" text-anchor="end" font-size="14" fill="#9aa7b4">Python</text>
<rect x="132" y="481" width="475.3" height="24" rx="5" fill="#f0883e"/>
<text x="616.3" y="498" font-size="13" fill="#e6edf3">5.16B</text>
<text x="120" y="537" text-anchor="end" font-size="14" fill="#9aa7b4">Elixir</text>
<rect x="132" y="521" width="532.0" height="24" rx="5" fill="#a371f7"/>
<text x="673.0" y="538" font-size="13" fill="#e6edf3">9.26B</text>
</svg>