<svg xmlns="http://www.w3.org/2000/svg" width="760" height="622" viewBox="0 0 760 622" font-family="ui-sans-serif,system-ui,Segoe UI,Helvetica,Arial">
<rect width="760" height="622" rx="10" fill="#0d1117"/>
<text x="22" y="34" font-size="19" font-weight="700" fill="#e6edf3">polymorphism:instructions at n=50</text>
<text x="22" y="56" font-size="13" fill="#9aa7b4">absolute count · qemu+insn · x86_64 · log scale</text>
<text x="120" y="97" text-anchor="end" font-size="14" fill="#9aa7b4">C</text>
<rect x="132" y="81" width="18.9" height="24" rx="5" fill="#3fb950"/>
<text x="159.9" y="98" font-size="13" fill="#e6edf3">10.47M</text>
<text x="120" y="137" text-anchor="end" font-size="14" fill="#9aa7b4">Rust</text>
<rect x="132" y="121" width="48.0" height="24" rx="5" fill="#3fb950"/>
<text x="189.0" y="138" font-size="13" fill="#e6edf3">14.76M</text>
<text x="120" y="177" text-anchor="end" font-size="14" fill="#9aa7b4">Go</text>
<rect x="132" y="161" width="61.8" height="24" rx="5" fill="#3fb950"/>
<text x="202.8" y="178" font-size="13" fill="#e6edf3">17.38M</text>
<text x="120" y="217" text-anchor="end" font-size="14" fill="#9aa7b4">Swift</text>
<rect x="132" y="201" width="191.4" height="24" rx="5" fill="#3fb950"/>
<text x="332.4" y="218" font-size="13" fill="#e6edf3">80.23M</text>
<text x="120" y="257" text-anchor="end" font-size="14" fill="#9aa7b4">C#</text>
<rect x="132" y="241" width="281.2" height="24" rx="5" fill="#a371f7"/>
<text x="422.2" y="258" font-size="13" fill="#e6edf3">231.64M</text>
<text x="120" y="297" text-anchor="end" font-size="14" fill="#9aa7b4">PHP</text>
<rect x="132" y="281" width="306.2" height="24" rx="5" fill="#f0883e"/>
<text x="447.2" y="298" font-size="13" fill="#e6edf3">311.39M</text>
<text x="120" y="337" text-anchor="end" font-size="14" fill="#9aa7b4">Kotlin</text>
<rect x="132" y="321" width="310.2" height="24" rx="5" fill="#a371f7"/>
<text x="451.2" y="338" font-size="13" fill="#e6edf3">326.27M</text>
<text x="120" y="377" text-anchor="end" font-size="14" fill="#9aa7b4">Ruby</text>
<rect x="132" y="361" width="389.6" height="24" rx="5" fill="#f0883e"/>
<text x="530.6" y="378" font-size="13" fill="#e6edf3">833.47M</text>
<text x="120" y="417" text-anchor="end" font-size="14" fill="#9aa7b4">Scala</text>
<rect x="132" y="401" width="397.1" height="24" rx="5" fill="#a371f7"/>
<text x="538.1" y="418" font-size="13" fill="#e6edf3">910.27M</text>
<text x="120" y="457" text-anchor="end" font-size="14" fill="#9aa7b4">Perl</text>
<rect x="132" y="441" width="422.3" height="24" rx="5" fill="#f0883e"/>
<text x="563.3" y="458" font-size="13" fill="#e6edf3">1.23B</text>
<text x="120" y="497" text-anchor="end" font-size="14" fill="#9aa7b4">Python</text>
<rect x="132" y="481" width="445.4" height="24" rx="5" fill="#f0883e"/>
<text x="586.4" y="498" font-size="13" fill="#e6edf3">1.61B</text>
<text x="120" y="537" text-anchor="end" font-size="14" fill="#9aa7b4">COBOL</text>
<rect x="132" y="521" width="523.1" height="24" rx="5" fill="#3fb950"/>
<text x="664.1" y="538" font-size="13" fill="#e6edf3">4.03B</text>
<text x="120" y="577" text-anchor="end" font-size="14" fill="#9aa7b4">Elixir</text>
<rect x="132" y="561" width="532.0" height="24" rx="5" fill="#a371f7"/>
<text x="673.0" y="578" font-size="13" fill="#e6edf3">4.48B</text>
</svg>