<svg xmlns="http://www.w3.org/2000/svg" width="760" height="622" viewBox="0 0 760 622" font-family="ui-sans-serif,system-ui,Segoe UI,Helvetica,Arial">
<rect width="760" height="622" rx="10" fill="#0d1117"/>
<text x="22" y="34" font-size="19" font-weight="700" fill="#e6edf3">polymorphism:instructions at n=200</text>
<text x="22" y="56" font-size="13" fill="#9aa7b4">absolute count · qemu+insn · arm64 · log scale · less = more efficient</text>
<text x="120" y="97" text-anchor="end" font-size="14" fill="#9aa7b4">C</text>
<rect x="132" y="81" width="20.0" height="24" rx="5" fill="#3fb950"/>
<text x="161.0" y="98" font-size="13" fill="#e6edf3">47.84M</text>
<text x="120" y="137" text-anchor="end" font-size="14" fill="#9aa7b4">Rust</text>
<rect x="132" y="121" width="30.4" height="24" rx="5" fill="#3fb950"/>
<text x="171.4" y="138" font-size="13" fill="#e6edf3">53.72M</text>
<text x="120" y="177" text-anchor="end" font-size="14" fill="#9aa7b4">Go</text>
<rect x="132" y="161" width="52.9" height="24" rx="5" fill="#3fb950"/>
<text x="193.9" y="178" font-size="13" fill="#e6edf3">68.99M</text>
<text x="120" y="217" text-anchor="end" font-size="14" fill="#9aa7b4">C#</text>
<rect x="132" y="201" width="175.3" height="24" rx="5" fill="#a371f7"/>
<text x="316.3" y="218" font-size="13" fill="#e6edf3">269.76M</text>
<text x="120" y="257" text-anchor="end" font-size="14" fill="#9aa7b4">Swift</text>
<rect x="132" y="241" width="186.5" height="24" rx="5" fill="#3fb950"/>
<text x="327.5" y="258" font-size="13" fill="#e6edf3">305.65M</text>
<text x="120" y="297" text-anchor="end" font-size="14" fill="#9aa7b4">Kotlin</text>
<rect x="132" y="281" width="192.6" height="24" rx="5" fill="#a371f7"/>
<text x="333.6" y="298" font-size="13" fill="#e6edf3">327.16M</text>
<text x="120" y="337" text-anchor="end" font-size="14" fill="#9aa7b4">Scala</text>
<rect x="132" y="321" width="271.5" height="24" rx="5" fill="#a371f7"/>
<text x="412.5" y="338" font-size="13" fill="#e6edf3">788.67M</text>
<text x="120" y="377" text-anchor="end" font-size="14" fill="#9aa7b4">PHP</text>
<rect x="132" y="361" width="306.4" height="24" rx="5" fill="#f0883e"/>
<text x="447.4" y="378" font-size="13" fill="#e6edf3">1.16B</text>
<text x="120" y="417" text-anchor="end" font-size="14" fill="#9aa7b4">Ruby</text>
<rect x="132" y="401" width="372.8" height="24" rx="5" fill="#f0883e"/>
<text x="513.8" y="418" font-size="13" fill="#e6edf3">2.44B</text>
<text x="120" y="457" text-anchor="end" font-size="14" fill="#9aa7b4">Perl</text>
<rect x="132" y="441" width="432.9" height="24" rx="5" fill="#f0883e"/>
<text x="573.9" y="458" font-size="13" fill="#e6edf3">4.76B</text>
<text x="120" y="497" text-anchor="end" font-size="14" fill="#9aa7b4">Python</text>
<rect x="132" y="481" width="440.1" height="24" rx="5" fill="#f0883e"/>
<text x="581.1" y="498" font-size="13" fill="#e6edf3">5.16B</text>
<text x="120" y="537" text-anchor="end" font-size="14" fill="#9aa7b4">Elixir</text>
<rect x="132" y="521" width="492.6" height="24" rx="5" fill="#a371f7"/>
<text x="633.6" y="538" font-size="13" fill="#e6edf3">9.26B</text>
<text x="120" y="577" text-anchor="end" font-size="14" fill="#9aa7b4">COBOL</text>
<rect x="132" y="561" width="532.0" height="24" rx="5" fill="#3fb950"/>
<text x="673.0" y="578" font-size="13" fill="#e6edf3">14.36B</text>
</svg>