<svg xmlns="http://www.w3.org/2000/svg" width="760" height="622" viewBox="0 0 760 622" font-family="ui-sans-serif,system-ui,Segoe UI,Helvetica,Arial">
<rect width="760" height="622" rx="10" fill="#0d1117"/>
<text x="22" y="34" font-size="19" font-weight="700" fill="#e6edf3">reverse-complement:instructions at n=400000</text>
<text x="22" y="56" font-size="13" fill="#9aa7b4">absolute count · qemu+insn · arm64 · log scale · less = more efficient</text>
<text x="120" y="97" text-anchor="end" font-size="14" fill="#9aa7b4">Rust</text>
<rect x="132" y="81" width="21.1" height="24" rx="5" fill="#3fb950"/>
<text x="162.1" y="98" font-size="13" fill="#e6edf3">14.96M</text>
<text x="120" y="137" text-anchor="end" font-size="14" fill="#9aa7b4">C</text>
<rect x="132" y="121" width="21.9" height="24" rx="5" fill="#3fb950"/>
<text x="162.9" y="138" font-size="13" fill="#e6edf3">15.09M</text>
<text x="120" y="177" text-anchor="end" font-size="14" fill="#9aa7b4">Go</text>
<rect x="132" y="161" width="66.5" height="24" rx="5" fill="#3fb950"/>
<text x="207.5" y="178" font-size="13" fill="#e6edf3">24.19M</text>
<text x="120" y="217" text-anchor="end" font-size="14" fill="#9aa7b4">Swift</text>
<rect x="132" y="201" width="97.4" height="24" rx="5" fill="#3fb950"/>
<text x="238.4" y="218" font-size="13" fill="#e6edf3">33.53M</text>
<text x="120" y="257" text-anchor="end" font-size="14" fill="#9aa7b4">C#</text>
<rect x="132" y="241" width="281.0" height="24" rx="5" fill="#a371f7"/>
<text x="422.0" y="258" font-size="13" fill="#e6edf3">234.16M</text>
<text x="120" y="297" text-anchor="end" font-size="14" fill="#9aa7b4">Kotlin</text>
<rect x="132" y="281" width="285.2" height="24" rx="5" fill="#a371f7"/>
<text x="426.2" y="298" font-size="13" fill="#e6edf3">244.60M</text>
<text x="120" y="337" text-anchor="end" font-size="14" fill="#9aa7b4">PHP</text>
<rect x="132" y="321" width="374.0" height="24" rx="5" fill="#f0883e"/>
<text x="515.0" y="338" font-size="13" fill="#e6edf3">626.28M</text>
<text x="120" y="377" text-anchor="end" font-size="14" fill="#9aa7b4">Scala</text>
<rect x="132" y="361" width="386.0" height="24" rx="5" fill="#a371f7"/>
<text x="527.0" y="378" font-size="13" fill="#e6edf3">710.86M</text>
<text x="120" y="417" text-anchor="end" font-size="14" fill="#9aa7b4">Ruby</text>
<rect x="132" y="401" width="429.9" height="24" rx="5" fill="#f0883e"/>
<text x="570.9" y="418" font-size="13" fill="#e6edf3">1.13B</text>
<text x="120" y="457" text-anchor="end" font-size="14" fill="#9aa7b4">Python</text>
<rect x="132" y="441" width="471.2" height="24" rx="5" fill="#f0883e"/>
<text x="612.2" y="458" font-size="13" fill="#e6edf3">1.75B</text>
<text x="120" y="497" text-anchor="end" font-size="14" fill="#9aa7b4">Elixir</text>
<rect x="132" y="481" width="488.2" height="24" rx="5" fill="#a371f7"/>
<text x="629.2" y="498" font-size="13" fill="#e6edf3">2.10B</text>
<text x="120" y="537" text-anchor="end" font-size="14" fill="#9aa7b4">Perl</text>
<rect x="132" y="521" width="513.2" height="24" rx="5" fill="#f0883e"/>
<text x="654.2" y="538" font-size="13" fill="#e6edf3">2.73B</text>
<text x="120" y="577" text-anchor="end" font-size="14" fill="#9aa7b4">COBOL</text>
<rect x="132" y="561" width="532.0" height="24" rx="5" fill="#3fb950"/>
<text x="673.0" y="578" font-size="13" fill="#e6edf3">3.33B</text>
</svg>