<svg xmlns="http://www.w3.org/2000/svg" width="760" height="582" viewBox="0 0 760 582" font-family="ui-sans-serif,system-ui,Segoe UI,Helvetica,Arial">
<rect width="760" height="582" rx="10" fill="#0d1117"/>
<text x="22" y="34" font-size="19" font-weight="700" fill="#e6edf3">reverse-complement:relative real work (I(400000)−I(100000), C = 1.0×)</text>
<text x="22" y="56" font-size="13" fill="#9aa7b4">differential cancels startup + JIT · qemu+insn · arm64 · the fair metric · lower is better</text>
<text x="120" y="97" text-anchor="end" font-size="14" fill="#9aa7b4">Rust</text>
<rect x="132" y="81" width="2.9" height="24" rx="5" fill="#3fb950"/>
<text x="143.9" y="98" font-size="13" fill="#e6edf3">0.99×</text>
<text x="120" y="137" text-anchor="end" font-size="14" fill="#9aa7b4">C</text>
<rect x="132" y="121" width="2.9" height="24" rx="5" fill="#3fb950"/>
<text x="143.9" y="138" font-size="13" fill="#e6edf3">1.00×</text>
<text x="120" y="177" text-anchor="end" font-size="14" fill="#9aa7b4">Swift</text>
<rect x="132" y="161" width="4.3" height="24" rx="5" fill="#3fb950"/>
<text x="145.3" y="178" font-size="13" fill="#e6edf3">1.48×</text>
<text x="120" y="217" text-anchor="end" font-size="14" fill="#9aa7b4">Go</text>
<rect x="132" y="201" width="4.7" height="24" rx="5" fill="#3fb950"/>
<text x="145.7" y="218" font-size="13" fill="#e6edf3">1.59×</text>
<text x="120" y="257" text-anchor="end" font-size="14" fill="#9aa7b4">C#</text>
<rect x="132" y="241" width="5.0" height="24" rx="5" fill="#a371f7"/>
<text x="146.0" y="258" font-size="13" fill="#e6edf3">1.71×</text>
<text x="120" y="297" text-anchor="end" font-size="14" fill="#9aa7b4">Kotlin</text>
<rect x="132" y="281" width="12.9" height="24" rx="5" fill="#a371f7"/>
<text x="153.9" y="298" font-size="13" fill="#e6edf3">4.39×</text>
<text x="120" y="337" text-anchor="end" font-size="14" fill="#9aa7b4">Scala</text>
<rect x="132" y="321" width="14.0" height="24" rx="5" fill="#a371f7"/>
<text x="155.0" y="338" font-size="13" fill="#e6edf3">4.78×</text>
<text x="120" y="377" text-anchor="end" font-size="14" fill="#9aa7b4">Elixir</text>
<rect x="132" y="361" width="27.7" height="24" rx="5" fill="#a371f7"/>
<text x="168.7" y="378" font-size="13" fill="#e6edf3">9.42×</text>
<text x="120" y="417" text-anchor="end" font-size="14" fill="#9aa7b4">PHP</text>
<rect x="132" y="401" width="115.8" height="24" rx="5" fill="#f0883e"/>
<text x="256.8" y="418" font-size="13" fill="#e6edf3">39.44×</text>
<text x="120" y="457" text-anchor="end" font-size="14" fill="#9aa7b4">Ruby</text>
<rect x="132" y="441" width="167.6" height="24" rx="5" fill="#f0883e"/>
<text x="308.6" y="458" font-size="13" fill="#e6edf3">57.08×</text>
<text x="120" y="497" text-anchor="end" font-size="14" fill="#9aa7b4">Python</text>
<rect x="132" y="481" width="334.7" height="24" rx="5" fill="#f0883e"/>
<text x="475.7" y="498" font-size="13" fill="#e6edf3">114.00×</text>
<text x="120" y="537" text-anchor="end" font-size="14" fill="#9aa7b4">Perl</text>
<rect x="132" y="521" width="532.0" height="24" rx="5" fill="#f0883e"/>
<text x="673.0" y="538" font-size="13" fill="#e6edf3">181.17×</text>
</svg>