<svg xmlns="http://www.w3.org/2000/svg" width="760" height="582" viewBox="0 0 760 582" font-family="ui-sans-serif,system-ui,Segoe UI,Helvetica,Arial">
<rect width="760" height="582" rx="10" fill="#0d1117"/>
<text x="22" y="34" font-size="19" font-weight="700" fill="#e6edf3">reverse-complement:instructions at n=100000</text>
<text x="22" y="56" font-size="13" fill="#9aa7b4">absolute count · qemu+insn · arm64 · log scale · less = more efficient</text>
<text x="120" y="97" text-anchor="end" font-size="14" fill="#9aa7b4">C</text>
<rect x="132" y="81" width="18.3" height="24" rx="5" fill="#3fb950"/>
<text x="159.3" y="98" font-size="13" fill="#e6edf3">3.84M</text>
<text x="120" y="137" text-anchor="end" font-size="14" fill="#9aa7b4">Rust</text>
<rect x="132" y="121" width="18.8" height="24" rx="5" fill="#3fb950"/>
<text x="159.8" y="138" font-size="13" fill="#e6edf3">3.86M</text>
<text x="120" y="177" text-anchor="end" font-size="14" fill="#9aa7b4">Go</text>
<rect x="132" y="161" width="58.4" height="24" rx="5" fill="#3fb950"/>
<text x="199.4" y="178" font-size="13" fill="#e6edf3">6.25M</text>
<text x="120" y="217" text-anchor="end" font-size="14" fill="#9aa7b4">Swift</text>
<rect x="132" y="201" width="140.0" height="24" rx="5" fill="#3fb950"/>
<text x="281.0" y="218" font-size="13" fill="#e6edf3">16.88M</text>
<text x="120" y="257" text-anchor="end" font-size="14" fill="#9aa7b4">PHP</text>
<rect x="132" y="241" width="335.7" height="24" rx="5" fill="#f0883e"/>
<text x="476.7" y="258" font-size="13" fill="#e6edf3">182.57M</text>
<text x="120" y="297" text-anchor="end" font-size="14" fill="#9aa7b4">Kotlin</text>
<rect x="132" y="281" width="341.2" height="24" rx="5" fill="#a371f7"/>
<text x="482.2" y="298" font-size="13" fill="#e6edf3">195.20M</text>
<text x="120" y="337" text-anchor="end" font-size="14" fill="#9aa7b4">C#</text>
<rect x="132" y="321" width="349.1" height="24" rx="5" fill="#a371f7"/>
<text x="490.1" y="338" font-size="13" fill="#e6edf3">214.90M</text>
<text x="120" y="377" text-anchor="end" font-size="14" fill="#9aa7b4">Python</text>
<rect x="132" y="361" width="413.2" height="24" rx="5" fill="#f0883e"/>
<text x="554.2" y="378" font-size="13" fill="#e6edf3">468.88M</text>
<text x="120" y="417" text-anchor="end" font-size="14" fill="#9aa7b4">Ruby</text>
<rect x="132" y="401" width="416.6" height="24" rx="5" fill="#f0883e"/>
<text x="557.6" y="418" font-size="13" fill="#e6edf3">488.95M</text>
<text x="120" y="457" text-anchor="end" font-size="14" fill="#9aa7b4">Scala</text>
<rect x="132" y="441" width="440.9" height="24" rx="5" fill="#a371f7"/>
<text x="581.9" y="458" font-size="13" fill="#e6edf3">657.10M</text>
<text x="120" y="497" text-anchor="end" font-size="14" fill="#9aa7b4">Perl</text>
<rect x="132" y="481" width="445.4" height="24" rx="5" fill="#f0883e"/>
<text x="586.4" y="498" font-size="13" fill="#e6edf3">693.64M</text>
<text x="120" y="537" text-anchor="end" font-size="14" fill="#9aa7b4">Elixir</text>
<rect x="132" y="521" width="532.0" height="24" rx="5" fill="#a371f7"/>
<text x="673.0" y="538" font-size="13" fill="#e6edf3">1.99B</text>
</svg>