<svg xmlns="http://www.w3.org/2000/svg" width="760" height="622" viewBox="0 0 760 622" font-family="ui-sans-serif,system-ui,Segoe UI,Helvetica,Arial">
<rect width="760" height="622" rx="10" fill="#0d1117"/>
<text x="22" y="34" font-size="19" font-weight="700" fill="#e6edf3">reverse-complement:instructions at n=400000</text>
<text x="22" y="56" font-size="13" fill="#9aa7b4">absolute count · qemu+insn · x86_64 · log scale · less = more efficient</text>
<text x="120" y="97" text-anchor="end" font-size="14" fill="#9aa7b4">Rust</text>
<rect x="132" y="81" width="21.8" height="24" rx="5" fill="#3fb950"/>
<text x="162.8" y="98" font-size="13" fill="#e6edf3">18.43M</text>
<text x="120" y="137" text-anchor="end" font-size="14" fill="#9aa7b4">C</text>
<rect x="132" y="121" width="29.0" height="24" rx="5" fill="#3fb950"/>
<text x="170.0" y="138" font-size="13" fill="#e6edf3">19.83M</text>
<text x="120" y="177" text-anchor="end" font-size="14" fill="#9aa7b4">Go</text>
<rect x="132" y="161" width="47.9" height="24" rx="5" fill="#3fb950"/>
<text x="188.9" y="178" font-size="13" fill="#e6edf3">24.05M</text>
<text x="120" y="217" text-anchor="end" font-size="14" fill="#9aa7b4">Swift</text>
<rect x="132" y="201" width="90.2" height="24" rx="5" fill="#3fb950"/>
<text x="231.2" y="218" font-size="13" fill="#e6edf3">37.04M</text>
<text x="120" y="257" text-anchor="end" font-size="14" fill="#9aa7b4">C#</text>
<rect x="132" y="241" width="273.5" height="24" rx="5" fill="#a371f7"/>
<text x="414.5" y="258" font-size="13" fill="#e6edf3">240.87M</text>
<text x="120" y="297" text-anchor="end" font-size="14" fill="#9aa7b4">Kotlin</text>
<rect x="132" y="281" width="286.8" height="24" rx="5" fill="#a371f7"/>
<text x="427.8" y="298" font-size="13" fill="#e6edf3">276.12M</text>
<text x="120" y="337" text-anchor="end" font-size="14" fill="#9aa7b4">PHP</text>
<rect x="132" y="321" width="354.3" height="24" rx="5" fill="#f0883e"/>
<text x="495.3" y="338" font-size="13" fill="#e6edf3">550.31M</text>
<text x="120" y="377" text-anchor="end" font-size="14" fill="#9aa7b4">Scala</text>
<rect x="132" y="361" width="388.8" height="24" rx="5" fill="#a371f7"/>
<text x="529.8" y="378" font-size="13" fill="#e6edf3">782.24M</text>
<text x="120" y="417" text-anchor="end" font-size="14" fill="#9aa7b4">Ruby</text>
<rect x="132" y="401" width="409.3" height="24" rx="5" fill="#f0883e"/>
<text x="550.3" y="418" font-size="13" fill="#e6edf3">964.49M</text>
<text x="120" y="457" text-anchor="end" font-size="14" fill="#9aa7b4">Python</text>
<rect x="132" y="441" width="481.4" height="24" rx="5" fill="#f0883e"/>
<text x="622.4" y="458" font-size="13" fill="#e6edf3">2.01B</text>
<text x="120" y="497" text-anchor="end" font-size="14" fill="#9aa7b4">Elixir</text>
<rect x="132" y="481" width="484.6" height="24" rx="5" fill="#a371f7"/>
<text x="625.6" y="498" font-size="13" fill="#e6edf3">2.08B</text>
<text x="120" y="537" text-anchor="end" font-size="14" fill="#9aa7b4">Perl</text>
<rect x="132" y="521" width="503.1" height="24" rx="5" fill="#f0883e"/>
<text x="644.1" y="538" font-size="13" fill="#e6edf3">2.52B</text>
<text x="120" y="577" text-anchor="end" font-size="14" fill="#9aa7b4">COBOL</text>
<rect x="132" y="561" width="532.0" height="24" rx="5" fill="#3fb950"/>
<text x="673.0" y="578" font-size="13" fill="#e6edf3">3.38B</text>
</svg>