<svg xmlns="http://www.w3.org/2000/svg" width="760" height="582" viewBox="0 0 760 582" font-family="ui-sans-serif,system-ui,Segoe UI,Helvetica,Arial">
<rect width="760" height="582" rx="10" fill="#0d1117"/>
<text x="22" y="34" font-size="19" font-weight="700" fill="#e6edf3">sha256:instructions at n=2500</text>
<text x="22" y="56" font-size="13" fill="#9aa7b4">absolute count · qemu+insn · arm64 · log scale · less = more efficient</text>
<text x="120" y="97" text-anchor="end" font-size="14" fill="#9aa7b4">Rust</text>
<rect x="132" y="81" width="17.3" height="24" rx="5" fill="#3fb950"/>
<text x="158.3" y="98" font-size="13" fill="#e6edf3">7.64M</text>
<text x="120" y="137" text-anchor="end" font-size="14" fill="#9aa7b4">C</text>
<rect x="132" y="121" width="24.7" height="24" rx="5" fill="#3fb950"/>
<text x="165.7" y="138" font-size="13" fill="#e6edf3">8.40M</text>
<text x="120" y="177" text-anchor="end" font-size="14" fill="#9aa7b4">Go</text>
<rect x="132" y="161" width="50.2" height="24" rx="5" fill="#3fb950"/>
<text x="191.2" y="178" font-size="13" fill="#e6edf3">11.69M</text>
<text x="120" y="217" text-anchor="end" font-size="14" fill="#9aa7b4">Swift</text>
<rect x="132" y="201" width="114.0" height="24" rx="5" fill="#3fb950"/>
<text x="255.0" y="218" font-size="13" fill="#e6edf3">26.61M</text>
<text x="120" y="257" text-anchor="end" font-size="14" fill="#9aa7b4">Kotlin</text>
<rect x="132" y="241" width="280.6" height="24" rx="5" fill="#a371f7"/>
<text x="421.6" y="258" font-size="13" fill="#e6edf3">228.29M</text>
<text x="120" y="297" text-anchor="end" font-size="14" fill="#9aa7b4">C#</text>
<rect x="132" y="281" width="281.1" height="24" rx="5" fill="#a371f7"/>
<text x="422.1" y="298" font-size="13" fill="#e6edf3">229.82M</text>
<text x="120" y="337" text-anchor="end" font-size="14" fill="#9aa7b4">Scala</text>
<rect x="132" y="321" width="369.2" height="24" rx="5" fill="#a371f7"/>
<text x="510.2" y="338" font-size="13" fill="#e6edf3">715.27M</text>
<text x="120" y="377" text-anchor="end" font-size="14" fill="#9aa7b4">PHP</text>
<rect x="132" y="361" width="382.6" height="24" rx="5" fill="#f0883e"/>
<text x="523.6" y="378" font-size="13" fill="#e6edf3">850.30M</text>
<text x="120" y="417" text-anchor="end" font-size="14" fill="#9aa7b4">Elixir</text>
<rect x="132" y="401" width="464.1" height="24" rx="5" fill="#a371f7"/>
<text x="605.1" y="418" font-size="13" fill="#e6edf3">2.43B</text>
<text x="120" y="457" text-anchor="end" font-size="14" fill="#9aa7b4">Ruby</text>
<rect x="132" y="441" width="468.9" height="24" rx="5" fill="#f0883e"/>
<text x="609.9" y="458" font-size="13" fill="#e6edf3">2.59B</text>
<text x="120" y="497" text-anchor="end" font-size="14" fill="#9aa7b4">Python</text>
<rect x="132" y="481" width="520.5" height="24" rx="5" fill="#f0883e"/>
<text x="661.5" y="498" font-size="13" fill="#e6edf3">5.04B</text>
<text x="120" y="537" text-anchor="end" font-size="14" fill="#9aa7b4">Perl</text>
<rect x="132" y="521" width="532.0" height="24" rx="5" fill="#f0883e"/>
<text x="673.0" y="538" font-size="13" fill="#e6edf3">5.85B</text>
</svg>