<svg xmlns="http://www.w3.org/2000/svg" width="760" height="622" viewBox="0 0 760 622" font-family="ui-sans-serif,system-ui,Segoe UI,Helvetica,Arial">
<rect width="760" height="622" rx="10" fill="#0d1117"/>
<text x="22" y="34" font-size="19" font-weight="700" fill="#e6edf3">sort-search:instructions at n=200000</text>
<text x="22" y="56" font-size="13" fill="#9aa7b4">absolute count · qemu+insn · x86_64 · log scale · less = more efficient</text>
<text x="120" y="97" text-anchor="end" font-size="14" fill="#9aa7b4">C</text>
<rect x="132" y="81" width="20.4" height="24" rx="5" fill="#3fb950"/>
<text x="161.4" y="98" font-size="13" fill="#e6edf3">82.55M</text>
<text x="120" y="137" text-anchor="end" font-size="14" fill="#9aa7b4">Rust</text>
<rect x="132" y="121" width="41.7" height="24" rx="5" fill="#3fb950"/>
<text x="182.7" y="138" font-size="13" fill="#e6edf3">104.30M</text>
<text x="120" y="177" text-anchor="end" font-size="14" fill="#9aa7b4">Go</text>
<rect x="132" y="161" width="53.6" height="24" rx="5" fill="#3fb950"/>
<text x="194.6" y="178" font-size="13" fill="#e6edf3">118.83M</text>
<text x="120" y="217" text-anchor="end" font-size="14" fill="#9aa7b4">Swift</text>
<rect x="132" y="201" width="78.9" height="24" rx="5" fill="#3fb950"/>
<text x="219.9" y="218" font-size="13" fill="#e6edf3">156.87M</text>
<text x="120" y="257" text-anchor="end" font-size="14" fill="#9aa7b4">C#</text>
<rect x="132" y="241" width="147.4" height="24" rx="5" fill="#a371f7"/>
<text x="288.4" y="258" font-size="13" fill="#e6edf3">332.07M</text>
<text x="120" y="297" text-anchor="end" font-size="14" fill="#9aa7b4">Kotlin</text>
<rect x="132" y="281" width="258.0" height="24" rx="5" fill="#a371f7"/>
<text x="399.0" y="298" font-size="13" fill="#e6edf3">1.12B</text>
<text x="120" y="337" text-anchor="end" font-size="14" fill="#9aa7b4">Scala</text>
<rect x="132" y="321" width="291.9" height="24" rx="5" fill="#a371f7"/>
<text x="432.9" y="338" font-size="13" fill="#e6edf3">1.62B</text>
<text x="120" y="377" text-anchor="end" font-size="14" fill="#9aa7b4">PHP</text>
<rect x="132" y="361" width="327.8" height="24" rx="5" fill="#f0883e"/>
<text x="468.8" y="378" font-size="13" fill="#e6edf3">2.40B</text>
<text x="120" y="417" text-anchor="end" font-size="14" fill="#9aa7b4">Elixir</text>
<rect x="132" y="401" width="387.4" height="24" rx="5" fill="#a371f7"/>
<text x="528.4" y="418" font-size="13" fill="#e6edf3">4.61B</text>
<text x="120" y="457" text-anchor="end" font-size="14" fill="#9aa7b4">Ruby</text>
<rect x="132" y="441" width="391.7" height="24" rx="5" fill="#f0883e"/>
<text x="532.7" y="458" font-size="13" fill="#e6edf3">4.83B</text>
<text x="120" y="497" text-anchor="end" font-size="14" fill="#9aa7b4">Python</text>
<rect x="132" y="481" width="460.5" height="24" rx="5" fill="#f0883e"/>
<text x="601.5" y="498" font-size="13" fill="#e6edf3">10.28B</text>
<text x="120" y="537" text-anchor="end" font-size="14" fill="#9aa7b4">Perl</text>
<rect x="132" y="521" width="475.0" height="24" rx="5" fill="#f0883e"/>
<text x="616.0" y="538" font-size="13" fill="#e6edf3">12.04B</text>
<text x="120" y="577" text-anchor="end" font-size="14" fill="#9aa7b4">COBOL</text>
<rect x="132" y="561" width="532.0" height="24" rx="5" fill="#3fb950"/>
<text x="673.0" y="578" font-size="13" fill="#e6edf3">22.50B</text>
</svg>