<svg xmlns="http://www.w3.org/2000/svg" width="760" height="622" viewBox="0 0 760 622" font-family="ui-sans-serif,system-ui,Segoe UI,Helvetica,Arial">
<rect width="760" height="622" rx="10" fill="#0d1117"/>
<text x="22" y="34" font-size="19" font-weight="700" fill="#e6edf3">sort-search:instructions at n=50000</text>
<text x="22" y="56" font-size="13" fill="#9aa7b4">absolute count · qemu+insn · x86_64 · log scale</text>
<text x="120" y="97" text-anchor="end" font-size="14" fill="#9aa7b4">C</text>
<rect x="132" y="81" width="20.4" height="24" rx="5" fill="#3fb950"/>
<text x="161.4" y="98" font-size="13" fill="#e6edf3">18.82M</text>
<text x="120" y="137" text-anchor="end" font-size="14" fill="#9aa7b4">Rust</text>
<rect x="132" y="121" width="41.7" height="24" rx="5" fill="#3fb950"/>
<text x="182.7" y="138" font-size="13" fill="#e6edf3">23.76M</text>
<text x="120" y="177" text-anchor="end" font-size="14" fill="#9aa7b4">Go</text>
<rect x="132" y="161" width="54.1" height="24" rx="5" fill="#3fb950"/>
<text x="195.1" y="178" font-size="13" fill="#e6edf3">27.24M</text>
<text x="120" y="217" text-anchor="end" font-size="14" fill="#9aa7b4">Swift</text>
<rect x="132" y="201" width="103.0" height="24" rx="5" fill="#3fb950"/>
<text x="244.0" y="218" font-size="13" fill="#e6edf3">46.53M</text>
<text x="120" y="257" text-anchor="end" font-size="14" fill="#9aa7b4">C#</text>
<rect x="132" y="241" width="254.5" height="24" rx="5" fill="#a371f7"/>
<text x="395.5" y="258" font-size="13" fill="#e6edf3">244.71M</text>
<text x="120" y="297" text-anchor="end" font-size="14" fill="#9aa7b4">Kotlin</text>
<rect x="132" y="281" width="298.7" height="24" rx="5" fill="#a371f7"/>
<text x="439.7" y="298" font-size="13" fill="#e6edf3">397.40M</text>
<text x="120" y="337" text-anchor="end" font-size="14" fill="#9aa7b4">PHP</text>
<rect x="132" y="321" width="332.5" height="24" rx="5" fill="#f0883e"/>
<text x="473.5" y="338" font-size="13" fill="#e6edf3">575.59M</text>
<text x="120" y="377" text-anchor="end" font-size="14" fill="#9aa7b4">Scala</text>
<rect x="132" y="361" width="372.7" height="24" rx="5" fill="#a371f7"/>
<text x="513.7" y="378" font-size="13" fill="#e6edf3">893.50M</text>
<text x="120" y="417" text-anchor="end" font-size="14" fill="#9aa7b4">Ruby</text>
<rect x="132" y="401" width="407.0" height="24" rx="5" fill="#f0883e"/>
<text x="548.0" y="418" font-size="13" fill="#e6edf3">1.30B</text>
<text x="120" y="457" text-anchor="end" font-size="14" fill="#9aa7b4">Python</text>
<rect x="132" y="441" width="461.9" height="24" rx="5" fill="#f0883e"/>
<text x="602.9" y="458" font-size="13" fill="#e6edf3">2.38B</text>
<text x="120" y="497" text-anchor="end" font-size="14" fill="#9aa7b4">Elixir</text>
<rect x="132" y="481" width="470.3" height="24" rx="5" fill="#a371f7"/>
<text x="611.3" y="498" font-size="13" fill="#e6edf3">2.61B</text>
<text x="120" y="537" text-anchor="end" font-size="14" fill="#9aa7b4">Perl</text>
<rect x="132" y="521" width="475.5" height="24" rx="5" fill="#f0883e"/>
<text x="616.5" y="538" font-size="13" fill="#e6edf3">2.76B</text>
<text x="120" y="577" text-anchor="end" font-size="14" fill="#9aa7b4">COBOL</text>
<rect x="132" y="561" width="532.0" height="24" rx="5" fill="#3fb950"/>
<text x="673.0" y="578" font-size="13" fill="#e6edf3">5.12B</text>
</svg>