<svg xmlns="http://www.w3.org/2000/svg" width="760" height="582" viewBox="0 0 760 582" font-family="ui-sans-serif,system-ui,Segoe UI,Helvetica,Arial">
<rect width="760" height="582" rx="10" fill="#0d1117"/>
<text x="22" y="34" font-size="19" font-weight="700" fill="#e6edf3">sort-search:instructions at n=200000</text>
<text x="22" y="56" font-size="13" fill="#9aa7b4">absolute count · qemu+insn · arm64 · log scale · less = more efficient</text>
<text x="120" y="97" text-anchor="end" font-size="14" fill="#9aa7b4">C</text>
<rect x="132" y="81" width="21.7" height="24" rx="5" fill="#3fb950"/>
<text x="162.7" y="98" font-size="13" fill="#e6edf3">68.25M</text>
<text x="120" y="137" text-anchor="end" font-size="14" fill="#9aa7b4">Rust</text>
<rect x="132" y="121" width="50.3" height="24" rx="5" fill="#3fb950"/>
<text x="191.3" y="138" font-size="13" fill="#e6edf3">91.56M</text>
<text x="120" y="177" text-anchor="end" font-size="14" fill="#9aa7b4">Go</text>
<rect x="132" y="161" width="55.8" height="24" rx="5" fill="#3fb950"/>
<text x="196.8" y="178" font-size="13" fill="#e6edf3">96.94M</text>
<text x="120" y="217" text-anchor="end" font-size="14" fill="#9aa7b4">Swift</text>
<rect x="132" y="201" width="91.8" height="24" rx="5" fill="#3fb950"/>
<text x="232.8" y="218" font-size="13" fill="#e6edf3">140.33M</text>
<text x="120" y="257" text-anchor="end" font-size="14" fill="#9aa7b4">C#</text>
<rect x="132" y="241" width="169.1" height="24" rx="5" fill="#a371f7"/>
<text x="310.1" y="258" font-size="13" fill="#e6edf3">310.64M</text>
<text x="120" y="297" text-anchor="end" font-size="14" fill="#9aa7b4">Kotlin</text>
<rect x="132" y="281" width="208.9" height="24" rx="5" fill="#a371f7"/>
<text x="349.9" y="298" font-size="13" fill="#e6edf3">467.79M</text>
<text x="120" y="337" text-anchor="end" font-size="14" fill="#9aa7b4">Scala</text>
<rect x="132" y="321" width="276.2" height="24" rx="5" fill="#a371f7"/>
<text x="417.2" y="338" font-size="13" fill="#e6edf3">933.68M</text>
<text x="120" y="377" text-anchor="end" font-size="14" fill="#9aa7b4">PHP</text>
<rect x="132" y="361" width="380.0" height="24" rx="5" fill="#f0883e"/>
<text x="521.0" y="378" font-size="13" fill="#e6edf3">2.72B</text>
<text x="120" y="417" text-anchor="end" font-size="14" fill="#9aa7b4">Elixir</text>
<rect x="132" y="401" width="429.7" height="24" rx="5" fill="#a371f7"/>
<text x="570.7" y="418" font-size="13" fill="#e6edf3">4.53B</text>
<text x="120" y="457" text-anchor="end" font-size="14" fill="#9aa7b4">Ruby</text>
<rect x="132" y="441" width="452.7" height="24" rx="5" fill="#f0883e"/>
<text x="593.7" y="458" font-size="13" fill="#e6edf3">5.73B</text>
<text x="120" y="497" text-anchor="end" font-size="14" fill="#9aa7b4">Python</text>
<rect x="132" y="481" width="497.0" height="24" rx="5" fill="#f0883e"/>
<text x="638.0" y="498" font-size="13" fill="#e6edf3">9.04B</text>
<text x="120" y="537" text-anchor="end" font-size="14" fill="#9aa7b4">Perl</text>
<rect x="132" y="521" width="532.0" height="24" rx="5" fill="#f0883e"/>
<text x="673.0" y="538" font-size="13" fill="#e6edf3">12.96B</text>
</svg>