<svg xmlns="http://www.w3.org/2000/svg" width="760" height="622" viewBox="0 0 760 622" font-family="ui-sans-serif,system-ui,Segoe UI,Helvetica,Arial">
<rect width="760" height="622" rx="10" fill="#0d1117"/>
<text x="22" y="34" font-size="19" font-weight="700" fill="#e6edf3">tak:instructions at n=8</text>
<text x="22" y="56" font-size="13" fill="#9aa7b4">absolute count · qemu+insn · x86_64 · log scale · less = more efficient</text>
<text x="120" y="97" text-anchor="end" font-size="14" fill="#9aa7b4">Go</text>
<rect x="132" y="81" width="21.2" height="24" rx="5" fill="#3fb950"/>
<text x="162.2" y="98" font-size="13" fill="#e6edf3">42.68M</text>
<text x="120" y="137" text-anchor="end" font-size="14" fill="#9aa7b4">C</text>
<rect x="132" y="121" width="23.1" height="24" rx="5" fill="#3fb950"/>
<text x="164.1" y="138" font-size="13" fill="#e6edf3">43.55M</text>
<text x="120" y="177" text-anchor="end" font-size="14" fill="#9aa7b4">Rust</text>
<rect x="132" y="161" width="25.8" height="24" rx="5" fill="#3fb950"/>
<text x="166.8" y="178" font-size="13" fill="#e6edf3">44.79M</text>
<text x="120" y="217" text-anchor="end" font-size="14" fill="#9aa7b4">Kotlin</text>
<rect x="132" y="201" width="183.5" height="24" rx="5" fill="#a371f7"/>
<text x="324.5" y="218" font-size="13" fill="#e6edf3">235.63M</text>
<text x="120" y="257" text-anchor="end" font-size="14" fill="#9aa7b4">C#</text>
<rect x="132" y="241" width="197.6" height="24" rx="5" fill="#a371f7"/>
<text x="338.6" y="258" font-size="13" fill="#e6edf3">273.17M</text>
<text x="120" y="297" text-anchor="end" font-size="14" fill="#9aa7b4">Swift</text>
<rect x="132" y="281" width="204.1" height="24" rx="5" fill="#3fb950"/>
<text x="345.1" y="298" font-size="13" fill="#e6edf3">292.54M</text>
<text x="120" y="337" text-anchor="end" font-size="14" fill="#9aa7b4">Scala</text>
<rect x="132" y="321" width="304.7" height="24" rx="5" fill="#a371f7"/>
<text x="445.7" y="338" font-size="13" fill="#e6edf3">843.15M</text>
<text x="120" y="377" text-anchor="end" font-size="14" fill="#9aa7b4">PHP</text>
<rect x="132" y="361" width="324.0" height="24" rx="5" fill="#f0883e"/>
<text x="465.0" y="378" font-size="13" fill="#e6edf3">1.03B</text>
<text x="120" y="417" text-anchor="end" font-size="14" fill="#9aa7b4">Ruby</text>
<rect x="132" y="401" width="390.1" height="24" rx="5" fill="#f0883e"/>
<text x="531.1" y="418" font-size="13" fill="#e6edf3">2.07B</text>
<text x="120" y="457" text-anchor="end" font-size="14" fill="#9aa7b4">Elixir</text>
<rect x="132" y="441" width="406.2" height="24" rx="5" fill="#a371f7"/>
<text x="547.2" y="458" font-size="13" fill="#e6edf3">2.46B</text>
<text x="120" y="497" text-anchor="end" font-size="14" fill="#9aa7b4">Python</text>
<rect x="132" y="481" width="417.8" height="24" rx="5" fill="#f0883e"/>
<text x="558.8" y="498" font-size="13" fill="#e6edf3">2.77B</text>
<text x="120" y="537" text-anchor="end" font-size="14" fill="#9aa7b4">Perl</text>
<rect x="132" y="521" width="481.5" height="24" rx="5" fill="#f0883e"/>
<text x="622.5" y="538" font-size="13" fill="#e6edf3">5.43B</text>
<text x="120" y="577" text-anchor="end" font-size="14" fill="#9aa7b4">COBOL</text>
<rect x="132" y="561" width="532.0" height="24" rx="5" fill="#3fb950"/>
<text x="673.0" y="578" font-size="13" fill="#e6edf3">9.23B</text>
</svg>