<svg xmlns="http://www.w3.org/2000/svg" width="760" height="622" viewBox="0 0 760 622" font-family="ui-sans-serif,system-ui,Segoe UI,Helvetica,Arial">
<rect width="760" height="622" rx="10" fill="#0d1117"/>
<text x="22" y="34" font-size="19" font-weight="700" fill="#e6edf3">tak:instructions at n=8</text>
<text x="22" y="56" font-size="13" fill="#9aa7b4">absolute count · qemu+insn · arm64 · log scale · less = more efficient</text>
<text x="120" y="97" text-anchor="end" font-size="14" fill="#9aa7b4">C</text>
<rect x="132" y="81" width="21.2" height="24" rx="5" fill="#3fb950"/>
<text x="162.2" y="98" font-size="13" fill="#e6edf3">50.39M</text>
<text x="120" y="137" text-anchor="end" font-size="14" fill="#9aa7b4">Go</text>
<rect x="132" y="121" width="29.7" height="24" rx="5" fill="#3fb950"/>
<text x="170.7" y="138" font-size="13" fill="#e6edf3">55.15M</text>
<text x="120" y="177" text-anchor="end" font-size="14" fill="#9aa7b4">Rust</text>
<rect x="132" y="161" width="42.3" height="24" rx="5" fill="#3fb950"/>
<text x="183.3" y="178" font-size="13" fill="#e6edf3">62.93M</text>
<text x="120" y="217" text-anchor="end" font-size="14" fill="#9aa7b4">Swift</text>
<rect x="132" y="201" width="51.4" height="24" rx="5" fill="#3fb950"/>
<text x="192.4" y="218" font-size="13" fill="#e6edf3">69.29M</text>
<text x="120" y="257" text-anchor="end" font-size="14" fill="#9aa7b4">Kotlin</text>
<rect x="132" y="241" width="168.4" height="24" rx="5" fill="#a371f7"/>
<text x="309.4" y="258" font-size="13" fill="#e6edf3">237.69M</text>
<text x="120" y="297" text-anchor="end" font-size="14" fill="#9aa7b4">C#</text>
<rect x="132" y="281" width="180.5" height="24" rx="5" fill="#a371f7"/>
<text x="321.5" y="298" font-size="13" fill="#e6edf3">270.15M</text>
<text x="120" y="337" text-anchor="end" font-size="14" fill="#9aa7b4">Scala</text>
<rect x="132" y="321" width="271.1" height="24" rx="5" fill="#a371f7"/>
<text x="412.1" y="338" font-size="13" fill="#e6edf3">701.81M</text>
<text x="120" y="377" text-anchor="end" font-size="14" fill="#9aa7b4">PHP</text>
<rect x="132" y="361" width="318.9" height="24" rx="5" fill="#f0883e"/>
<text x="459.9" y="378" font-size="13" fill="#e6edf3">1.16B</text>
<text x="120" y="417" text-anchor="end" font-size="14" fill="#9aa7b4">Ruby</text>
<rect x="132" y="401" width="384.7" height="24" rx="5" fill="#f0883e"/>
<text x="525.7" y="418" font-size="13" fill="#e6edf3">2.32B</text>
<text x="120" y="457" text-anchor="end" font-size="14" fill="#9aa7b4">Python</text>
<rect x="132" y="441" width="391.5" height="24" rx="5" fill="#f0883e"/>
<text x="532.5" y="458" font-size="13" fill="#e6edf3">2.50B</text>
<text x="120" y="497" text-anchor="end" font-size="14" fill="#9aa7b4">Elixir</text>
<rect x="132" y="481" width="392.1" height="24" rx="5" fill="#a371f7"/>
<text x="533.1" y="498" font-size="13" fill="#e6edf3">2.51B</text>
<text x="120" y="537" text-anchor="end" font-size="14" fill="#9aa7b4">Perl</text>
<rect x="132" y="521" width="472.7" height="24" rx="5" fill="#f0883e"/>
<text x="613.7" y="538" font-size="13" fill="#e6edf3">5.87B</text>
<text x="120" y="577" text-anchor="end" font-size="14" fill="#9aa7b4">COBOL</text>
<rect x="132" y="561" width="532.0" height="24" rx="5" fill="#3fb950"/>
<text x="673.0" y="578" font-size="13" fill="#e6edf3">10.97B</text>
</svg>