<svg xmlns="http://www.w3.org/2000/svg" width="760" height="622" viewBox="0 0 760 622" font-family="ui-sans-serif,system-ui,Segoe UI,Helvetica,Arial">
<rect width="760" height="622" rx="10" fill="#0d1117"/>
<text x="22" y="34" font-size="19" font-weight="700" fill="#e6edf3">viterbi:instructions at n=20000</text>
<text x="22" y="56" font-size="13" fill="#9aa7b4">absolute count · qemu+insn · x86_64 · log scale</text>
<text x="120" y="97" text-anchor="end" font-size="14" fill="#9aa7b4">C</text>
<rect x="132" y="81" width="22.4" height="24" rx="5" fill="#3fb950"/>
<text x="163.4" y="98" font-size="13" fill="#e6edf3">16.77M</text>
<text x="120" y="137" text-anchor="end" font-size="14" fill="#9aa7b4">Rust</text>
<rect x="132" y="121" width="33.1" height="24" rx="5" fill="#3fb950"/>
<text x="174.1" y="138" font-size="13" fill="#e6edf3">18.66M</text>
<text x="120" y="177" text-anchor="end" font-size="14" fill="#9aa7b4">Go</text>
<rect x="132" y="161" width="49.0" height="24" rx="5" fill="#3fb950"/>
<text x="190.0" y="178" font-size="13" fill="#e6edf3">21.86M</text>
<text x="120" y="217" text-anchor="end" font-size="14" fill="#9aa7b4">Swift</text>
<rect x="132" y="201" width="124.3" height="24" rx="5" fill="#3fb950"/>
<text x="265.3" y="218" font-size="13" fill="#e6edf3">46.35M</text>
<text x="120" y="257" text-anchor="end" font-size="14" fill="#9aa7b4">C#</text>
<rect x="132" y="241" width="293.6" height="24" rx="5" fill="#a371f7"/>
<text x="434.6" y="258" font-size="13" fill="#e6edf3">250.80M</text>
<text x="120" y="297" text-anchor="end" font-size="14" fill="#9aa7b4">Kotlin</text>
<rect x="132" y="281" width="303.1" height="24" rx="5" fill="#a371f7"/>
<text x="444.1" y="298" font-size="13" fill="#e6edf3">275.51M</text>
<text x="120" y="337" text-anchor="end" font-size="14" fill="#9aa7b4">PHP</text>
<rect x="132" y="321" width="368.9" height="24" rx="5" fill="#f0883e"/>
<text x="509.9" y="338" font-size="13" fill="#e6edf3">531.06M</text>
<text x="120" y="377" text-anchor="end" font-size="14" fill="#9aa7b4">Scala</text>
<rect x="132" y="361" width="409.7" height="24" rx="5" fill="#a371f7"/>
<text x="550.7" y="378" font-size="13" fill="#e6edf3">797.62M</text>
<text x="120" y="417" text-anchor="end" font-size="14" fill="#9aa7b4">Ruby</text>
<rect x="132" y="401" width="455.4" height="24" rx="5" fill="#f0883e"/>
<text x="596.4" y="418" font-size="13" fill="#e6edf3">1.26B</text>
<text x="120" y="457" text-anchor="end" font-size="14" fill="#9aa7b4">Python</text>
<rect x="132" y="441" width="499.3" height="24" rx="5" fill="#f0883e"/>
<text x="640.3" y="458" font-size="13" fill="#e6edf3">1.95B</text>
<text x="120" y="497" text-anchor="end" font-size="14" fill="#9aa7b4">COBOL</text>
<rect x="132" y="481" width="502.0" height="24" rx="5" fill="#3fb950"/>
<text x="643.0" y="498" font-size="13" fill="#e6edf3">2.00B</text>
<text x="120" y="537" text-anchor="end" font-size="14" fill="#9aa7b4">Perl</text>
<rect x="132" y="521" width="524.6" height="24" rx="5" fill="#f0883e"/>
<text x="665.6" y="538" font-size="13" fill="#e6edf3">2.51B</text>
<text x="120" y="577" text-anchor="end" font-size="14" fill="#9aa7b4">Elixir</text>
<rect x="132" y="561" width="532.0" height="24" rx="5" fill="#a371f7"/>
<text x="673.0" y="578" font-size="13" fill="#e6edf3">2.70B</text>
</svg>