<svg xmlns="http://www.w3.org/2000/svg" width="760" height="622" viewBox="0 0 760 622" font-family="ui-sans-serif,system-ui,Segoe UI,Helvetica,Arial">
<rect width="760" height="622" rx="10" fill="#0d1117"/>
<text x="22" y="34" font-size="19" font-weight="700" fill="#e6edf3">viterbi:instructions at n=20000</text>
<text x="22" y="56" font-size="13" fill="#9aa7b4">absolute count · qemu+insn · arm64 · log scale · less = more efficient</text>
<text x="120" y="97" text-anchor="end" font-size="14" fill="#9aa7b4">Rust</text>
<rect x="132" y="81" width="21.4" height="24" rx="5" fill="#3fb950"/>
<text x="162.4" y="98" font-size="13" fill="#e6edf3">13.33M</text>
<text x="120" y="137" text-anchor="end" font-size="14" fill="#9aa7b4">C</text>
<rect x="132" y="121" width="42.7" height="24" rx="5" fill="#3fb950"/>
<text x="183.7" y="138" font-size="13" fill="#e6edf3">16.63M</text>
<text x="120" y="177" text-anchor="end" font-size="14" fill="#9aa7b4">Go</text>
<rect x="132" y="161" width="73.0" height="24" rx="5" fill="#3fb950"/>
<text x="214.0" y="178" font-size="13" fill="#e6edf3">22.82M</text>
<text x="120" y="217" text-anchor="end" font-size="14" fill="#9aa7b4">Swift</text>
<rect x="132" y="201" width="136.3" height="24" rx="5" fill="#3fb950"/>
<text x="277.3" y="218" font-size="13" fill="#e6edf3">44.08M</text>
<text x="120" y="257" text-anchor="end" font-size="14" fill="#9aa7b4">C#</text>
<rect x="132" y="241" width="299.9" height="24" rx="5" fill="#a371f7"/>
<text x="440.9" y="258" font-size="13" fill="#e6edf3">242.52M</text>
<text x="120" y="297" text-anchor="end" font-size="14" fill="#9aa7b4">Kotlin</text>
<rect x="132" y="281" width="301.4" height="24" rx="5" fill="#a371f7"/>
<text x="442.4" y="298" font-size="13" fill="#e6edf3">246.30M</text>
<text x="120" y="337" text-anchor="end" font-size="14" fill="#9aa7b4">PHP</text>
<rect x="132" y="321" width="383.8" height="24" rx="5" fill="#f0883e"/>
<text x="524.8" y="338" font-size="13" fill="#e6edf3">581.31M</text>
<text x="120" y="377" text-anchor="end" font-size="14" fill="#9aa7b4">Scala</text>
<rect x="132" y="361" width="404.5" height="24" rx="5" fill="#a371f7"/>
<text x="545.5" y="378" font-size="13" fill="#e6edf3">721.10M</text>
<text x="120" y="417" text-anchor="end" font-size="14" fill="#9aa7b4">Ruby</text>
<rect x="132" y="401" width="472.8" height="24" rx="5" fill="#f0883e"/>
<text x="613.8" y="418" font-size="13" fill="#e6edf3">1.47B</text>
<text x="120" y="457" text-anchor="end" font-size="14" fill="#9aa7b4">Python</text>
<rect x="132" y="441" width="488.5" height="24" rx="5" fill="#f0883e"/>
<text x="629.5" y="458" font-size="13" fill="#e6edf3">1.73B</text>
<text x="120" y="497" text-anchor="end" font-size="14" fill="#9aa7b4">COBOL</text>
<rect x="132" y="481" width="513.2" height="24" rx="5" fill="#3fb950"/>
<text x="654.2" y="498" font-size="13" fill="#e6edf3">2.24B</text>
<text x="120" y="537" text-anchor="end" font-size="14" fill="#9aa7b4">Perl</text>
<rect x="132" y="521" width="530.9" height="24" rx="5" fill="#f0883e"/>
<text x="671.9" y="538" font-size="13" fill="#e6edf3">2.69B</text>
<text x="120" y="577" text-anchor="end" font-size="14" fill="#9aa7b4">Elixir</text>
<rect x="132" y="561" width="532.0" height="24" rx="5" fill="#a371f7"/>
<text x="673.0" y="578" font-size="13" fill="#e6edf3">2.72B</text>
</svg>