<svg xmlns="http://www.w3.org/2000/svg" width="760" height="622" viewBox="0 0 760 622" font-family="ui-sans-serif,system-ui,Segoe UI,Helvetica,Arial">
<rect width="760" height="622" rx="10" fill="#0d1117"/>
<text x="22" y="34" font-size="19" font-weight="700" fill="#e6edf3">vm:instructions at n=800000</text>
<text x="22" y="56" font-size="13" fill="#9aa7b4">absolute count · qemu+insn · x86_64 · log scale · less = more efficient</text>
<text x="120" y="97" text-anchor="end" font-size="14" fill="#9aa7b4">C</text>
<rect x="132" y="81" width="23.4" height="24" rx="5" fill="#3fb950"/>
<text x="164.4" y="98" font-size="13" fill="#e6edf3">211.30M</text>
<text x="120" y="137" text-anchor="end" font-size="14" fill="#9aa7b4">Rust</text>
<rect x="132" y="121" width="66.1" height="24" rx="5" fill="#3fb950"/>
<text x="207.1" y="138" font-size="13" fill="#e6edf3">317.79M</text>
<text x="120" y="177" text-anchor="end" font-size="14" fill="#9aa7b4">Swift</text>
<rect x="132" y="161" width="79.9" height="24" rx="5" fill="#3fb950"/>
<text x="220.9" y="178" font-size="13" fill="#e6edf3">362.71M</text>
<text x="120" y="217" text-anchor="end" font-size="14" fill="#9aa7b4">Go</text>
<rect x="132" y="201" width="89.4" height="24" rx="5" fill="#3fb950"/>
<text x="230.4" y="218" font-size="13" fill="#e6edf3">397.14M</text>
<text x="120" y="257" text-anchor="end" font-size="14" fill="#9aa7b4">C#</text>
<rect x="132" y="241" width="141.5" height="24" rx="5" fill="#a371f7"/>
<text x="282.5" y="258" font-size="13" fill="#e6edf3">653.57M</text>
<text x="120" y="297" text-anchor="end" font-size="14" fill="#9aa7b4">Kotlin</text>
<rect x="132" y="281" width="196.3" height="24" rx="5" fill="#a371f7"/>
<text x="337.3" y="298" font-size="13" fill="#e6edf3">1.10B</text>
<text x="120" y="337" text-anchor="end" font-size="14" fill="#9aa7b4">Scala</text>
<rect x="132" y="321" width="258.5" height="24" rx="5" fill="#a371f7"/>
<text x="399.5" y="338" font-size="13" fill="#e6edf3">2.00B</text>
<text x="120" y="377" text-anchor="end" font-size="14" fill="#9aa7b4">Elixir</text>
<rect x="132" y="361" width="310.7" height="24" rx="5" fill="#a371f7"/>
<text x="451.7" y="378" font-size="13" fill="#e6edf3">3.29B</text>
<text x="120" y="417" text-anchor="end" font-size="14" fill="#9aa7b4">PHP</text>
<rect x="132" y="401" width="395.2" height="24" rx="5" fill="#f0883e"/>
<text x="536.2" y="418" font-size="13" fill="#e6edf3">7.37B</text>
<text x="120" y="457" text-anchor="end" font-size="14" fill="#9aa7b4">COBOL</text>
<rect x="132" y="441" width="439.8" height="24" rx="5" fill="#3fb950"/>
<text x="580.8" y="458" font-size="13" fill="#e6edf3">11.30B</text>
<text x="120" y="497" text-anchor="end" font-size="14" fill="#9aa7b4">Ruby</text>
<rect x="132" y="481" width="484.5" height="24" rx="5" fill="#f0883e"/>
<text x="625.5" y="498" font-size="13" fill="#e6edf3">17.32B</text>
<text x="120" y="537" text-anchor="end" font-size="14" fill="#9aa7b4">Python</text>
<rect x="132" y="521" width="500.1" height="24" rx="5" fill="#f0883e"/>
<text x="641.1" y="538" font-size="13" fill="#e6edf3">20.10B</text>
<text x="120" y="577" text-anchor="end" font-size="14" fill="#9aa7b4">Perl</text>
<rect x="132" y="561" width="532.0" height="24" rx="5" fill="#f0883e"/>
<text x="673.0" y="578" font-size="13" fill="#e6edf3">27.26B</text>
</svg>