<svg xmlns="http://www.w3.org/2000/svg" width="760" height="542" viewBox="0 0 760 542" font-family="ui-sans-serif,system-ui,Segoe UI,Helvetica,Arial">
<rect width="760" height="542" rx="10" fill="#0d1117"/>
<text x="22" y="34" font-size="19" font-weight="700" fill="#e6edf3">vm:instructions at n=800000</text>
<text x="22" y="56" font-size="13" fill="#9aa7b4">absolute count · qemu+insn · arm64 · log scale · less = more efficient</text>
<text x="120" y="97" text-anchor="end" font-size="14" fill="#9aa7b4">C</text>
<rect x="132" y="81" width="23.1" height="24" rx="5" fill="#3fb950"/>
<text x="164.1" y="98" font-size="13" fill="#e6edf3">219.29M</text>
<text x="120" y="137" text-anchor="end" font-size="14" fill="#9aa7b4">Rust</text>
<rect x="132" y="121" width="65.9" height="24" rx="5" fill="#3fb950"/>
<text x="206.9" y="138" font-size="13" fill="#e6edf3">331.36M</text>
<text x="120" y="177" text-anchor="end" font-size="14" fill="#9aa7b4">Swift</text>
<rect x="132" y="161" width="87.1" height="24" rx="5" fill="#3fb950"/>
<text x="228.1" y="178" font-size="13" fill="#e6edf3">406.53M</text>
<text x="120" y="217" text-anchor="end" font-size="14" fill="#9aa7b4">Go</text>
<rect x="132" y="201" width="94.4" height="24" rx="5" fill="#3fb950"/>
<text x="235.4" y="218" font-size="13" fill="#e6edf3">436.31M</text>
<text x="120" y="257" text-anchor="end" font-size="14" fill="#9aa7b4">C#</text>
<rect x="132" y="241" width="129.6" height="24" rx="5" fill="#a371f7"/>
<text x="270.6" y="258" font-size="13" fill="#e6edf3">612.37M</text>
<text x="120" y="297" text-anchor="end" font-size="14" fill="#9aa7b4">Kotlin</text>
<rect x="132" y="281" width="138.6" height="24" rx="5" fill="#a371f7"/>
<text x="279.6" y="298" font-size="13" fill="#e6edf3">667.85M</text>
<text x="120" y="337" text-anchor="end" font-size="14" fill="#9aa7b4">Scala</text>
<rect x="132" y="321" width="195.4" height="24" rx="5" fill="#a371f7"/>
<text x="336.4" y="338" font-size="13" fill="#e6edf3">1.16B</text>
<text x="120" y="377" text-anchor="end" font-size="14" fill="#9aa7b4">Elixir</text>
<rect x="132" y="361" width="295.6" height="24" rx="5" fill="#a371f7"/>
<text x="436.6" y="378" font-size="13" fill="#e6edf3">3.04B</text>
<text x="120" y="417" text-anchor="end" font-size="14" fill="#9aa7b4">PHP</text>
<rect x="132" y="401" width="402.6" height="24" rx="5" fill="#f0883e"/>
<text x="543.6" y="418" font-size="13" fill="#e6edf3">8.53B</text>
<text x="120" y="457" text-anchor="end" font-size="14" fill="#9aa7b4">Python</text>
<rect x="132" y="441" width="475.7" height="24" rx="5" fill="#f0883e"/>
<text x="616.7" y="458" font-size="13" fill="#e6edf3">17.26B</text>
<text x="120" y="497" text-anchor="end" font-size="14" fill="#9aa7b4">Perl</text>
<rect x="132" y="481" width="532.0" height="24" rx="5" fill="#f0883e"/>
<text x="673.0" y="498" font-size="13" fill="#e6edf3">29.72B</text>
</svg>